{
.appVersion = "1352";
DisplayStrings = (

glyphs = (
{
color = 3;
glyphname = .notdef;
lastChange = "2021-12-15 23:40:28 +0000";
layers = (
{
background = {
paths = (
{
closed = 1;
nodes = (
"407 40 LINE",
"407 538 LINE",
"87 538 LINE",
"87 40 LINE"
);
},
{
closed = 1;
nodes = (
"147 139 LINE",
"230 292 LINE",
"147 443 LINE",
"158 465 LINE",
"241 314 LINE",
"326 466 LINE",
"339 443 LINE",
"253 290 LINE",
"339 139 LINE",
"326 117 LINE",
"241 267 LINE",
"158 117 LINE"
);
},
{
closed = 1;
nodes = (
"443 -5 LINE",
"454 7 LINE",
"454 575 LINE",
"443 587 LINE",
"52 587 LINE",
"40 575 LINE",
"40 7 LINE",
"52 -5 LINE"
);
},
{
closed = 1;
nodes = (
"66 21 LINE",
"66 561 LINE",
"430 561 LINE",
"430 21 LINE"
);
}
);
};
layerId = "D686CB0C-BBDB-4E69-8E5A-045D5C85CA47";
paths = (
{
closed = 1;
nodes = (
"407 40 LINE",
"407 538 LINE",
"87 538 LINE",
"87 40 LINE"
);
},
{
closed = 1;
nodes = (
"147 139 LINE",
"230 292 LINE",
"147 443 LINE",
"158 465 LINE",
"241 314 LINE",
"326 466 LINE",
"339 443 LINE",
"253 290 LINE",
"339 139 LINE",
"326 117 LINE",
"241 267 LINE",
"158 117 LINE"
);
},
{
closed = 1;
nodes = (
"443 -5 LINE",
"454 7 LINE",
"454 575 LINE",
"443 587 LINE",
"52 587 LINE",
"40 575 LINE",
"40 7 LINE",
"52 -5 LINE"
);
},
{
closed = 1;
nodes = (
"66 21 LINE",
"66 561 LINE",
"430 561 LINE",
"430 21 LINE"
);
}
);
width = 494;
},
{
layerId = "B8E7A328-E4C9-4125-8050-BD17141FCA48";
paths = (
{
closed = 1;
nodes = (
"407 40 LINE",
"407 538 LINE",
"87 538 LINE",
"87 40 LINE"
);
},
{
closed = 1;
nodes = (
"147 139 LINE",
"230 292 LINE",
"147 443 LINE",
"158 465 LINE",
"241 314 LINE",
"326 466 LINE",
"339 443 LINE",
"253 290 LINE",
"339 139 LINE",
"326 117 LINE",
"241 267 LINE",
"158 117 LINE"
);
},
{
closed = 1;
nodes = (
"443 -5 LINE",
"454 7 LINE",
"454 575 LINE",
"443 587 LINE",
"52 587 LINE",
"40 575 LINE",
"40 7 LINE",
"52 -5 LINE"
);
},
{
closed = 1;
nodes = (
"66 21 LINE",
"66 561 LINE",
"430 561 LINE",
"430 21 LINE"
);
}
);
width = 494;
}
);
note = .notdef;
},
{
glyphname = A;
lastChange = "2021-12-16 00:16:01 +0000";
layers = (
{
anchors = (
{
name = bottom;
position = "{204, 0}";
},
{
name = ogonek;
position = "{428, 10}";
},
{
name = top;
position = "{204, 620}";
}
);
background = {
paths = (
{
closed = 1;
nodes = (
"155 0 LINE",
"173 120 LINE",
"153 98 LINE",
"250 98 LINE",
"226 120 LINE",
"248 0 LINE",
"408 0 LINE",
"281 620 LINE",
"128 620 LINE",
"0 0 LINE"
);
},
{
closed = 1;
nodes = (
"201 411 LINE",
"202 439 LINE",
"203 439 LINE",
"204 411 LINE",
"223 204 LINE",
"242 220 LINE",
"166 220 LINE",
"179 204 LINE"
);
}
);
};
layerId = "D686CB0C-BBDB-4E69-8E5A-045D5C85CA47";
paths = (
{
closed = 1;
nodes = (
"155 0 LINE",
"173 120 LINE",
"153 98 LINE",
"250 98 LINE",
"226 120 LINE",
"248 0 LINE",
"408 0 LINE",
"281 620 LINE",
"128 620 LINE",
"0 0 LINE"
);
},
{
closed = 1;
nodes = (
"201 411 LINE",
"202 439 LINE",
"203 439 LINE",
"204 411 LINE",
"223 204 LINE",
"242 220 LINE",
"166 220 LINE",
"179 204 LINE"
);
}
);
width = 408;
},
{
anchors = (
{
name = bottom;
position = "{182, 0}";
},
{
name = ogonek;
position = "{410, 6}";
},
{
name = top;
position = "{182, 620}";
}
);
layerId = "B8E7A328-E4C9-4125-8050-BD17141FCA48";
paths = (
{
closed = 1;
nodes = (
"45 0 LINE",
"78 160 LINE",
"72 154 LINE",
"292 154 LINE",
"285 160 LINE",
"319 0 LINE",
"340 0 LINE",
"210 620 LINE",
"156 620 LINE",
"24 0 LINE"
);
},
{
closed = 1;
nodes = (
"170 598 LINE",
"172 599 LINE",
"194 599 LINE",
"196 598 LINE",
"285 167 LINE",
"289 171 LINE",
"75 171 LINE",
"78 167 LINE"
);
}
);
width = 366;
}
);
leftKerningGroup = A;
note = A;
rightKerningGroup = A;
unicode = 0041;
},
{
glyphname = AE;
lastChange = "2021-12-15 23:40:28 +0000";
layers = (
{
anchors = (
{
name = bottom;
position = "{341, 0}";
},
{
name = top;
position = "{341, 620}";
}
);
background = {
paths = (
{
closed = 1;
nodes = (
"315 0 LINE",
"664 0 LINE",
"664 120 LINE",
"469 120 LINE",
"469 273 LINE",
"622 273 LINE",
"640 393 LINE",
"469 393 LINE",
"469 500 LINE",
"664 500 LINE",
"664 620 LINE",
"315 620 LINE"
);
},
{
closed = 1;
nodes = (
"347 99 LINE",
"347 220 LINE",
"82 220 LINE",
"82 99 LINE"
);
},
{
closed = 1;
nodes = (
"155 0 LINE",
"315 620 LINE",
"182 620 LINE",
"0 0 LINE"
);
},
{
closed = 1;
nodes = (
"338 500 LINE",
"338 620 LINE",
"211 620 LINE",
"211 500 LINE"
);
}
);
};
layerId = "D686CB0C-BBDB-4E69-8E5A-045D5C85CA47";
paths = (
{
closed = 1;
nodes = (
"315 0 LINE",
"664 0 LINE",
"664 120 LINE",
"469 120 LINE",
"469 273 LINE",
"622 273 LINE",
"640 393 LINE",
"469 393 LINE",
"469 500 LINE",
"664 500 LINE",
"664 620 LINE",
"315 620 LINE"
);
},
{
closed = 1;
nodes = (
"347 99 LINE",
"347 220 LINE",
"82 220 LINE",
"82 99 LINE"
);
},
{
closed = 1;
nodes = (
"155 0 LINE",
"315 620 LINE",
"182 620 LINE",
"0 0 LINE"
);
},
{
closed = 1;
nodes = (
"338 500 LINE",
"338 620 LINE",
"211 620 LINE",
"211 500 LINE"
);
}
);
width = 681;
},
{
anchors = (
{
name = bottom;
position = "{279, 0}";
},
{
name = top;
position = "{279, 620}";
}
);
layerId = "B8E7A328-E4C9-4125-8050-BD17141FCA48";
paths = (
{
closed = 1;
nodes = (
"261 0 LINE",
"523 0 LINE",
"523 16 LINE",
"282 16 LINE",
"282 346 LINE",
"504 346 LINE",
"509 362 LINE",
"282 362 LINE",
"282 603 LINE",
"523 603 LINE",
"523 620 LINE",
"261 620 LINE"
);
},
{
closed = 1;
nodes = (
"270 154 LINE",
"270 171 LINE",
"66 171 LINE",
"66 154 LINE"
);
},
{
closed = 1;
nodes = (
"43 0 LINE",
"178 620 LINE",
"160 620 LINE",
"23 0 LINE"
);
},
{
closed = 1;
nodes = (
"271 603 LINE",
"271 620 LINE",
"162 620 LINE",
"162 603 LINE"
);
}
);
width = 557;
}
);
leftKerningGroup = AE;
rightKerningGroup = E;
unicode = 00C6;
},
{
glyphname = B;
lastChange = "2021-12-16 00:05:22 +0000";
layers = (
{
background = {
paths = (
{
closed = 1;
nodes = (
"240 0 LINE SMOOTH",
"351 0 OFFCURVE",
"371 48 OFFCURVE",
"371 153 CURVE SMOOTH",
"371 241 LINE SMOOTH",
"371 290 OFFCURVE",
"351 348 OFFCURVE",
"297 348 CURVE",
"297 352 LINE",
"344 352 OFFCURVE",
"368 414 OFFCURVE",
"368 472 CURVE SMOOTH",
"368 496 LINE SMOOTH",
"368 594 OFFCURVE",
"317 620 OFFCURVE",
"240 620 CURVE SMOOTH",
"20 620 LINE",
"20 0 LINE"
);
},
{
closed = 1;
nodes = (
"175 274 LINE",
"187 274 LINE SMOOTH",
"202 274 OFFCURVE",
"216 268 OFFCURVE",
"216 238 CURVE SMOOTH",
"216 162 LINE SMOOTH",
"216 134 OFFCURVE",
"206 119 OFFCURVE",
"189 119 CURVE SMOOTH",
"175 119 LINE"
);
},
{
closed = 1;
nodes = (
"175 510 LINE",
"188 510 LINE SMOOTH",
"211 510 OFFCURVE",
"216 492 OFFCURVE",
"216 463 CURVE SMOOTH",
"216 444 LINE SMOOTH",
"216 405 OFFCURVE",
"206 392 OFFCURVE",
"187 392 CURVE SMOOTH",
"175 392 LINE"
);
}
);
};
layerId = "D686CB0C-BBDB-4E69-8E5A-045D5C85CA47";
paths = (
{
closed = 1;
nodes = (
"240 0 LINE SMOOTH",
"351 0 OFFCURVE",
"371 48 OFFCURVE",
"371 153 CURVE SMOOTH",
"371 241 LINE SMOOTH",
"371 290 OFFCURVE",
"351 348 OFFCURVE",
"297 348 CURVE",
"297 352 LINE",
"344 352 OFFCURVE",
"368 414 OFFCURVE",
"368 472 CURVE SMOOTH",
"368 496 LINE SMOOTH",
"368 594 OFFCURVE",
"317 620 OFFCURVE",
"240 620 CURVE SMOOTH",
"20 620 LINE",
"20 0 LINE"
);
},
{
closed = 1;
nodes = (
"175 274 LINE",
"187 274 LINE SMOOTH",
"202 274 OFFCURVE",
"216 268 OFFCURVE",
"216 238 CURVE SMOOTH",
"216 162 LINE SMOOTH",
"216 134 OFFCURVE",
"206 119 OFFCURVE",
"189 119 CURVE SMOOTH",
"175 119 LINE"
);
},
{
closed = 1;
nodes = (
"175 510 LINE",
"188 510 LINE SMOOTH",
"211 510 OFFCURVE",
"216 492 OFFCURVE",
"216 463 CURVE SMOOTH",
"216 444 LINE SMOOTH",
"216 405 OFFCURVE",
"206 392 OFFCURVE",
"187 392 CURVE SMOOTH",
"175 392 LINE"
);
}
);
width = 386;
},
{
layerId = "B8E7A328-E4C9-4125-8050-BD17141FCA48";
paths = (
{
closed = 1;
nodes = (
"223 0 LINE SMOOTH",
"312 0 OFFCURVE",
"332 25 OFFCURVE",
"332 111 CURVE SMOOTH",
"332 239 LINE SMOOTH",
"332 301 OFFCURVE",
"309 333 OFFCURVE",
"250 346 CURVE",
"249 346 LINE",
"279 351 OFFCURVE",
"321 385 OFFCURVE",
"321 460 CURVE SMOOTH",
"321 524 LINE SMOOTH",
"321 605 OFFCURVE",
"299 620 OFFCURVE",
"214 620 CURVE SMOOTH",
"70 620 LINE",
"70 0 LINE"
);
},
{
closed = 1;
nodes = (
"90 337 LINE",
"200 337 LINE SMOOTH",
"263 337 OFFCURVE",
"310 311 OFFCURVE",
"310 247 CURVE SMOOTH",
"310 116 LINE SMOOTH",
"310 25 OFFCURVE",
"280 17 OFFCURVE",
"219 17 CURVE SMOOTH",
"90 17 LINE"
);
},
{
closed = 1;
nodes = (
"90 604 LINE",
"215 604 LINE SMOOTH",
"295 604 OFFCURVE",
"301 581 OFFCURVE",
"301 507 CURVE SMOOTH",
"301 466 LINE SMOOTH",
"301 376 OFFCURVE",
"254 354 OFFCURVE",
"214 354 CURVE SMOOTH",
"90 354 LINE"
);
}
);
width = 388;
}
);
leftKerningGroup = H;
leftMetricsKey = H;
note = B;
rightKerningGroup = B;
unicode = 0042;
},
{
glyphname = C;
lastChange = "2021-12-16 00:05:12 +0000";
layers = (
{
anchors = (
{
name = bottom;
position = "{190, 0}";
},
{
name = top;
position = "{190, 620}";
}
);
background = {
paths = (
{
closed = 1;
nodes = (
"305 -8 OFFCURVE",
"366 41 OFFCURVE",
"366 116 CURVE SMOOTH",
"366 272 LINE",
"214 256 LINE",
"214 153 LINE SMOOTH",
"214 134 OFFCURVE",
"214 118 OFFCURVE",
"192 118 CURVE SMOOTH",
"172 118 OFFCURVE",
"173 134 OFFCURVE",
"173 153 CURVE SMOOTH",
"173 453 LINE SMOOTH",
"173 481 OFFCURVE",
"171 502 OFFCURVE",
"192 502 CURVE SMOOTH",
"214 502 OFFCURVE",
"214 487 OFFCURVE",
"214 452 CURVE SMOOTH",
"214 340 LINE",
"366 358 LINE",
"366 490 LINE SMOOTH",
"367 591 OFFCURVE",
"305 626 OFFCURVE",
"192 626 CURVE SMOOTH",
"70 626 OFFCURVE",
"18 591 OFFCURVE",
"18 491 CURVE SMOOTH",
"18 116 LINE SMOOTH",
"18 41 OFFCURVE",
"70 -8 OFFCURVE",
"195 -8 CURVE SMOOTH"
);
}
);
};
layerId = "D686CB0C-BBDB-4E69-8E5A-045D5C85CA47";
paths = (
{
closed = 1;
nodes = (
"305 -8 OFFCURVE",
"366 41 OFFCURVE",
"366 116 CURVE SMOOTH",
"366 272 LINE",
"214 256 LINE",
"214 153 LINE SMOOTH",
"214 134 OFFCURVE",
"214 118 OFFCURVE",
"192 118 CURVE SMOOTH",
"172 118 OFFCURVE",
"173 134 OFFCURVE",
"173 153 CURVE SMOOTH",
"173 453 LINE SMOOTH",
"173 481 OFFCURVE",
"171 502 OFFCURVE",
"192 502 CURVE SMOOTH",
"214 502 OFFCURVE",
"214 487 OFFCURVE",
"214 452 CURVE SMOOTH",
"214 340 LINE",
"366 358 LINE",
"366 490 LINE SMOOTH",
"367 591 OFFCURVE",
"305 626 OFFCURVE",
"192 626 CURVE SMOOTH",
"70 626 OFFCURVE",
"18 591 OFFCURVE",
"18 491 CURVE SMOOTH",
"18 116 LINE SMOOTH",
"18 41 OFFCURVE",
"70 -8 OFFCURVE",
"195 -8 CURVE SMOOTH"
);
}
);
width = 379;
},
{
anchors = (
{
name = bottom;
position = "{185, 0}";
},
{
name = top;
position = "{185, 620}";
}
);
layerId = "B8E7A328-E4C9-4125-8050-BD17141FCA48";
paths = (
{
closed = 1;
nodes = (
"268 -6 OFFCURVE",
"316 25 OFFCURVE",
"316 93 CURVE SMOOTH",
"316 229 LINE",
"296 224 LINE",
"296 96 LINE SMOOTH",
"296 45 OFFCURVE",
"262 11 OFFCURVE",
"186 11 CURVE SMOOTH",
"111 11 OFFCURVE",
"78 45 OFFCURVE",
"78 95 CURVE SMOOTH",
"78 520 LINE SMOOTH",
"78 573 OFFCURVE",
"103 610 OFFCURVE",
"186 610 CURVE SMOOTH",
"271 610 OFFCURVE",
"296 573 OFFCURVE",
"296 519 CURVE SMOOTH",
"296 386 LINE",
"316 390 LINE",
"316 523 LINE SMOOTH",
"316 593 OFFCURVE",
"276 628 OFFCURVE",
"183 628 CURVE SMOOTH",
"95 628 OFFCURVE",
"58 591 OFFCURVE",
"58 524 CURVE SMOOTH",
"58 92 LINE SMOOTH",
"58 25 OFFCURVE",
"104 -6 OFFCURVE",
"186 -6 CURVE SMOOTH"
);
}
);
width = 369;
}
);
leftKerningGroup = O;
leftMetricsKey = O;
note = C;
rightKerningGroup = C;
rightMetricsKey = "=O-5";
unicode = 0043;
},
{
glyphname = D;
lastChange = "2021-12-16 00:05:12 +0000";
layers = (
{
anchors = (
{
name = bottom;
position = "{193, 0}";
},
{
name = center;
position = "{193, 310}";
},
{
name = top;
position = "{193, 620}";
}
);
background = {
paths = (
{
closed = 1;
nodes = (
"20 0 LINE",
"296 0 LINE SMOOTH",
"353 0 OFFCURVE",
"368 27 OFFCURVE",
"368 89 CURVE SMOOTH",
"368 532 LINE SMOOTH",
"368 594 OFFCURVE",
"356 620 OFFCURVE",
"293 620 CURVE SMOOTH",
"20 620 LINE"
);
},
{
closed = 1;
nodes = (
"173 120 LINE",
"173 500 LINE",
"199 500 LINE SMOOTH",
"214 500 OFFCURVE",
"214 492 OFFCURVE",
"214 478 CURVE SMOOTH",
"214 143 LINE SMOOTH",
"214 134 OFFCURVE",
"214 120 OFFCURVE",
"199 120 CURVE SMOOTH"
);
}
);
};
layerId = "D686CB0C-BBDB-4E69-8E5A-045D5C85CA47";
paths = (
{
closed = 1;
nodes = (
"20 0 LINE",
"296 0 LINE SMOOTH",
"353 0 OFFCURVE",
"368 27 OFFCURVE",
"368 89 CURVE SMOOTH",
"368 532 LINE SMOOTH",
"368 594 OFFCURVE",
"356 620 OFFCURVE",
"293 620 CURVE SMOOTH",
"20 620 LINE"
);
},
{
closed = 1;
nodes = (
"173 120 LINE",
"173 500 LINE",
"199 500 LINE SMOOTH",
"214 500 OFFCURVE",
"214 492 OFFCURVE",
"214 478 CURVE SMOOTH",
"214 143 LINE SMOOTH",
"214 134 OFFCURVE",
"214 120 OFFCURVE",
"199 120 CURVE SMOOTH"
);
}
);
width = 386;
},
{
anchors = (
{
name = bottom;
position = "{196, 0}";
},
{
name = center;
position = "{196, 310}";
},
{
name = top;
position = "{196, 620}";
}
);
layerId = "B8E7A328-E4C9-4125-8050-BD17141FCA48";
paths = (
{
closed = 1;
nodes = (
"70 0 LINE",
"235 0 LINE SMOOTH",
"315 0 OFFCURVE",
"330 27 OFFCURVE",
"330 99 CURVE SMOOTH",
"330 522 LINE SMOOTH",
"330 584 OFFCURVE",
"306 620 OFFCURVE",
"243 620 CURVE SMOOTH",
"70 620 LINE"
);
},
{
closed = 1;
nodes = (
"90 17 LINE",
"90 603 LINE",
"237 603 LINE SMOOTH",
"282 603 OFFCURVE",
"310 576 OFFCURVE",
"310 519 CURVE SMOOTH",
"310 102 LINE SMOOTH",
"310 32 OFFCURVE",
"291 17 OFFCURVE",
"226 17 CURVE SMOOTH"
);
}
);
width = 388;
}
);
leftKerningGroup = H;
leftMetricsKey = H;
note = D;
rightKerningGroup = O;
rightMetricsKey = O;
unicode = 0044;
},
{
glyphname = Eth;
lastChange = "2021-12-15 23:40:28 +0000";
layers = (
{
background = {
paths = (
{
closed = 1;
nodes = (
"58 0 LINE",
"342 0 LINE SMOOTH",
"399 0 OFFCURVE",
"414 27 OFFCURVE",
"414 89 CURVE SMOOTH",
"414 532 LINE SMOOTH",
"414 594 OFFCURVE",
"402 620 OFFCURVE",
"339 620 CURVE SMOOTH",
"58 620 LINE"
);
},
{
closed = 1;
nodes = (
"240 203 LINE",
"240 287 LINE",
"21 287 LINE",
"21 203 LINE"
);
},
{
closed = 1;
nodes = (
"211 120 LINE",
"211 500 LINE",
"247 500 LINE SMOOTH",
"262 500 OFFCURVE",
"262 492 OFFCURVE",
"262 478 CURVE SMOOTH",
"262 143 LINE SMOOTH",
"262 134 OFFCURVE",
"262 120 OFFCURVE",
"247 120 CURVE SMOOTH"
);
}
);
};
layerId = "D686CB0C-BBDB-4E69-8E5A-045D5C85CA47";
paths = (
{
closed = 1;
nodes = (
"58 0 LINE",
"342 0 LINE SMOOTH",
"399 0 OFFCURVE",
"414 27 OFFCURVE",
"414 89 CURVE SMOOTH",
"414 532 LINE SMOOTH",
"414 594 OFFCURVE",
"402 620 OFFCURVE",
"339 620 CURVE SMOOTH",
"58 620 LINE"
);
},
{
closed = 1;
nodes = (
"240 203 LINE",
"240 287 LINE",
"21 287 LINE",
"21 203 LINE"
);
},
{
closed = 1;
nodes = (
"211 120 LINE",
"211 500 LINE",
"247 500 LINE SMOOTH",
"262 500 OFFCURVE",
"262 492 OFFCURVE",
"262 478 CURVE SMOOTH",
"262 143 LINE SMOOTH",
"262 134 OFFCURVE",
"262 120 OFFCURVE",
"247 120 CURVE SMOOTH"
);
}
);
width = 450;
},
{
layerId = "B8E7A328-E4C9-4125-8050-BD17141FCA48";
paths = (
{
closed = 1;
nodes = (
"69 0 LINE",
"235 0 LINE SMOOTH",
"316 0 OFFCURVE",
"332 27 OFFCURVE",
"332 99 CURVE SMOOTH",
"332 522 LINE SMOOTH",
"332 584 OFFCURVE",
"306 620 OFFCURVE",
"243 620 CURVE SMOOTH",
"69 620 LINE"
);
},
{
closed = 1;
nodes = (
"208 178 LINE",
"208 192 LINE",
"2 192 LINE",
"2 178 LINE"
);
},
{
closed = 1;
nodes = (
"90 17 LINE",
"90 603 LINE",
"237 603 LINE SMOOTH",
"282 603 OFFCURVE",
"311 576 OFFCURVE",
"311 519 CURVE SMOOTH",
"311 102 LINE SMOOTH",
"311 32 OFFCURVE",
"292 17 OFFCURVE",
"227 17 CURVE SMOOTH"
);
}
);
width = 371;
}
);
leftKerningGroup = H;
rightKerningGroup = O;
unicode = 00D0;
},
{
glyphname = E;
lastChange = "2021-12-16 00:05:37 +0000";
layers = (
{
anchors = (
{
name = bottom;
position = "{181, 0}";
},
{
name = ogonek;
position = "{378, 10}";
},
{
name = top;
position = "{181, 620}";
},
{
name = topleft;
position = "{20, 620}";
}
);
background = {
paths = (
{
closed = 1;
nodes = (
"20 0 LINE",
"349 0 LINE",
"349 120 LINE",
"174 120 LINE",
"174 273 LINE",
"307 273 LINE",
"325 393 LINE",
"174 393 LINE",
"174 500 LINE",
"349 500 LINE",
"349 620 LINE",
"20 620 LINE"
);
}
);
};
layerId = "D686CB0C-BBDB-4E69-8E5A-045D5C85CA47";
paths = (
{
closed = 1;
nodes = (
"20 0 LINE",
"349 0 LINE",
"349 120 LINE",
"174 120 LINE",
"174 273 LINE",
"307 273 LINE",
"325 393 LINE",
"174 393 LINE",
"174 500 LINE",
"349 500 LINE",
"349 620 LINE",
"20 620 LINE"
);
}
);
width = 362;
},
{
anchors = (
{
name = bottom;
position = "{185, 0}";
},
{
name = ogonek;
position = "{399, 8}";
},
{
name = top;
position = "{185, 620}";
},
{
name = topleft;
position = "{37, 620}";
}
);
layerId = "B8E7A328-E4C9-4125-8050-BD17141FCA48";
paths = (
{
closed = 1;
nodes = (
"70 0 LINE",
"330 0 LINE",
"330 16 LINE",
"90 16 LINE",
"90 346 LINE",
"311 346 LINE",
"316 362 LINE",
"90 362 LINE",
"90 603 LINE",
"330 603 LINE",
"330 620 LINE",
"70 620 LINE"
);
}
);
width = 365;
}
);
leftKerningGroup = H;
leftMetricsKey = H;
note = E;
rightKerningGroup = E;
unicode = 0045;
},
{
glyphname = F;
lastChange = "2021-12-16 00:05:40 +0000";
layers = (
{
background = {
paths = (
{
closed = 1;
nodes = (
"20 0 LINE",
"174 0 LINE",
"174 273 LINE",
"308 273 LINE",
"326 393 LINE",
"174 393 LINE",
"174 500 LINE",
"349 500 LINE",
"349 620 LINE",
"20 620 LINE"
);
}
);
};
layerId = "D686CB0C-BBDB-4E69-8E5A-045D5C85CA47";
paths = (
{
closed = 1;
nodes = (
"20 0 LINE",
"174 0 LINE",
"174 273 LINE",
"308 273 LINE",
"326 393 LINE",
"174 393 LINE",
"174 500 LINE",
"349 500 LINE",
"349 620 LINE",
"20 620 LINE"
);
}
);
width = 361;
},
{
layerId = "B8E7A328-E4C9-4125-8050-BD17141FCA48";
paths = (
{
closed = 1;
nodes = (
"70 0 LINE",
"90 0 LINE",
"90 346 LINE",
"311 346 LINE",
"316 362 LINE",
"90 362 LINE",
"90 603 LINE",
"330 603 LINE",
"330 620 LINE",
"70 620 LINE"
);
}
);
width = 360;
}
);
leftKerningGroup = H;
leftMetricsKey = H;
note = F;
rightKerningGroup = F;
unicode = 0046;
},
{
glyphname = G;
lastChange = "2021-12-16 00:05:12 +0000";
layers = (
{
anchors = (
{
name = bottom;
position = "{190, 0}";
},
{
name = top;
position = "{190, 620}";
}
);
background = {
paths = (
{
closed = 1;
nodes = (
"304 -8 OFFCURVE",
"367 41 OFFCURVE",
"367 116 CURVE SMOOTH",
"367 333 LINE",
"199 333 LINE",
"191 204 LINE",
"218 204 LINE",
"218 141 LINE SMOOTH",
"218 127 OFFCURVE",
"215 118 OFFCURVE",
"195 118 CURVE SMOOTH",
"175 118 OFFCURVE",
"172 127 OFFCURVE",
"172 141 CURVE SMOOTH",
"172 460 LINE SMOOTH",
"172 488 OFFCURVE",
"170 502 OFFCURVE",
"193 502 CURVE SMOOTH",
"213 502 OFFCURVE",
"213 494 OFFCURVE",
"213 459 CURVE SMOOTH",
"213 405 LINE",
"367 410 LINE",
"367 490 LINE SMOOTH",
"367 591 OFFCURVE",
"304 626 OFFCURVE",
"191 626 CURVE SMOOTH",
"69 626 OFFCURVE",
"18 591 OFFCURVE",
"18 491 CURVE SMOOTH",
"18 116 LINE SMOOTH",
"18 41 OFFCURVE",
"69 -8 OFFCURVE",
"194 -8 CURVE SMOOTH"
);
}
);
};
layerId = "D686CB0C-BBDB-4E69-8E5A-045D5C85CA47";
paths = (
{
closed = 1;
nodes = (
"304 -8 OFFCURVE",
"367 41 OFFCURVE",
"367 116 CURVE SMOOTH",
"367 333 LINE",
"199 333 LINE",
"191 204 LINE",
"218 204 LINE",
"218 141 LINE SMOOTH",
"218 127 OFFCURVE",
"215 118 OFFCURVE",
"195 118 CURVE SMOOTH",
"175 118 OFFCURVE",
"172 127 OFFCURVE",
"172 141 CURVE SMOOTH",
"172 460 LINE SMOOTH",
"172 488 OFFCURVE",
"170 502 OFFCURVE",
"193 502 CURVE SMOOTH",
"213 502 OFFCURVE",
"213 494 OFFCURVE",
"213 459 CURVE SMOOTH",
"213 405 LINE",
"367 410 LINE",
"367 490 LINE SMOOTH",
"367 591 OFFCURVE",
"304 626 OFFCURVE",
"191 626 CURVE SMOOTH",
"69 626 OFFCURVE",
"18 591 OFFCURVE",
"18 491 CURVE SMOOTH",
"18 116 LINE SMOOTH",
"18 41 OFFCURVE",
"69 -8 OFFCURVE",
"194 -8 CURVE SMOOTH"
);
}
);
width = 382;
},
{
anchors = (
{
name = bottom;
position = "{187, 0}";
},
{
name = top;
position = "{187, 620}";
}
);
layerId = "B8E7A328-E4C9-4125-8050-BD17141FCA48";
paths = (
{
closed = 1;
nodes = (
"275 -2 OFFCURVE",
"320 7 OFFCURVE",
"320 82 CURVE SMOOTH",
"320 333 LINE",
"170 333 LINE",
"165 316 LINE",
"300 316 LINE",
"300 84 LINE SMOOTH",
"300 20 OFFCURVE",
"255 15 OFFCURVE",
"193 15 CURVE SMOOTH",
"126 15 OFFCURVE",
"78 20 OFFCURVE",
"78 84 CURVE SMOOTH",
"78 541 LINE SMOOTH",
"78 599 OFFCURVE",
"127 607 OFFCURVE",
"193 607 CURVE SMOOTH",
"259 607 OFFCURVE",
"300 595 OFFCURVE",
"300 540 CURVE SMOOTH",
"300 423 LINE",
"320 428 LINE",
"320 542 LINE SMOOTH",
"320 608 OFFCURVE",
"275 624 OFFCURVE",
"193 624 CURVE SMOOTH",
"110 624 OFFCURVE",
"58 610 OFFCURVE",
"58 543 CURVE SMOOTH",
"58 82 LINE SMOOTH",
"58 7 OFFCURVE",
"110 -2 OFFCURVE",
"193 -2 CURVE SMOOTH"
);
}
);
width = 375;
}
);
leftKerningGroup = O;
leftMetricsKey = O;
note = G;
rightKerningGroup = G;
rightMetricsKey = "=O-3";
unicode = 0047;
},
{
glyphname = H;
lastChange = "2021-12-16 00:04:19 +0000";
layers = (
{
anchors = (
{
name = bottom;
position = "{194, 0}";
},
{
name = center;
position = "{194, 310}";
},
{
name = top;
position = "{194, 620}";
},
{
name = topleft;
position = "{20, 620}";
}
);
background = {
paths = (
{
closed = 1;
nodes = (
"20 0 LINE",
"174 0 LINE",
"174 273 LINE",
"214 273 LINE",
"214 0 LINE",
"368 0 LINE",
"368 620 LINE",
"214 620 LINE",
"214 393 LINE",
"174 393 LINE",
"174 620 LINE",
"20 620 LINE"
);
}
);
};
layerId = "D686CB0C-BBDB-4E69-8E5A-045D5C85CA47";
paths = (
{
closed = 1;
nodes = (
"20 0 LINE",
"174 0 LINE",
"174 273 LINE",
"214 273 LINE",
"214 0 LINE",
"368 0 LINE",
"368 620 LINE",
"214 620 LINE",
"214 393 LINE",
"174 393 LINE",
"174 620 LINE",
"20 620 LINE"
);
}
);
width = 388;
},
{
anchors = (
{
name = bottom;
position = "{200, 0}";
},
{
name = center;
position = "{200, 310}";
},
{
name = top;
position = "{200, 620}";
},
{
name = topleft;
position = "{37, 620}";
}
);
layerId = "B8E7A328-E4C9-4125-8050-BD17141FCA48";
paths = (
{
closed = 1;
nodes = (
"70 0 LINE",
"90 0 LINE",
"90 346 LINE",
"310 346 LINE",
"310 0 LINE",
"330 0 LINE",
"330 620 LINE",
"310 620 LINE",
"310 362 LINE",
"90 362 LINE",
"90 620 LINE",
"70 620 LINE"
);
}
);
width = 400;
}
);
leftKerningGroup = H;
note = H;
rightKerningGroup = H;
unicode = 0048;
},
{
glyphname = I;
lastChange = "2021-12-16 00:05:12 +0000";
layers = (
{
anchors = (
{
name = bottom;
position = "{97, 0}";
},
{
name = ogonek;
position = "{193, 20}";
},
{
name = top;
position = "{97, 620}";
},
{
name = topleft;
position = "{20, 620}";
}
);
background = {
paths = (
{
closed = 1;
nodes = (
"20 0 LINE",
"174 0 LINE",
"174 620 LINE",
"20 620 LINE"
);
}
);
};
layerId = "D686CB0C-BBDB-4E69-8E5A-045D5C85CA47";
paths = (
{
closed = 1;
nodes = (
"20 0 LINE",
"174 0 LINE",
"174 620 LINE",
"20 620 LINE"
);
}
);
width = 194;
},
{
anchors = (
{
name = bottom;
position = "{80, 0}";
},
{
name = ogonek;
position = "{160, 9}";
},
{
name = top;
position = "{80, 620}";
},
{
name = topleft;
position = "{37, 620}";
}
);
layerId = "B8E7A328-E4C9-4125-8050-BD17141FCA48";
paths = (
{
closed = 1;
nodes = (
"70 0 LINE",
"90 0 LINE",
"90 620 LINE",
"70 620 LINE"
);
}
);
width = 160;
}
);
leftMetricsKey = H;
note = I;
rightMetricsKey = H;
unicode = 0049;
},
{
glyphname = J;
lastChange = "2021-12-16 00:05:54 +0000";
layers = (
{
anchors = (
{
name = bottom;
position = "{129, 0}";
},
{
name = top;
position = "{163, 620}";
}
);
background = {
paths = (
{
closed = 1;
nodes = (
"103 0 LINE SMOOTH",
"227 0 OFFCURVE",
"241 38 OFFCURVE",
"241 140 CURVE SMOOTH",
"241 620 LINE",
"87 620 LINE",
"87 191 LINE SMOOTH",
"87 129 OFFCURVE",
"87 120 OFFCURVE",
"49 120 CURVE SMOOTH",
"-2 120 LINE",
"17 0 LINE"
);
}
);
};
layerId = "D686CB0C-BBDB-4E69-8E5A-045D5C85CA47";
paths = (
{
closed = 1;
nodes = (
"103 0 LINE SMOOTH",
"227 0 OFFCURVE",
"241 38 OFFCURVE",
"241 140 CURVE SMOOTH",
"241 620 LINE",
"87 620 LINE",
"87 191 LINE SMOOTH",
"87 129 OFFCURVE",
"87 120 OFFCURVE",
"49 120 CURVE SMOOTH",
"-2 120 LINE",
"17 0 LINE"
);
}
);
width = 257;
},
{
anchors = (
{
name = bottom;
position = "{82, 0}";
},
{
name = top;
position = "{99, 620}";
}
);
layerId = "B8E7A328-E4C9-4125-8050-BD17141FCA48";
paths = (
{
closed = 1;
nodes = (
"49 0 LINE SMOOTH",
"109 0 OFFCURVE",
"109 8 OFFCURVE",
"109 85 CURVE SMOOTH",
"109 620 LINE",
"89 620 LINE",
"89 88 LINE SMOOTH",
"89 26 OFFCURVE",
"89 17 OFFCURVE",
"51 17 CURVE SMOOTH",
"0 17 LINE",
"5 0 LINE"
);
}
);
width = 175;
}
);
leftKerningGroup = J;
note = J;
rightKerningGroup = J;
rightMetricsKey = U;
unicode = 004A;
},
{
glyphname = K;
lastChange = "2021-12-16 00:07:56 +0000";
layers = (
{
anchors = (
{
name = bottom;
position = "{216, 0}";
},
{
name = top;
position = "{216, 620}";
}
);
background = {
paths = (
{
closed = 1;
nodes = (
"436 50 LINE",
"262 343 LINE",
"407 559 LINE",
"292 632 LINE",
"105 332 LINE",
"299 -21 LINE"
);
},
{
closed = 1;
nodes = (
"20 0 LINE",
"175 0 LINE",
"175 620 LINE",
"20 620 LINE"
);
}
);
};
layerId = "D686CB0C-BBDB-4E69-8E5A-045D5C85CA47";
paths = (
{
closed = 1;
nodes = (
"436 50 LINE",
"262 343 LINE",
"407 559 LINE",
"292 632 LINE",
"105 332 LINE",
"299 -21 LINE"
);
},
{
closed = 1;
nodes = (
"20 0 LINE",
"175 0 LINE",
"175 620 LINE",
"20 620 LINE"
);
}
);
width = 431;
},
{
anchors = (
{
name = bottom;
position = "{175, 0}";
},
{
name = top;
position = "{175, 620}";
}
);
layerId = "B8E7A328-E4C9-4125-8050-BD17141FCA48";
paths = (
{
closed = 1;
nodes = (
"327 3 LINE",
"154 335 LINE",
"312 614 LINE",
"296 623 LINE",
"132 335 LINE",
"308 -6 LINE"
);
},
{
closed = 1;
nodes = (
"70 0 LINE",
"90 0 LINE",
"90 620 LINE",
"70 620 LINE"
);
}
);
width = 341;
}
);
leftKerningGroup = H;
leftMetricsKey = H;
note = K;
rightKerningGroup = K;
unicode = 004B;
},
{
glyphname = L;
lastChange = "2021-12-16 00:16:11 +0000";
layers = (
{
anchors = (
{
name = bottom;
position = "{175, 0}";
},
{
name = center;
position = "{175, 310}";
},
{
name = top;
position = "{175, 620}";
},
{
name = topright;
position = "{239, 643}";
}
);
background = {
paths = (
{
closed = 1;
nodes = (
"20 0 LINE",
"369 0 LINE",
"369 120 LINE",
"174 120 LINE",
"174 620 LINE",
"20 620 LINE"
);
}
);
};
layerId = "D686CB0C-BBDB-4E69-8E5A-045D5C85CA47";
paths = (
{
closed = 1;
nodes = (
"20 0 LINE",
"339 0 LINE",
"339 120 LINE",
"174 120 LINE",
"174 620 LINE",
"20 620 LINE"
);
}
);
width = 349;
},
{
anchors = (
{
name = bottom;
position = "{181, 0}";
},
{
name = center;
position = "{164, 310}";
},
{
name = top;
position = "{85, 620}";
},
{
name = topright;
position = "{156, 649}";
}
);
layerId = "B8E7A328-E4C9-4125-8050-BD17141FCA48";
paths = (
{
closed = 1;
nodes = (
"70 0 LINE",
"301 0 LINE",
"301 16 LINE",
"90 16 LINE",
"90 620 LINE",
"70 620 LINE"
);
}
);
width = 317;
}
);
leftKerningGroup = H;
leftMetricsKey = H;
note = L;
rightKerningGroup = L;
unicode = 004C;
},
{
glyphname = Lslash;
lastChange = "2021-12-15 23:40:28 +0000";
layers = (
{
anchors = (
{
name = bottom;
position = "{175, 0}";
},
{
name = center;
position = "{175, 310}";
},
{
name = top;
position = "{175, 620}";
},
{
name = topright;
position = "{239, 643}";
}
);
background = {
components = (
{
name = L;
},
{
name = hyphen;
transform = "{0.73112, 0.1959, -0.25882, 0.96593, 24, -79}";
}
);
};
layerId = "D686CB0C-BBDB-4E69-8E5A-045D5C85CA47";
paths = (
{
closed = 1;
nodes = (
"20 0 LINE",
"339 0 LINE",
"339 120 LINE",
"174 120 LINE",
"174 620 LINE",
"20 620 LINE"
);
},
{
closed = 1;
nodes = (
"254 237 LINE",
"223 353 LINE",
"-41 282 LINE",
"-10 166 LINE"
);
}
);
width = 374;
},
{
anchors = (
{
name = bottom;
position = "{164, 0}";
},
{
name = center;
position = "{147, 310}";
},
{
name = top;
position = "{68, 620}";
},
{
name = topright;
position = "{139, 649}";
}
);
layerId = "B8E7A328-E4C9-4125-8050-BD17141FCA48";
paths = (
{
closed = 1;
nodes = (
"53 0 LINE",
"285 0 LINE",
"285 16 LINE",
"73 16 LINE",
"73 620 LINE",
"53 620 LINE"
);
},
{
closed = 1;
nodes = (
"170 264 LINE",
"165 280 LINE",
"-4 235 LINE",
"1 219 LINE"
);
}
);
width = 333;
}
);
leftKerningGroup = H;
rightKerningGroup = L;
unicode = 0141;
},
{
color = 4;
glyphname = M;
lastChange = "2021-12-16 00:05:12 +0000";
layers = (
{
background = {
paths = (
{
closed = 1;
nodes = (
"174 0 LINE",
"174 291 LINE",
"176 291 LINE",
"176 264 LINE",
"224 97 LINE",
"348 97 LINE",
"396 264 LINE",
"396 291 LINE",
"398 291 LINE",
"398 0 LINE",
"552 0 LINE",
"552 620 LINE",
"358 620 LINE",
"287 309 LINE",
"287 302 LINE",
"285 302 LINE",
"285 309 LINE",
"214 620 LINE",
"20 620 LINE",
"20 0 LINE"
);
}
);
};
layerId = "D686CB0C-BBDB-4E69-8E5A-045D5C85CA47";
paths = (
{
closed = 1;
nodes = (
"174 0 LINE",
"174 291 LINE",
"176 291 LINE",
"176 264 LINE",
"224 97 LINE",
"348 97 LINE",
"396 264 LINE",
"396 291 LINE",
"398 291 LINE",
"398 0 LINE",
"552 0 LINE",
"552 620 LINE",
"358 620 LINE",
"287 309 LINE",
"287 302 LINE",
"285 302 LINE",
"285 309 LINE",
"214 620 LINE",
"20 620 LINE",
"20 0 LINE"
);
}
);
width = 572;
},
{
layerId = "B8E7A328-E4C9-4125-8050-BD17141FCA48";
paths = (
{
closed = 1;
nodes = (
"90 0 LINE",
"90 577 LINE",
"91 574 LINE",
"92 570 LINE",
"263 52 LINE",
"280 52 LINE",
"452 575 LINE",
"454 583 LINE",
"454 581 LINE",
"454 0 LINE",
"474 0 LINE",
"474 620 LINE",
"446 620 LINE",
"273 90 LINE",
"272 87 LINE",
"271 87 LINE",
"270 90 LINE",
"96 620 LINE",
"70 620 LINE",
"70 0 LINE"
);
}
);
width = 544;
}
);
leftKerningGroup = H;
leftMetricsKey = H;
note = M;
rightKerningGroup = H;
rightMetricsKey = H;
unicode = 004D;
},
{
color = 4;
glyphname = N;
lastChange = "2021-12-16 00:05:12 +0000";
layers = (
{
anchors = (
{
name = bottom;
position = "{209, 0}";
},
{
name = top;
position = "{209, 620}";
}
);
background = {
paths = (
{
closed = 1;
nodes = (
"173 0 LINE",
"173 250 LINE",
"174 250 LINE",
"174 243 LINE",
"241 0 LINE",
"398 0 LINE",
"398 620 LINE",
"244 620 LINE",
"244 318 LINE",
"243 318 LINE",
"243 324 LINE",
"174 620 LINE",
"20 620 LINE",
"20 0 LINE"
);
}
);
};
layerId = "D686CB0C-BBDB-4E69-8E5A-045D5C85CA47";
paths = (
{
closed = 1;
nodes = (
"173 0 LINE",
"173 250 LINE",
"174 250 LINE",
"174 243 LINE",
"241 0 LINE",
"398 0 LINE",
"398 620 LINE",
"244 620 LINE",
"244 318 LINE",
"243 318 LINE",
"243 324 LINE",
"174 620 LINE",
"20 620 LINE",
"20 0 LINE"
);
}
);
width = 418;
},
{
anchors = (
{
name = bottom;
position = "{202, 0}";
},
{
name = top;
position = "{202, 620}";
}
);
layerId = "B8E7A328-E4C9-4125-8050-BD17141FCA48";
paths = (
{
closed = 1;
nodes = (
"90 0 LINE",
"90 568 LINE",
"90 568 LINE",
"93 561 LINE",
"310 0 LINE",
"333 0 LINE",
"333 620 LINE",
"313 620 LINE",
"313 42 LINE",
"312 44 LINE",
"310 49 LINE",
"91 620 LINE",
"70 620 LINE",
"70 0 LINE"
);
}
);
width = 403;
}
);
leftKerningGroup = H;
leftMetricsKey = H;
note = N;
rightKerningGroup = H;
rightMetricsKey = H;
unicode = 004E;
},
{
glyphname = Eng;
lastChange = "2021-12-16 00:05:12 +0000";
layers = (
{
background = {
paths = (
{
closed = 1;
nodes = (
"277 -202 LINE SMOOTH",
"367 -202 OFFCURVE",
"398 -153 OFFCURVE",
"398 -75 CURVE SMOOTH",
"398 620 LINE",
"244 620 LINE",
"244 318 LINE",
"243 318 LINE",
"243 324 LINE",
"174 620 LINE",
"20 620 LINE",
"20 0 LINE",
"173 0 LINE",
"173 250 LINE",
"174 250 LINE",
"174 243 LINE",
"248 -25 LINE",
"248 -54 LINE SMOOTH",
"248 -73 OFFCURVE",
"240 -82 OFFCURVE",
"209 -82 CURVE SMOOTH",
"148 -82 LINE",
"166 -202 LINE"
);
}
);
};
layerId = "D686CB0C-BBDB-4E69-8E5A-045D5C85CA47";
paths = (
{
closed = 1;
nodes = (
"277 -202 LINE SMOOTH",
"367 -202 OFFCURVE",
"398 -153 OFFCURVE",
"398 -75 CURVE SMOOTH",
"398 620 LINE",
"244 620 LINE",
"244 318 LINE",
"243 318 LINE",
"243 324 LINE",
"174 620 LINE",
"20 620 LINE",
"20 0 LINE",
"173 0 LINE",
"173 250 LINE",
"174 250 LINE",
"174 243 LINE",
"248 -25 LINE",
"248 -54 LINE SMOOTH",
"248 -73 OFFCURVE",
"240 -82 OFFCURVE",
"209 -82 CURVE SMOOTH",
"148 -82 LINE",
"166 -202 LINE"
);
}
);
width = 418;
},
{
layerId = "B8E7A328-E4C9-4125-8050-BD17141FCA48";
paths = (
{
closed = 1;
nodes = (
"267 -172 LINE SMOOTH",
"318 -172 OFFCURVE",
"333 -152 OFFCURVE",
"333 -94 CURVE SMOOTH",
"333 620 LINE",
"313 620 LINE",
"313 37 LINE",
"312 39 LINE",
"310 44 LINE",
"91 620 LINE",
"70 620 LINE",
"70 0 LINE",
"90 0 LINE",
"90 564 LINE",
"91 563 LINE",
"93 557 LINE",
"313 -9 LINE",
"313 -93 LINE SMOOTH",
"313 -135 OFFCURVE",
"305 -156 OFFCURVE",
"266 -156 CURVE SMOOTH",
"201 -156 LINE",
"205 -172 LINE"
);
}
);
width = 403;
}
);
leftKerningGroup = H;
leftMetricsKey = H;
rightKerningGroup = H;
rightMetricsKey = H;
unicode = 014A;
},
{
glyphname = O;
lastChange = "2021-12-16 00:04:58 +0000";
layers = (
{
anchors = (
{
name = bottom;
position = "{192, 0}";
},
{
name = center;
position = "{192, 310}";
},
{
name = ogonek;
position = "{314, 10}";
},
{
name = top;
position = "{192, 620}";
},
{
name = topleft;
position = "{20, 620}";
},
{
name = topright;
position = "{246, 620}";
}
);
background = {
paths = (
{
closed = 1;
nodes = (
"305 -8 OFFCURVE",
"366 41 OFFCURVE",
"366 116 CURVE SMOOTH",
"366 490 LINE SMOOTH",
"367 591 OFFCURVE",
"305 626 OFFCURVE",
"192 626 CURVE SMOOTH",
"70 626 OFFCURVE",
"18 591 OFFCURVE",
"18 491 CURVE SMOOTH",
"18 116 LINE SMOOTH",
"18 41 OFFCURVE",
"70 -8 OFFCURVE",
"195 -8 CURVE SMOOTH"
);
},
{
closed = 1;
nodes = (
"167 118 OFFCURVE",
"168 134 OFFCURVE",
"168 153 CURVE SMOOTH",
"168 453 LINE SMOOTH",
"168 481 OFFCURVE",
"166 502 OFFCURVE",
"191 502 CURVE SMOOTH",
"216 502 OFFCURVE",
"216 487 OFFCURVE",
"216 452 CURVE SMOOTH",
"216 153 LINE SMOOTH",
"216 134 OFFCURVE",
"216 118 OFFCURVE",
"191 118 CURVE SMOOTH"
);
}
);
};
layerId = "D686CB0C-BBDB-4E69-8E5A-045D5C85CA47";
paths = (
{
closed = 1;
nodes = (
"317 -8 OFFCURVE",
"366 41 OFFCURVE",
"366 116 CURVE SMOOTH",
"366 504 LINE SMOOTH",
"366 579 OFFCURVE",
"317 628 OFFCURVE",
"192 628 CURVE SMOOTH",
"67 628 OFFCURVE",
"18 579 OFFCURVE",
"18 504 CURVE SMOOTH",
"18 116 LINE SMOOTH",
"18 41 OFFCURVE",
"67 -8 OFFCURVE",
"192 -8 CURVE SMOOTH"
);
},
{
closed = 1;
nodes = (
"172 118 OFFCURVE",
"168 128 OFFCURVE",
"168 158 CURVE SMOOTH",
"168 465 LINE SMOOTH",
"168 494 OFFCURVE",
"172 504 OFFCURVE",
"192 504 CURVE SMOOTH",
"212 504 OFFCURVE",
"216 494 OFFCURVE",
"216 464 CURVE SMOOTH",
"216 158 LINE SMOOTH",
"216 128 OFFCURVE",
"212 118 OFFCURVE",
"192 118 CURVE SMOOTH"
);
}
);
width = 384;
},
{
anchors = (
{
name = bottom;
position = "{189, 0}";
},
{
name = center;
position = "{189, 310}";
},
{
name = ogonek;
position = "{313, 10}";
},
{
name = top;
position = "{189, 620}";
},
{
name = topleft;
position = "{35, 620}";
},
{
name = topright;
position = "{231, 620}";
}
);
layerId = "B8E7A328-E4C9-4125-8050-BD17141FCA48";
paths = (
{
closed = 1;
nodes = (
"273 -2 OFFCURVE",
"320 29 OFFCURVE",
"320 87 CURVE SMOOTH",
"320 542 LINE SMOOTH",
"320 591 OFFCURVE",
"281 627 OFFCURVE",
"188 628 CURVE SMOOTH",
"96 629 OFFCURVE",
"58 591 OFFCURVE",
"58 543 CURVE SMOOTH",
"58 86 LINE SMOOTH",
"58 29 OFFCURVE",
"106 -2 OFFCURVE",
"188 -2 CURVE SMOOTH"
);
},
{
closed = 1;
nodes = (
"113 15 OFFCURVE",
"78 48 OFFCURVE",
"78 89 CURVE SMOOTH",
"78 540 LINE SMOOTH",
"78 574 OFFCURVE",
"104 611 OFFCURVE",
"186 611 CURVE SMOOTH",
"274 611 OFFCURVE",
"300 574 OFFCURVE",
"300 539 CURVE SMOOTH",
"300 90 LINE SMOOTH",
"300 48 OFFCURVE",
"265 15 OFFCURVE",
"188 15 CURVE SMOOTH"
);
}
);
width = 378;
}
);
leftKerningGroup = O;
note = O;
rightKerningGroup = O;
unicode = 004F;
},
{
glyphname = Oslash;
lastChange = "2021-12-15 23:40:28 +0000";
layers = (
{
anchors = (
{
name = bottom;
position = "{199, 0}";
},
{
name = top;
position = "{199, 620}";
}
);
background = {
paths = (
{
closed = 1;
nodes = (
"312 -8 OFFCURVE",
"373 41 OFFCURVE",
"373 116 CURVE SMOOTH",
"373 490 LINE SMOOTH",
"374 591 OFFCURVE",
"312 626 OFFCURVE",
"199 626 CURVE SMOOTH",
"77 626 OFFCURVE",
"25 591 OFFCURVE",
"25 491 CURVE SMOOTH",
"25 116 LINE SMOOTH",
"25 41 OFFCURVE",
"77 -8 OFFCURVE",
"202 -8 CURVE SMOOTH"
);
},
{
closed = 1;
nodes = (
"174 118 OFFCURVE",
"175 134 OFFCURVE",
"175 153 CURVE SMOOTH",
"175 453 LINE SMOOTH",
"175 481 OFFCURVE",
"173 502 OFFCURVE",
"198 502 CURVE SMOOTH",
"223 502 OFFCURVE",
"223 487 OFFCURVE",
"223 452 CURVE SMOOTH",
"223 153 LINE SMOOTH",
"223 134 OFFCURVE",
"223 118 OFFCURVE",
"198 118 CURVE SMOOTH"
);
},
{
closed = 1;
nodes = (
"116 -44 LINE",
"330 643 LINE",
"270 643 LINE",
"58 -44 LINE"
);
}
);
};
layerId = "D686CB0C-BBDB-4E69-8E5A-045D5C85CA47";
paths = (
{
closed = 1;
nodes = (
"312 -8 OFFCURVE",
"373 41 OFFCURVE",
"373 116 CURVE SMOOTH",
"373 490 LINE SMOOTH",
"374 591 OFFCURVE",
"312 626 OFFCURVE",
"199 626 CURVE SMOOTH",
"77 626 OFFCURVE",
"25 591 OFFCURVE",
"25 491 CURVE SMOOTH",
"25 116 LINE SMOOTH",
"25 41 OFFCURVE",
"77 -8 OFFCURVE",
"202 -8 CURVE SMOOTH"
);
},
{
closed = 1;
nodes = (
"174 118 OFFCURVE",
"175 134 OFFCURVE",
"175 153 CURVE SMOOTH",
"175 453 LINE SMOOTH",
"175 481 OFFCURVE",
"173 502 OFFCURVE",
"198 502 CURVE SMOOTH",
"223 502 OFFCURVE",
"223 487 OFFCURVE",
"223 452 CURVE SMOOTH",
"223 153 LINE SMOOTH",
"223 134 OFFCURVE",
"223 118 OFFCURVE",
"198 118 CURVE SMOOTH"
);
},
{
closed = 1;
nodes = (
"116 -44 LINE",
"330 643 LINE",
"270 643 LINE",
"58 -44 LINE"
);
}
);
width = 398;
},
{
anchors = (
{
name = bottom;
position = "{187, 0}";
},
{
name = top;
position = "{187, 620}";
}
);
layerId = "B8E7A328-E4C9-4125-8050-BD17141FCA48";
paths = (
{
closed = 1;
nodes = (
"268 -2 OFFCURVE",
"317 29 OFFCURVE",
"317 87 CURVE SMOOTH",
"317 541 LINE SMOOTH",
"317 592 OFFCURVE",
"278 627 OFFCURVE",
"184 628 CURVE SMOOTH",
"93 629 OFFCURVE",
"55 592 OFFCURVE",
"55 542 CURVE SMOOTH",
"55 86 LINE SMOOTH",
"55 29 OFFCURVE",
"103 -2 OFFCURVE",
"185 -2 CURVE SMOOTH"
);
},
{
closed = 1;
nodes = (
"110 15 OFFCURVE",
"75 49 OFFCURVE",
"75 89 CURVE SMOOTH",
"75 538 LINE SMOOTH",
"75 573 OFFCURVE",
"100 610 OFFCURVE",
"182 610 CURVE SMOOTH",
"272 610 OFFCURVE",
"297 573 OFFCURVE",
"297 537 CURVE SMOOTH",
"297 90 LINE SMOOTH",
"297 49 OFFCURVE",
"262 15 OFFCURVE",
"184 15 CURVE SMOOTH"
);
},
{
closed = 1;
nodes = (
"74 -44 LINE",
"303 631 LINE",
"288 631 LINE",
"62 -44 LINE"
);
}
);
width = 373;
}
);
leftKerningGroup = O;
rightKerningGroup = O;
unicode = 00D8;
},
{
color = 4;
glyphname = OE;
lastChange = "2021-12-16 00:09:44 +0000";
layers = (
{
background = {
paths = (
{
closed = 1;
nodes = (
"-416 -8 OFFCURVE",
"-358 24 OFFCURVE",
"-340 77 CURVE",
"-484 140 LINE",
"-485 127 OFFCURVE",
"-490 118 OFFCURVE",
"-509 118 CURVE SMOOTH",
"-533 118 OFFCURVE",
"-532 134 OFFCURVE",
"-532 153 CURVE SMOOTH",
"-532 453 LINE SMOOTH",
"-532 481 OFFCURVE",
"-534 502 OFFCURVE",
"-509 502 CURVE SMOOTH",
"-493 502 OFFCURVE",
"-487 496 OFFCURVE",
"-485 481 CURVE",
"-382 599 LINE",
"-412 618 OFFCURVE",
"-454 626 OFFCURVE",
"-508 626 CURVE SMOOTH",
"-630 626 OFFCURVE",
"-682 591 OFFCURVE",
"-682 491 CURVE SMOOTH",
"-682 116 LINE SMOOTH",
"-682 41 OFFCURVE",
"-630 -8 OFFCURVE",
"-505 -8 CURVE SMOOTH"
);
},
{
closed = 1;
nodes = (
"-489 0 LINE",
"-140 0 LINE",
"-140 120 LINE",
"-335 120 LINE",
"-335 273 LINE",
"-182 273 LINE",
"-164 393 LINE",
"-335 393 LINE",
"-335 500 LINE",
"-140 500 LINE",
"-140 620 LINE",
"-489 620 LINE"
);
},
{
closed = 1;
nodes = (
"305 -8 OFFCURVE",
"366 41 OFFCURVE",
"366 116 CURVE SMOOTH",
"366 490 LINE SMOOTH",
"367 591 OFFCURVE",
"305 626 OFFCURVE",
"192 626 CURVE SMOOTH",
"70 626 OFFCURVE",
"18 591 OFFCURVE",
"18 491 CURVE SMOOTH",
"18 116 LINE SMOOTH",
"18 41 OFFCURVE",
"70 -8 OFFCURVE",
"195 -8 CURVE SMOOTH"
);
},
{
closed = 1;
nodes = (
"167 118 OFFCURVE",
"168 134 OFFCURVE",
"168 153 CURVE SMOOTH",
"168 453 LINE SMOOTH",
"168 481 OFFCURVE",
"166 502 OFFCURVE",
"191 502 CURVE SMOOTH",
"216 502 OFFCURVE",
"216 487 OFFCURVE",
"216 452 CURVE SMOOTH",
"216 153 LINE SMOOTH",
"216 134 OFFCURVE",
"216 118 OFFCURVE",
"191 118 CURVE SMOOTH"
);
},
{
closed = 1;
nodes = (
"213 0 LINE",
"542 0 LINE",
"542 120 LINE",
"367 120 LINE",
"367 273 LINE",
"500 273 LINE",
"518 393 LINE",
"367 393 LINE",
"367 500 LINE",
"542 500 LINE",
"542 620 LINE",
"213 620 LINE"
);
}
);
};
layerId = "D686CB0C-BBDB-4E69-8E5A-045D5C85CA47";
paths = (
{
closed = 1;
nodes = (
"292 -8 OFFCURVE",
"346 41 OFFCURVE",
"346 116 CURVE SMOOTH",
"346 490 LINE SMOOTH",
"346 591 OFFCURVE",
"292 626 OFFCURVE",
"192 626 CURVE SMOOTH",
"70 626 OFFCURVE",
"18 591 OFFCURVE",
"18 491 CURVE SMOOTH",
"18 116 LINE SMOOTH",
"18 41 OFFCURVE",
"70 -8 OFFCURVE",
"195 -8 CURVE SMOOTH"
);
},
{
closed = 1;
nodes = (
"167 118 OFFCURVE",
"168 134 OFFCURVE",
"168 153 CURVE SMOOTH",
"168 453 LINE SMOOTH",
"168 481 OFFCURVE",
"166 502 OFFCURVE",
"191 502 CURVE SMOOTH",
"216 502 OFFCURVE",
"216 487 OFFCURVE",
"216 452 CURVE SMOOTH",
"216 153 LINE SMOOTH",
"216 134 OFFCURVE",
"216 118 OFFCURVE",
"191 118 CURVE SMOOTH"
);
},
{
closed = 1;
nodes = (
"539 0 LINE",
"539 120 LINE",
"364 120 LINE",
"364 273 LINE",
"497 273 LINE",
"515 393 LINE",
"364 393 LINE",
"364 500 LINE",
"539 500 LINE",
"539 620 LINE",
"220 620 LINE",
"220 0 LINE"
);
}
);
width = 552;
},
{
layerId = "B8E7A328-E4C9-4125-8050-BD17141FCA48";
paths = (
{
closed = 1;
nodes = (
"269 -2 OFFCURVE",
"315 29 OFFCURVE",
"315 87 CURVE SMOOTH",
"315 541 LINE SMOOTH",
"315 592 OFFCURVE",
"278 627 OFFCURVE",
"188 628 CURVE SMOOTH",
"97 629 OFFCURVE",
"58 592 OFFCURVE",
"58 542 CURVE SMOOTH",
"58 86 LINE SMOOTH",
"58 29 OFFCURVE",
"106 -2 OFFCURVE",
"188 -2 CURVE SMOOTH"
);
},
{
closed = 1;
nodes = (
"113 15 OFFCURVE",
"78 49 OFFCURVE",
"78 89 CURVE SMOOTH",
"78 538 LINE SMOOTH",
"78 573 OFFCURVE",
"104 610 OFFCURVE",
"186 610 CURVE SMOOTH",
"275 610 OFFCURVE",
"300 573 OFFCURVE",
"300 537 CURVE SMOOTH",
"300 90 LINE SMOOTH",
"300 49 OFFCURVE",
"265 15 OFFCURVE",
"188 15 CURVE SMOOTH"
);
},
{
closed = 1;
nodes = (
"550 0 LINE",
"550 16 LINE",
"320 16 LINE",
"320 346 LINE",
"531 346 LINE",
"537 362 LINE",
"320 362 LINE",
"320 603 LINE",
"550 603 LINE",
"550 620 LINE",
"300 620 LINE",
"300 0 LINE"
);
}
);
width = 585;
}
);
leftKerningGroup = O;
leftMetricsKey = O;
rightKerningGroup = E;
rightMetricsKey = E;
unicode = 0152;
},
{
glyphname = P;
lastChange = "2021-12-16 00:05:12 +0000";
layers = (
{
background = {
paths = (
{
closed = 1;
nodes = (
"20 0 LINE",
"174 0 LINE",
"174 230 LINE",
"259 230 LINE SMOOTH",
"372 230 OFFCURVE",
"378 296 OFFCURVE",
"378 368 CURVE SMOOTH",
"378 524 LINE SMOOTH",
"378 588 OFFCURVE",
"366 620 OFFCURVE",
"281 620 CURVE SMOOTH",
"20 620 LINE"
);
},
{
closed = 1;
nodes = (
"174 350 LINE",
"174 500 LINE",
"203 500 LINE SMOOTH",
"222 500 OFFCURVE",
"224 498 OFFCURVE",
"224 449 CURVE SMOOTH",
"224 388 LINE SMOOTH",
"224 360 OFFCURVE",
"222 350 OFFCURVE",
"203 350 CURVE SMOOTH"
);
}
);
};
layerId = "D686CB0C-BBDB-4E69-8E5A-045D5C85CA47";
paths = (
{
closed = 1;
nodes = (
"20 0 LINE",
"174 0 LINE",
"174 230 LINE",
"259 230 LINE SMOOTH",
"372 230 OFFCURVE",
"378 296 OFFCURVE",
"378 368 CURVE SMOOTH",
"378 524 LINE SMOOTH",
"378 588 OFFCURVE",
"366 620 OFFCURVE",
"281 620 CURVE SMOOTH",
"20 620 LINE"
);
},
{
closed = 1;
nodes = (
"174 350 LINE",
"174 500 LINE",
"203 500 LINE SMOOTH",
"222 500 OFFCURVE",
"224 498 OFFCURVE",
"224 449 CURVE SMOOTH",
"224 388 LINE SMOOTH",
"224 360 OFFCURVE",
"222 350 OFFCURVE",
"203 350 CURVE SMOOTH"
);
}
);
width = 390;
},
{
layerId = "B8E7A328-E4C9-4125-8050-BD17141FCA48";
paths = (
{
closed = 1;
nodes = (
"70 0 LINE",
"90 0 LINE",
"90 230 LINE",
"213 230 LINE SMOOTH",
"326 230 OFFCURVE",
"332 296 OFFCURVE",
"332 368 CURVE SMOOTH",
"332 524 LINE SMOOTH",
"332 588 OFFCURVE",
"320 620 OFFCURVE",
"235 620 CURVE SMOOTH",
"70 620 LINE"
);
},
{
closed = 1;
nodes = (
"90 247 LINE",
"90 603 LINE",
"230 603 LINE SMOOTH",
"293 603 OFFCURVE",
"312 580 OFFCURVE",
"312 521 CURVE SMOOTH",
"312 350 LINE SMOOTH",
"312 276 OFFCURVE",
"277 247 OFFCURVE",
"214 247 CURVE SMOOTH"
);
}
);
width = 367;
}
);
leftKerningGroup = H;
leftMetricsKey = H;
note = P;
rightKerningGroup = P;
unicode = 0050;
},
{
glyphname = Thorn;
lastChange = "2021-12-15 23:40:28 +0000";
layers = (
{
background = {
paths = (
{
closed = 1;
nodes = (
"15 0 LINE",
"169 0 LINE",
"169 190 LINE",
"254 190 LINE SMOOTH",
"367 190 OFFCURVE",
"373 256 OFFCURVE",
"373 328 CURVE SMOOTH",
"373 484 LINE SMOOTH",
"373 548 OFFCURVE",
"361 580 OFFCURVE",
"276 580 CURVE SMOOTH",
"168 580 LINE",
"168 670 LINE",
"15 670 LINE"
);
},
{
closed = 1;
nodes = (
"169 310 LINE",
"169 460 LINE",
"198 460 LINE SMOOTH",
"217 460 OFFCURVE",
"219 458 OFFCURVE",
"219 409 CURVE SMOOTH",
"219 348 LINE SMOOTH",
"219 320 OFFCURVE",
"217 310 OFFCURVE",
"198 310 CURVE SMOOTH"
);
}
);
};
layerId = "D686CB0C-BBDB-4E69-8E5A-045D5C85CA47";
paths = (
{
closed = 1;
nodes = (
"15 0 LINE",
"169 0 LINE",
"169 190 LINE",
"254 190 LINE SMOOTH",
"367 190 OFFCURVE",
"373 256 OFFCURVE",
"373 328 CURVE SMOOTH",
"373 484 LINE SMOOTH",
"373 548 OFFCURVE",
"361 580 OFFCURVE",
"276 580 CURVE SMOOTH",
"168 580 LINE",
"168 670 LINE",
"15 670 LINE"
);
},
{
closed = 1;
nodes = (
"169 310 LINE",
"169 460 LINE",
"198 460 LINE SMOOTH",
"217 460 OFFCURVE",
"219 458 OFFCURVE",
"219 409 CURVE SMOOTH",
"219 348 LINE SMOOTH",
"219 320 OFFCURVE",
"217 310 OFFCURVE",
"198 310 CURVE SMOOTH"
);
}
);
width = 385;
},
{
layerId = "B8E7A328-E4C9-4125-8050-BD17141FCA48";
paths = (
{
closed = 1;
nodes = (
"38 0 LINE",
"58 0 LINE",
"58 191 LINE",
"181 191 LINE SMOOTH",
"294 191 OFFCURVE",
"300 257 OFFCURVE",
"300 329 CURVE SMOOTH",
"300 485 LINE SMOOTH",
"300 549 OFFCURVE",
"288 581 OFFCURVE",
"203 581 CURVE SMOOTH",
"58 581 LINE",
"58 682 LINE",
"38 682 LINE"
);
},
{
closed = 1;
nodes = (
"58 208 LINE",
"58 564 LINE",
"198 564 LINE SMOOTH",
"263 564 OFFCURVE",
"280 541 OFFCURVE",
"280 482 CURVE SMOOTH",
"280 311 LINE SMOOTH",
"280 237 OFFCURVE",
"246 208 OFFCURVE",
"183 208 CURVE SMOOTH"
);
}
);
width = 382;
}
);
leftKerningGroup = H;
rightKerningGroup = P;
unicode = 00DE;
},
{
color = 4;
glyphname = Q;
lastChange = "2021-12-16 00:08:28 +0000";
layers = (
{
background = {
paths = (
{
closed = 1;
nodes = (
"305 -8 OFFCURVE",
"368 41 OFFCURVE",
"368 116 CURVE SMOOTH",
"368 490 LINE SMOOTH",
"369 591 OFFCURVE",
"305 626 OFFCURVE",
"192 626 CURVE SMOOTH",
"70 626 OFFCURVE",
"18 591 OFFCURVE",
"18 491 CURVE SMOOTH",
"18 116 LINE SMOOTH",
"18 41 OFFCURVE",
"70 -8 OFFCURVE",
"195 -8 CURVE SMOOTH"
);
},
{
closed = 1;
nodes = (
"174 118 OFFCURVE",
"173 125 OFFCURVE",
"173 141 CURVE SMOOTH",
"173 460 LINE SMOOTH",
"173 488 OFFCURVE",
"171 502 OFFCURVE",
"192 502 CURVE SMOOTH",
"214 502 OFFCURVE",
"214 494 OFFCURVE",
"214 459 CURVE SMOOTH",
"214 146 LINE SMOOTH",
"214 127 OFFCURVE",
"214 118 OFFCURVE",
"192 118 CURVE SMOOTH"
);
},
{
closed = 1;
nodes = (
"431 -44 LINE",
"283 104 LINE",
"184 2 LINE",
"322 -153 LINE"
);
}
);
};
layerId = "D686CB0C-BBDB-4E69-8E5A-045D5C85CA47";
paths = (
{
closed = 1;
nodes = (
"305 -8 OFFCURVE",
"368 41 OFFCURVE",
"368 116 CURVE SMOOTH",
"368 490 LINE SMOOTH",
"369 591 OFFCURVE",
"305 626 OFFCURVE",
"192 626 CURVE SMOOTH",
"70 626 OFFCURVE",
"18 591 OFFCURVE",
"18 491 CURVE SMOOTH",
"18 116 LINE SMOOTH",
"18 41 OFFCURVE",
"70 -8 OFFCURVE",
"195 -8 CURVE SMOOTH"
);
},
{
closed = 1;
nodes = (
"174 118 OFFCURVE",
"173 125 OFFCURVE",
"173 141 CURVE SMOOTH",
"173 460 LINE SMOOTH",
"173 488 OFFCURVE",
"171 502 OFFCURVE",
"192 502 CURVE SMOOTH",
"214 502 OFFCURVE",
"214 494 OFFCURVE",
"214 459 CURVE SMOOTH",
"214 146 LINE SMOOTH",
"214 127 OFFCURVE",
"214 118 OFFCURVE",
"192 118 CURVE SMOOTH"
);
},
{
closed = 1;
nodes = (
"431 -44 LINE",
"283 104 LINE",
"184 2 LINE",
"322 -153 LINE"
);
}
);
width = 389;
},
{
layerId = "B8E7A328-E4C9-4125-8050-BD17141FCA48";
paths = (
{
closed = 1;
nodes = (
"271 -6 OFFCURVE",
"320 25 OFFCURVE",
"320 93 CURVE SMOOTH",
"320 523 LINE SMOOTH",
"320 592 OFFCURVE",
"281 627 OFFCURVE",
"188 628 CURVE SMOOTH",
"97 629 OFFCURVE",
"58 592 OFFCURVE",
"58 524 CURVE SMOOTH",
"58 92 LINE SMOOTH",
"58 25 OFFCURVE",
"106 -6 OFFCURVE",
"188 -6 CURVE SMOOTH"
);
},
{
closed = 1;
nodes = (
"113 11 OFFCURVE",
"78 44 OFFCURVE",
"78 93 CURVE SMOOTH",
"78 520 LINE SMOOTH",
"78 573 OFFCURVE",
"104 610 OFFCURVE",
"188 610 CURVE SMOOTH",
"275 610 OFFCURVE",
"300 574 OFFCURVE",
"300 519 CURVE SMOOTH",
"300 95 LINE SMOOTH",
"300 45 OFFCURVE",
"265 11 OFFCURVE",
"188 11 CURVE SMOOTH"
);
},
{
closed = 1;
nodes = (
"345 -92 LINE",
"240 14 LINE",
"226 0 LINE",
"330 -105 LINE"
);
}
);
width = 372;
}
);
leftKerningGroup = O;
leftMetricsKey = O;
note = Q;
rightKerningGroup = Q;
unicode = 0051;
},
{
glyphname = R;
lastChange = "2021-12-16 00:08:33 +0000";
layers = (
{
anchors = (
{
name = bottom;
position = "{174, 0}";
},
{
name = top;
position = "{188, 620}";
}
);
background = {
paths = (
{
closed = 1;
nodes = (
"20 0 LINE",
"174 0 LINE",
"174 243 LINE",
"259 243 LINE SMOOTH",
"372 243 OFFCURVE",
"378 309 OFFCURVE",
"378 381 CURVE SMOOTH",
"378 524 LINE SMOOTH",
"378 588 OFFCURVE",
"366 620 OFFCURVE",
"281 620 CURVE SMOOTH",
"20 620 LINE"
);
},
{
closed = 1;
nodes = (
"417 31 LINE",
"318 239 LINE",
"312 243 LINE",
"268 254 LINE",
"165 252 LINE",
"274 -25 LINE"
);
},
{
closed = 1;
nodes = (
"174 363 LINE",
"174 500 LINE",
"203 500 LINE SMOOTH",
"222 500 OFFCURVE",
"224 498 OFFCURVE",
"224 449 CURVE SMOOTH",
"224 401 LINE SMOOTH",
"224 373 OFFCURVE",
"222 363 OFFCURVE",
"203 363 CURVE SMOOTH"
);
}
);
};
layerId = "D686CB0C-BBDB-4E69-8E5A-045D5C85CA47";
paths = (
{
closed = 1;
nodes = (
"20 0 LINE",
"174 0 LINE",
"174 243 LINE",
"259 243 LINE SMOOTH",
"372 243 OFFCURVE",
"378 309 OFFCURVE",
"378 381 CURVE SMOOTH",
"378 524 LINE SMOOTH",
"378 588 OFFCURVE",
"366 620 OFFCURVE",
"281 620 CURVE SMOOTH",
"20 620 LINE"
);
},
{
closed = 1;
nodes = (
"417 31 LINE",
"318 239 LINE",
"312 243 LINE",
"268 254 LINE",
"165 252 LINE",
"274 -25 LINE"
);
},
{
closed = 1;
nodes = (
"174 363 LINE",
"174 500 LINE",
"203 500 LINE SMOOTH",
"222 500 OFFCURVE",
"224 498 OFFCURVE",
"224 449 CURVE SMOOTH",
"224 401 LINE SMOOTH",
"224 373 OFFCURVE",
"222 363 OFFCURVE",
"203 363 CURVE SMOOTH"
);
}
);
width = 407;
},
{
anchors = (
{
name = bottom;
position = "{193, 0}";
},
{
name = top;
position = "{185, 620}";
}
);
layerId = "B8E7A328-E4C9-4125-8050-BD17141FCA48";
paths = (
{
closed = 1;
nodes = (
"70 0 LINE",
"90 0 LINE",
"90 283 LINE",
"213 283 LINE SMOOTH",
"326 283 OFFCURVE",
"332 349 OFFCURVE",
"332 421 CURVE SMOOTH",
"332 524 LINE SMOOTH",
"332 588 OFFCURVE",
"320 620 OFFCURVE",
"235 620 CURVE SMOOTH",
"70 620 LINE"
);
},
{
closed = 1;
nodes = (
"350 -3 LINE",
"238 279 LINE",
"235 287 LINE",
"230 289 LINE",
"215 285 LINE",
"331 -10 LINE"
);
},
{
closed = 1;
nodes = (
"90 300 LINE",
"90 603 LINE",
"230 603 LINE SMOOTH",
"293 603 OFFCURVE",
"312 580 OFFCURVE",
"312 521 CURVE SMOOTH",
"312 403 LINE SMOOTH",
"312 328 OFFCURVE",
"277 300 OFFCURVE",
"214 300 CURVE SMOOTH"
);
}
);
width = 385;
}
);
leftKerningGroup = H;
leftMetricsKey = H;
note = R;
rightKerningGroup = R;
unicode = 0052;
},
{
glyphname = S;
lastChange = "2021-12-16 00:08:38 +0000";
layers = (
{
anchors = (
{
name = bottom;
position = "{188, 0}";
},
{
name = top;
position = "{188, 620}";
}
);
background = {
paths = (
{
closed = 1;
nodes = (
"281 -10 OFFCURVE",
"362 7 OFFCURVE",
"362 92 CURVE SMOOTH",
"362 234 LINE SMOOTH",
"362 297 OFFCURVE",
"334 318 OFFCURVE",
"272 340 CURVE SMOOTH",
"198 366 LINE SMOOTH",
"169 376 OFFCURVE",
"168 409 OFFCURVE",
"168 430 CURVE SMOOTH",
"168 467 LINE SMOOTH",
"168 504 OFFCURVE",
"176 509 OFFCURVE",
"188 509 CURVE SMOOTH",
"200 509 OFFCURVE",
"208 507 OFFCURVE",
"208 469 CURVE SMOOTH",
"208 379 LINE",
"362 399 LINE",
"362 548 LINE SMOOTH",
"362 610 OFFCURVE",
"279 628 OFFCURVE",
"194 628 CURVE SMOOTH",
"101 628 OFFCURVE",
"14 616 OFFCURVE",
"14 529 CURVE SMOOTH",
"14 384 LINE SMOOTH",
"14 317 OFFCURVE",
"40 294 OFFCURVE",
"97 275 CURVE SMOOTH",
"160 254 LINE SMOOTH",
"201 240 OFFCURVE",
"208 211 OFFCURVE",
"208 184 CURVE SMOOTH",
"208 136 LINE SMOOTH",
"208 123 OFFCURVE",
"202 112 OFFCURVE",
"187 112 CURVE SMOOTH",
"170 112 OFFCURVE",
"168 123 OFFCURVE",
"168 136 CURVE SMOOTH",
"168 234 LINE",
"14 219 LINE",
"14 70 LINE SMOOTH",
"14 4 OFFCURVE",
"103 -10 OFFCURVE",
"196 -10 CURVE SMOOTH"
);
}
);
};
layerId = "D686CB0C-BBDB-4E69-8E5A-045D5C85CA47";
paths = (
{
closed = 1;
nodes = (
"281 -10 OFFCURVE",
"362 7 OFFCURVE",
"362 92 CURVE SMOOTH",
"362 234 LINE SMOOTH",
"362 297 OFFCURVE",
"334 318 OFFCURVE",
"272 340 CURVE SMOOTH",
"198 366 LINE SMOOTH",
"169 376 OFFCURVE",
"168 409 OFFCURVE",
"168 430 CURVE SMOOTH",
"168 467 LINE SMOOTH",
"168 504 OFFCURVE",
"176 509 OFFCURVE",
"188 509 CURVE SMOOTH",
"200 509 OFFCURVE",
"208 507 OFFCURVE",
"208 469 CURVE SMOOTH",
"208 379 LINE",
"362 399 LINE",
"362 548 LINE SMOOTH",
"362 610 OFFCURVE",
"279 628 OFFCURVE",
"194 628 CURVE SMOOTH",
"101 628 OFFCURVE",
"14 616 OFFCURVE",
"14 529 CURVE SMOOTH",
"14 384 LINE SMOOTH",
"14 317 OFFCURVE",
"40 294 OFFCURVE",
"97 275 CURVE SMOOTH",
"160 254 LINE SMOOTH",
"201 240 OFFCURVE",
"208 211 OFFCURVE",
"208 184 CURVE SMOOTH",
"208 136 LINE SMOOTH",
"208 123 OFFCURVE",
"202 112 OFFCURVE",
"187 112 CURVE SMOOTH",
"170 112 OFFCURVE",
"168 123 OFFCURVE",
"168 136 CURVE SMOOTH",
"168 234 LINE",
"14 219 LINE",
"14 70 LINE SMOOTH",
"14 4 OFFCURVE",
"103 -10 OFFCURVE",
"196 -10 CURVE SMOOTH"
);
}
);
width = 376;
},
{
anchors = (
{
name = bottom;
position = "{183, 0}";
},
{
name = top;
position = "{183, 620}";
}
);
layerId = "B8E7A328-E4C9-4125-8050-BD17141FCA48";
paths = (
{
closed = 1;
nodes = (
"273 -1 OFFCURVE",
"313 12 OFFCURVE",
"313 100 CURVE SMOOTH",
"313 211 LINE SMOOTH",
"313 271 OFFCURVE",
"290 302 OFFCURVE",
"229 318 CURVE SMOOTH",
"146 340 LINE SMOOTH",
"106 351 OFFCURVE",
"71 372 OFFCURVE",
"71 421 CURVE SMOOTH",
"71 519 LINE SMOOTH",
"71 582 OFFCURVE",
"99 606 OFFCURVE",
"187 606 CURVE SMOOTH",
"273 606 OFFCURVE",
"293 583 OFFCURVE",
"293 537 CURVE SMOOTH",
"293 413 LINE",
"313 419 LINE",
"313 542 LINE SMOOTH",
"313 606 OFFCURVE",
"271 621 OFFCURVE",
"188 622 CURVE SMOOTH",
"102 621 OFFCURVE",
"51 608 OFFCURVE",
"51 523 CURVE SMOOTH",
"51 423 LINE SMOOTH",
"51 366 OFFCURVE",
"75 342 OFFCURVE",
"135 325 CURVE SMOOTH",
"217 303 LINE SMOOTH",
"264 290 OFFCURVE",
"293 263 OFFCURVE",
"293 207 CURVE SMOOTH",
"293 103 LINE SMOOTH",
"293 39 OFFCURVE",
"275 15 OFFCURVE",
"187 15 CURVE SMOOTH",
"100 15 OFFCURVE",
"71 38 OFFCURVE",
"71 82 CURVE SMOOTH",
"71 206 LINE",
"51 201 LINE",
"51 78 LINE SMOOTH",
"51 14 OFFCURVE",
"104 -1 OFFCURVE",
"188 -2 CURVE SMOOTH"
);
}
);
width = 366;
}
);
leftKerningGroup = S;
note = S;
rightKerningGroup = S;
unicode = 0053;
},
{
glyphname = Germandbls;
lastChange = "2021-12-16 00:05:12 +0000";
layers = (
{
background = {
paths = (
{
closed = 1;
nodes = (
"460 -6 OFFCURVE",
"496 33 OFFCURVE",
"496 135 CURVE SMOOTH",
"496 197 OFFCURVE",
"484 235 OFFCURVE",
"435 259 CURVE SMOOTH",
"411 271 OFFCURVE",
"363 300 OFFCURVE",
"343 312 CURVE SMOOTH",
"332 319 OFFCURVE",
"326 328 OFFCURVE",
"326 347 CURVE SMOOTH",
"326 361 OFFCURVE",
"337 375 OFFCURVE",
"352 393 CURVE SMOOTH",
"411 464 LINE SMOOTH",
"425 481 OFFCURVE",
"433 508 OFFCURVE",
"433 542 CURVE SMOOTH",
"433 593 OFFCURVE",
"381 627 OFFCURVE",
"300 627 CURVE SMOOTH",
"132 627 LINE SMOOTH",
"46 627 OFFCURVE",
"20 608 OFFCURVE",
"20 529 CURVE SMOOTH",
"21 0 LINE",
"171 0 LINE",
"171 500 LINE SMOOTH",
"171 542 OFFCURVE",
"175 548 OFFCURVE",
"206 548 CURVE SMOOTH",
"246 548 LINE SMOOTH",
"271 548 OFFCURVE",
"289 541 OFFCURVE",
"289 527 CURVE SMOOTH",
"289 519 OFFCURVE",
"284 509 OFFCURVE",
"272 496 CURVE SMOOTH",
"238 460 LINE SMOOTH",
"203 422 OFFCURVE",
"194 398 OFFCURVE",
"194 347 CURVE SMOOTH",
"194 280 OFFCURVE",
"212 257 OFFCURVE",
"270 217 CURVE SMOOTH",
"293 201 OFFCURVE",
"317 188 OFFCURVE",
"341 174 CURVE SMOOTH",
"363 162 OFFCURVE",
"359 146 OFFCURVE",
"359 114 CURVE SMOOTH",
"359 101 OFFCURVE",
"355 93 OFFCURVE",
"344 93 CURVE SMOOTH",
"330 93 OFFCURVE",
"328 101 OFFCURVE",
"328 145 CURVE",
"194 145 LINE",
"194 29 OFFCURVE",
"236 -6 OFFCURVE",
"344 -6 CURVE SMOOTH"
);
}
);
};
layerId = "D686CB0C-BBDB-4E69-8E5A-045D5C85CA47";
paths = (
{
closed = 1;
nodes = (
"460 -6 OFFCURVE",
"496 33 OFFCURVE",
"496 135 CURVE SMOOTH",
"496 197 OFFCURVE",
"484 235 OFFCURVE",
"435 259 CURVE SMOOTH",
"411 271 OFFCURVE",
"363 300 OFFCURVE",
"343 312 CURVE SMOOTH",
"332 319 OFFCURVE",
"326 328 OFFCURVE",
"326 347 CURVE SMOOTH",
"326 361 OFFCURVE",
"337 375 OFFCURVE",
"352 393 CURVE SMOOTH",
"411 464 LINE SMOOTH",
"425 481 OFFCURVE",
"433 508 OFFCURVE",
"433 542 CURVE SMOOTH",
"433 593 OFFCURVE",
"381 627 OFFCURVE",
"300 627 CURVE SMOOTH",
"132 627 LINE SMOOTH",
"46 627 OFFCURVE",
"20 608 OFFCURVE",
"20 529 CURVE SMOOTH",
"21 0 LINE",
"171 0 LINE",
"171 500 LINE SMOOTH",
"171 542 OFFCURVE",
"175 548 OFFCURVE",
"206 548 CURVE SMOOTH",
"246 548 LINE SMOOTH",
"271 548 OFFCURVE",
"289 541 OFFCURVE",
"289 527 CURVE SMOOTH",
"289 519 OFFCURVE",
"284 509 OFFCURVE",
"272 496 CURVE SMOOTH",
"238 460 LINE SMOOTH",
"203 422 OFFCURVE",
"194 398 OFFCURVE",
"194 347 CURVE SMOOTH",
"194 280 OFFCURVE",
"212 257 OFFCURVE",
"270 217 CURVE SMOOTH",
"293 201 OFFCURVE",
"317 188 OFFCURVE",
"341 174 CURVE SMOOTH",
"363 162 OFFCURVE",
"359 146 OFFCURVE",
"359 114 CURVE SMOOTH",
"359 101 OFFCURVE",
"355 93 OFFCURVE",
"344 93 CURVE SMOOTH",
"330 93 OFFCURVE",
"328 101 OFFCURVE",
"328 145 CURVE",
"194 137 LINE",
"194 27 OFFCURVE",
"236 -6 OFFCURVE",
"344 -6 CURVE SMOOTH"
);
}
);
width = 521;
},
{
layerId = "B8E7A328-E4C9-4125-8050-BD17141FCA48";
paths = (
{
closed = 1;
nodes = (
"347 -6 OFFCURVE",
"383 27 OFFCURVE",
"383 113 CURVE SMOOTH",
"383 177 OFFCURVE",
"375 199 OFFCURVE",
"311 243 CURVE SMOOTH",
"295 253 OFFCURVE",
"278 263 OFFCURVE",
"235 286 CURVE SMOOTH",
"198 306 OFFCURVE",
"183 328 OFFCURVE",
"183 356 CURVE SMOOTH",
"183 383 OFFCURVE",
"197 402 OFFCURVE",
"220 425 CURVE SMOOTH",
"273 471 LINE SMOOTH",
"300 496 OFFCURVE",
"311 517 OFFCURVE",
"311 556 CURVE SMOOTH",
"311 604 OFFCURVE",
"278 620 OFFCURVE",
"214 620 CURVE SMOOTH",
"167 620 LINE SMOOTH",
"88 620 OFFCURVE",
"70 601 OFFCURVE",
"70 541 CURVE SMOOTH",
"70 0 LINE",
"90 0 LINE",
"90 539 LINE SMOOTH",
"90 592 OFFCURVE",
"104 606 OFFCURVE",
"174 606 CURVE SMOOTH",
"208 606 LINE SMOOTH",
"257 606 OFFCURVE",
"291 595 OFFCURVE",
"291 553 CURVE SMOOTH",
"291 522 OFFCURVE",
"279 502 OFFCURVE",
"255 480 CURVE SMOOTH",
"207 439 LINE SMOOTH",
"176 411 OFFCURVE",
"163 388 OFFCURVE",
"163 356 CURVE SMOOTH",
"163 313 OFFCURVE",
"186 292 OFFCURVE",
"226 271 CURVE SMOOTH",
"250 257 OFFCURVE",
"284 239 OFFCURVE",
"301 228 CURVE SMOOTH",
"358 185 OFFCURVE",
"364 166 OFFCURVE",
"364 106 CURVE SMOOTH",
"364 26 OFFCURVE",
"320 10 OFFCURVE",
"250 10 CURVE SMOOTH",
"162 10 OFFCURVE",
"143 59 OFFCURVE",
"143 109 CURVE",
"124 105 LINE",
"124 34 OFFCURVE",
"160 -6 OFFCURVE",
"250 -6 CURVE SMOOTH"
);
}
);
width = 441;
}
);
leftMetricsKey = H;
unicode = 1E9E;
},
{
glyphname = Schwa;
lastChange = "2021-12-15 23:40:28 +0000";
layers = (
{
background = {
paths = (
{
closed = 1;
nodes = (
"338 -6 OFFCURVE",
"368 62 OFFCURVE",
"368 159 CURVE SMOOTH",
"368 464 LINE SMOOTH",
"368 560 OFFCURVE",
"338 629 OFFCURVE",
"193 629 CURVE SMOOTH",
"67 629 OFFCURVE",
"20 565 OFFCURVE",
"20 466 CURVE SMOOTH",
"20 386 LINE",
"170 399 LINE",
"170 459 LINE SMOOTH",
"170 475 OFFCURVE",
"170 503 OFFCURVE",
"194 503 CURVE SMOOTH",
"218 503 OFFCURVE",
"218 475 OFFCURVE",
"218 459 CURVE SMOOTH",
"218 351 LINE",
"20 351 LINE",
"20 156 LINE SMOOTH",
"20 57 OFFCURVE",
"67 -6 OFFCURVE",
"193 -6 CURVE SMOOTH"
);
},
{
closed = 1;
nodes = (
"170 117 OFFCURVE",
"170 150 OFFCURVE",
"170 165 CURVE SMOOTH",
"170 248 LINE",
"218 248 LINE",
"218 165 LINE SMOOTH",
"218 150 OFFCURVE",
"218 117 OFFCURVE",
"194 117 CURVE SMOOTH"
);
}
);
};
layerId = "D686CB0C-BBDB-4E69-8E5A-045D5C85CA47";
paths = (
{
closed = 1;
nodes = (
"338 -6 OFFCURVE",
"368 62 OFFCURVE",
"368 159 CURVE SMOOTH",
"368 464 LINE SMOOTH",
"368 560 OFFCURVE",
"338 629 OFFCURVE",
"193 629 CURVE SMOOTH",
"67 629 OFFCURVE",
"20 565 OFFCURVE",
"20 466 CURVE SMOOTH",
"20 386 LINE",
"170 399 LINE",
"170 459 LINE SMOOTH",
"170 475 OFFCURVE",
"170 503 OFFCURVE",
"194 503 CURVE SMOOTH",
"218 503 OFFCURVE",
"218 475 OFFCURVE",
"218 459 CURVE SMOOTH",
"218 351 LINE",
"20 351 LINE",
"20 156 LINE SMOOTH",
"20 57 OFFCURVE",
"67 -6 OFFCURVE",
"193 -6 CURVE SMOOTH"
);
},
{
closed = 1;
nodes = (
"170 117 OFFCURVE",
"170 150 OFFCURVE",
"170 165 CURVE SMOOTH",
"170 248 LINE",
"218 248 LINE",
"218 165 LINE SMOOTH",
"218 150 OFFCURVE",
"218 117 OFFCURVE",
"194 117 CURVE SMOOTH"
);
}
);
width = 388;
},
{
layerId = "B8E7A328-E4C9-4125-8050-BD17141FCA48";
paths = (
{
closed = 1;
nodes = (
"281 -3 OFFCURVE",
"300 72 OFFCURVE",
"300 131 CURVE SMOOTH",
"300 492 LINE SMOOTH",
"300 550 OFFCURVE",
"281 623 OFFCURVE",
"173 623 CURVE SMOOTH",
"62 623 OFFCURVE",
"38 551 OFFCURVE",
"38 470 CURVE SMOOTH",
"38 392 LINE",
"58 397 LINE",
"58 477 LINE SMOOTH",
"58 572 OFFCURVE",
"107 606 OFFCURVE",
"173 606 CURVE SMOOTH",
"234 606 OFFCURVE",
"280 573 OFFCURVE",
"280 489 CURVE SMOOTH",
"280 308 LINE",
"38 308 LINE",
"38 131 LINE SMOOTH",
"38 71 OFFCURVE",
"62 -3 OFFCURVE",
"171 -3 CURVE SMOOTH"
);
},
{
closed = 1;
nodes = (
"103 14 OFFCURVE",
"58 51 OFFCURVE",
"58 133 CURVE SMOOTH",
"58 293 LINE",
"280 293 LINE",
"280 133 LINE SMOOTH",
"280 50 OFFCURVE",
"234 14 OFFCURVE",
"171 14 CURVE SMOOTH"
);
}
);
width = 339;
}
);
rightKerningGroup = o;
unicode = 018F;
},
{
glyphname = T;
lastChange = "2021-12-16 00:08:47 +0000";
layers = (
{
anchors = (
{
name = bottom;
position = "{188, 0}";
},
{
name = center;
position = "{188, 386}";
},
{
name = top;
position = "{188, 620}";
}
);
background = {
paths = (
{
closed = 1;
nodes = (
"111 0 LINE",
"265 0 LINE",
"265 500 LINE",
"368 500 LINE",
"368 620 LINE",
"8 620 LINE",
"8 500 LINE",
"111 500 LINE"
);
}
);
};
layerId = "D686CB0C-BBDB-4E69-8E5A-045D5C85CA47";
paths = (
{
closed = 1;
nodes = (
"111 0 LINE",
"265 0 LINE",
"265 500 LINE",
"368 500 LINE",
"368 620 LINE",
"8 620 LINE",
"8 500 LINE",
"111 500 LINE"
);
}
);
width = 376;
},
{
anchors = (
{
name = bottom;
position = "{145, 0}";
},
{
name = center;
position = "{145, 435}";
},
{
name = top;
position = "{145, 620}";
}
);
layerId = "B8E7A328-E4C9-4125-8050-BD17141FCA48";
paths = (
{
closed = 1;
nodes = (
"134 0 LINE",
"155 0 LINE",
"155 603 LINE",
"269 603 LINE",
"269 620 LINE",
"22 620 LINE",
"22 603 LINE",
"134 603 LINE"
);
}
);
width = 291;
}
);
leftKerningGroup = T;
note = T;
rightKerningGroup = T;
unicode = 0054;
},
{
glyphname = U;
lastChange = "2021-12-16 00:05:12 +0000";
layers = (
{
anchors = (
{
name = bottom;
position = "{190, 0}";
},
{
name = ogonek;
position = "{304, 10}";
},
{
name = top;
position = "{190, 620}";
},
{
name = topright;
position = "{265, 620}";
}
);
background = {
paths = (
{
closed = 1;
nodes = (
"288 -5 OFFCURVE",
"364 19 OFFCURVE",
"364 89 CURVE SMOOTH",
"364 620 LINE",
"210 620 LINE",
"210 137 LINE SMOOTH",
"210 126 OFFCURVE",
"202 115 OFFCURVE",
"189 115 CURVE SMOOTH",
"176 115 OFFCURVE",
"170 125 OFFCURVE",
"170 137 CURVE SMOOTH",
"170 620 LINE",
"16 620 LINE",
"16 89 LINE SMOOTH",
"16 19 OFFCURVE",
"88 -5 OFFCURVE",
"189 -5 CURVE SMOOTH"
);
}
);
};
layerId = "D686CB0C-BBDB-4E69-8E5A-045D5C85CA47";
paths = (
{
closed = 1;
nodes = (
"288 -5 OFFCURVE",
"364 19 OFFCURVE",
"364 89 CURVE SMOOTH",
"364 620 LINE",
"210 620 LINE",
"210 137 LINE SMOOTH",
"210 126 OFFCURVE",
"202 115 OFFCURVE",
"189 115 CURVE SMOOTH",
"176 115 OFFCURVE",
"170 125 OFFCURVE",
"170 137 CURVE SMOOTH",
"170 620 LINE",
"16 620 LINE",
"16 89 LINE SMOOTH",
"16 19 OFFCURVE",
"88 -5 OFFCURVE",
"189 -5 CURVE SMOOTH"
);
}
);
width = 380;
},
{
anchors = (
{
name = bottom;
position = "{196, 0}";
},
{
name = ogonek;
position = "{297, 4}";
},
{
name = top;
position = "{196, 620}";
},
{
name = topright;
position = "{292, 620}";
}
);
layerId = "B8E7A328-E4C9-4125-8050-BD17141FCA48";
paths = (
{
closed = 1;
nodes = (
"272 -5 OFFCURVE",
"326 19 OFFCURVE",
"326 89 CURVE SMOOTH",
"326 620 LINE",
"306 620 LINE",
"306 97 LINE SMOOTH",
"306 53 OFFCURVE",
"291 12 OFFCURVE",
"196 12 CURVE SMOOTH",
"106 12 OFFCURVE",
"86 52 OFFCURVE",
"86 97 CURVE SMOOTH",
"86 620 LINE",
"66 620 LINE",
"66 89 LINE SMOOTH",
"66 19 OFFCURVE",
"126 -5 OFFCURVE",
"196 -5 CURVE SMOOTH"
);
}
);
width = 392;
}
);
leftKerningGroup = U;
leftMetricsKey = "=H-4";
note = U;
rightKerningGroup = U;
rightMetricsKey = "=H-4";
unicode = 0055;
},
{
color = 4;
glyphname = V;
lastChange = "2021-12-16 00:07:37 +0000";
layers = (
{
background = {
paths = (
{
closed = 1;
nodes = (
"271 0 LINE",
"398 620 LINE",
"238 620 LINE",
"196 232 LINE",
"195 206 LINE",
"194 206 LINE",
"193 232 LINE",
"144 620 LINE",
"-10 620 LINE",
"118 0 LINE"
);
}
);
};
layerId = "D686CB0C-BBDB-4E69-8E5A-045D5C85CA47";
paths = (
{
closed = 1;
nodes = (
"271 0 LINE",
"398 620 LINE",
"238 620 LINE",
"196 232 LINE",
"195 206 LINE",
"194 206 LINE",
"193 232 LINE",
"144 620 LINE",
"-10 620 LINE",
"118 0 LINE"
);
}
);
width = 388;
},
{
layerId = "B8E7A328-E4C9-4125-8050-BD17141FCA48";
paths = (
{
closed = 1;
nodes = (
"188 0 LINE",
"320 620 LINE",
"299 620 LINE",
"176 34 LINE",
"176 24 LINE",
"175 24 LINE",
"174 34 LINE",
"50 620 LINE",
"30 620 LINE",
"162 0 LINE"
);
}
);
width = 350;
}
);
leftKerningGroup = V;
note = V;
rightKerningGroup = V;
unicode = 0056;
},
{
color = 4;
glyphname = W;
lastChange = "2021-12-16 00:15:55 +0000";
layers = (
{
anchors = (
{
name = bottom;
position = "{301, 0}";
},
{
name = top;
position = "{301, 620}";
}
);
background = {
paths = (
{
closed = 1;
nodes = (
"271 0 LINE",
"300 240 LINE",
"301 267 LINE",
"302 267 LINE",
"303 240 LINE",
"331 0 LINE",
"474 0 LINE",
"601 620 LINE",
"441 620 LINE",
"399 312 LINE",
"398 286 LINE",
"397 286 LINE",
"396 312 LINE",
"358 595 LINE",
"243 595 LINE",
"206 312 LINE",
"205 286 LINE",
"204 286 LINE",
"203 312 LINE",
"154 620 LINE",
"0 620 LINE",
"128 0 LINE"
);
}
);
};
layerId = "D686CB0C-BBDB-4E69-8E5A-045D5C85CA47";
paths = (
{
closed = 1;
nodes = (
"271 0 LINE",
"300 240 LINE",
"301 267 LINE",
"302 267 LINE",
"303 240 LINE",
"331 0 LINE",
"474 0 LINE",
"601 620 LINE",
"441 620 LINE",
"399 312 LINE",
"398 286 LINE",
"397 286 LINE",
"396 312 LINE",
"358 595 LINE",
"243 595 LINE",
"206 312 LINE",
"205 286 LINE",
"204 286 LINE",
"203 312 LINE",
"154 620 LINE",
"0 620 LINE",
"128 0 LINE"
);
}
);
width = 601;
},
{
anchors = (
{
name = bottom;
position = "{275, 0}";
},
{
name = top;
position = "{280, 620}";
}
);
layerId = "B8E7A328-E4C9-4125-8050-BD17141FCA48";
paths = (
{
closed = 1;
nodes = (
"168 0 LINE",
"279 535 LINE",
"280 541 LINE",
"281 541 LINE",
"281 535 LINE",
"380 0 LINE",
"405 0 LINE",
"518 620 LINE",
"498 620 LINE",
"394 40 LINE",
"393 30 LINE",
"392 30 LINE",
"391 40 LINE",
"288 586 LINE",
"270 586 LINE",
"157 40 LINE",
"157 30 LINE",
"156 30 LINE",
"155 40 LINE",
"49 620 LINE",
"28 620 LINE",
"143 0 LINE"
);
}
);
width = 546;
}
);
leftKerningGroup = W;
note = W;
rightKerningGroup = W;
unicode = 0057;
},
{
color = 4;
glyphname = X;
lastChange = "2021-12-16 00:09:15 +0000";
layers = (
{
background = {
paths = (
{
closed = 1;
nodes = (
"144 0 LINE",
"191 184 LINE",
"192 235 LINE",
"194 235 LINE",
"195 184 LINE",
"241 0 LINE",
"404 0 LINE",
"301 325 LINE",
"398 620 LINE",
"243 620 LINE",
"196 434 LINE",
"195 389 LINE",
"193 389 LINE",
"192 434 LINE",
"146 620 LINE",
"-8 620 LINE",
"89 325 LINE",
"-14 0 LINE"
);
}
);
};
layerId = "D686CB0C-BBDB-4E69-8E5A-045D5C85CA47";
paths = (
{
closed = 1;
nodes = (
"144 0 LINE",
"191 184 LINE",
"192 235 LINE",
"194 235 LINE",
"195 184 LINE",
"241 0 LINE",
"404 0 LINE",
"301 325 LINE",
"398 620 LINE",
"243 620 LINE",
"196 434 LINE",
"195 389 LINE",
"193 389 LINE",
"192 434 LINE",
"146 620 LINE",
"-8 620 LINE",
"89 325 LINE",
"-14 0 LINE"
);
}
);
width = 390;
},
{
layerId = "B8E7A328-E4C9-4125-8050-BD17141FCA48";
paths = (
{
closed = 1;
nodes = (
"51 0 LINE",
"176 305 LINE",
"179 315 LINE",
"180 315 LINE",
"182 305 LINE",
"307 0 LINE",
"328 0 LINE",
"195 325 LINE",
"321 620 LINE",
"300 620 LINE",
"183 343 LINE",
"180 335 LINE",
"179 335 LINE",
"176 343 LINE",
"58 620 LINE",
"36 620 LINE",
"163 325 LINE",
"30 0 LINE"
);
}
);
width = 358;
}
);
leftKerningGroup = X;
note = X;
rightKerningGroup = X;
unicode = 0058;
},
{
glyphname = Y;
lastChange = "2021-12-16 00:09:25 +0000";
layers = (
{
anchors = (
{
name = bottom;
position = "{202, 0}";
},
{
name = top;
position = "{202, 620}";
},
{
name = topleft;
position = "{20, 620}";
}
);
background = {
paths = (
{
closed = 1;
nodes = (
"279 0 LINE",
"279 185 LINE",
"409 620 LINE",
"269 620 LINE",
"207 362 LINE",
"206 337 LINE",
"205 362 LINE",
"136 620 LINE",
"-5 620 LINE",
"125 184 LINE",
"125 0 LINE"
);
}
);
};
layerId = "D686CB0C-BBDB-4E69-8E5A-045D5C85CA47";
paths = (
{
closed = 1;
nodes = (
"277 0 LINE",
"277 185 LINE",
"409 620 LINE",
"269 620 LINE",
"207 362 LINE",
"207 337 LINE",
"205 337 LINE",
"205 362 LINE",
"136 620 LINE",
"-5 620 LINE",
"127 184 LINE",
"127 0 LINE"
);
}
);
width = 404;
},
{
anchors = (
{
name = bottom;
position = "{163, 0}";
},
{
name = top;
position = "{163, 620}";
},
{
name = topleft;
position = "{29, 620}";
}
);
layerId = "B8E7A328-E4C9-4125-8050-BD17141FCA48";
paths = (
{
closed = 1;
nodes = (
"173 0 LINE",
"173 274 LINE",
"311 620 LINE",
"291 620 LINE",
"166 306 LINE",
"164 296 LINE",
"163 296 LINE",
"161 306 LINE",
"35 620 LINE",
"16 620 LINE",
"153 274 LINE",
"153 0 LINE"
);
}
);
width = 327;
}
);
leftKerningGroup = Y;
note = Y;
rightKerningGroup = Y;
unicode = 0059;
},
{
glyphname = Z;
lastChange = "2021-12-16 00:09:33 +0000";
layers = (
{
anchors = (
{
name = bottom;
position = "{175, 0}";
},
{
name = center;
position = "{175, 310}";
},
{
name = top;
position = "{175, 620}";
}
);
background = {
paths = (
{
closed = 1;
nodes = (
"120 0 LINE",
"344 620 LINE",
"219 620 LINE",
"-5 0 LINE"
);
},
{
closed = 1;
nodes = (
"356 0 LINE",
"356 120 LINE",
"121 120 LINE",
"75 0 LINE"
);
},
{
closed = 1;
nodes = (
"243 500 LINE",
"243 620 LINE",
"6 620 LINE",
"6 500 LINE"
);
}
);
};
layerId = "D686CB0C-BBDB-4E69-8E5A-045D5C85CA47";
paths = (
{
closed = 1;
nodes = (
"346 0 LINE",
"346 120 LINE",
"187 120 LINE",
"351 620 LINE",
"6 620 LINE",
"6 500 LINE",
"156 500 LINE",
"-5 0 LINE"
);
}
);
width = 349;
},
{
anchors = (
{
name = bottom;
position = "{141, 0}";
},
{
name = center;
position = "{141, 310}";
},
{
name = top;
position = "{141, 620}";
}
);
layerId = "B8E7A328-E4C9-4125-8050-BD17141FCA48";
paths = (
{
closed = 1;
nodes = (
"258 0 LINE",
"258 17 LINE",
"42 17 LINE",
"249 620 LINE",
"33 620 LINE",
"33 603 LINE",
"224 603 LINE",
"16 0 LINE"
);
}
);
width = 282;
}
);
leftKerningGroup = Z;
note = Z;
rightKerningGroup = Z;
unicode = 005A;
},
{
glyphname = a;
lastChange = "2021-12-16 00:10:52 +0000";
layers = (
{
anchors = (
{
name = bottom;
position = "{198, 0}";
},
{
name = ogonek;
position = "{395, 10}";
},
{
name = top;
position = "{213, 470}";
}
);
background = {
paths = (
{
closed = 1;
nodes = (
"196 0 LINE",
"210 120 LINE",
"199 120 LINE SMOOTH",
"181 120 OFFCURVE",
"173 121 OFFCURVE",
"173 155 CURVE SMOOTH",
"173 322 LINE SMOOTH",
"173 341 OFFCURVE",
"181 350 OFFCURVE",
"197 350 CURVE SMOOTH",
"221 350 LINE",
"221 0 LINE",
"371 0 LINE",
"371 470 LINE",
"144 470 LINE SMOOTH",
"54 470 OFFCURVE",
"23 421 OFFCURVE",
"23 343 CURVE SMOOTH",
"23 133 LINE SMOOTH",
"23 40 OFFCURVE",
"28 0 OFFCURVE",
"113 0 CURVE SMOOTH"
);
}
);
};
layerId = "D686CB0C-BBDB-4E69-8E5A-045D5C85CA47";
paths = (
{
closed = 1;
nodes = (
"196 0 LINE",
"210 120 LINE",
"199 120 LINE SMOOTH",
"181 120 OFFCURVE",
"173 121 OFFCURVE",
"173 155 CURVE SMOOTH",
"173 322 LINE SMOOTH",
"173 341 OFFCURVE",
"181 350 OFFCURVE",
"197 350 CURVE SMOOTH",
"221 350 LINE",
"221 0 LINE",
"371 0 LINE",
"371 470 LINE",
"144 470 LINE SMOOTH",
"54 470 OFFCURVE",
"23 421 OFFCURVE",
"23 343 CURVE SMOOTH",
"23 133 LINE SMOOTH",
"23 40 OFFCURVE",
"28 0 OFFCURVE",
"113 0 CURVE SMOOTH"
);
}
);
width = 396;
},
{
anchors = (
{
name = bottom;
position = "{198, 0}";
},
{
name = ogonek;
position = "{396, 10}";
},
{
name = top;
position = "{197, 470}";
}
);
layerId = "B8E7A328-E4C9-4125-8050-BD17141FCA48";
paths = (
{
closed = 1;
nodes = (
"264 0 LINE",
"268 17 LINE",
"138 17 LINE SMOOTH",
"88 17 OFFCURVE",
"84 33 OFFCURVE",
"84 103 CURVE SMOOTH",
"84 362 LINE SMOOTH",
"84 431 OFFCURVE",
"78 453 OFFCURVE",
"147 453 CURVE SMOOTH",
"306 453 LINE",
"306 0 LINE",
"326 0 LINE",
"326 470 LINE",
"167 470 LINE SMOOTH",
"77 470 OFFCURVE",
"64 465 OFFCURVE",
"64 387 CURVE SMOOTH",
"64 125 LINE SMOOTH",
"64 19 OFFCURVE",
"64 0 OFFCURVE",
"133 0 CURVE SMOOTH"
);
}
);
width = 396;
}
);
leftKerningGroup = o;
leftMetricsKey = "=o+4";
note = a;
rightKerningGroup = a;
unicode = 0061;
},
{
glyphname = b;
lastChange = "2021-12-16 00:10:31 +0000";
layers = (
{
background = {
paths = (
{
closed = 1;
nodes = (
"270 0 LINE SMOOTH",
"373 0 OFFCURVE",
"373 37 OFFCURVE",
"373 145 CURVE SMOOTH",
"373 343 LINE SMOOTH",
"373 421 OFFCURVE",
"342 470 OFFCURVE",
"250 470 CURVE SMOOTH",
"175 470 LINE",
"175 627 LINE",
"25 627 LINE",
"25 0 LINE"
);
},
{
closed = 1;
nodes = (
"175 350 LINE",
"199 350 LINE SMOOTH",
"215 350 OFFCURVE",
"223 341 OFFCURVE",
"223 322 CURVE SMOOTH",
"223 155 LINE SMOOTH",
"223 121 OFFCURVE",
"215 120 OFFCURVE",
"194 120 CURVE SMOOTH",
"175 120 LINE"
);
}
);
};
layerId = "D686CB0C-BBDB-4E69-8E5A-045D5C85CA47";
paths = (
{
closed = 1;
nodes = (
"270 0 LINE SMOOTH",
"373 0 OFFCURVE",
"373 37 OFFCURVE",
"373 145 CURVE SMOOTH",
"373 343 LINE SMOOTH",
"373 421 OFFCURVE",
"342 470 OFFCURVE",
"250 470 CURVE SMOOTH",
"175 470 LINE",
"175 627 LINE",
"25 627 LINE",
"25 0 LINE"
);
},
{
closed = 1;
nodes = (
"175 350 LINE",
"199 350 LINE SMOOTH",
"215 350 OFFCURVE",
"223 341 OFFCURVE",
"223 322 CURVE SMOOTH",
"223 155 LINE SMOOTH",
"223 121 OFFCURVE",
"215 120 OFFCURVE",
"194 120 CURVE SMOOTH",
"175 120 LINE"
);
}
);
width = 396;
},
{
layerId = "B8E7A328-E4C9-4125-8050-BD17141FCA48";
paths = (
{
closed = 1;
nodes = (
"261 0 LINE SMOOTH",
"331 0 OFFCURVE",
"331 19 OFFCURVE",
"331 127 CURVE SMOOTH",
"331 387 LINE SMOOTH",
"331 465 OFFCURVE",
"318 470 OFFCURVE",
"229 470 CURVE SMOOTH",
"90 470 LINE",
"90 630 LINE",
"70 630 LINE",
"70 0 LINE"
);
},
{
closed = 1;
nodes = (
"90 453 LINE",
"248 453 LINE SMOOTH",
"316 453 OFFCURVE",
"311 431 OFFCURVE",
"311 362 CURVE SMOOTH",
"311 103 LINE SMOOTH",
"311 33 OFFCURVE",
"306 17 OFFCURVE",
"257 17 CURVE SMOOTH",
"90 17 LINE"
);
}
);
width = 395;
}
);
leftKerningGroup = b;
leftMetricsKey = n;
note = b;
rightKerningGroup = o;
rightMetricsKey = "=o+4";
unicode = 0062;
},
{
glyphname = c;
lastChange = "2021-12-16 00:10:31 +0000";
layers = (
{
anchors = (
{
name = bottom;
position = "{191, 0}";
},
{
name = top;
position = "{191, 470}";
}
);
background = {
paths = (
{
closed = 1;
nodes = (
"320 -5 OFFCURVE",
"367 43 OFFCURVE",
"367 118 CURVE SMOOTH",
"367 211 LINE",
"217 201 LINE",
"217 150 LINE SMOOTH",
"217 138 OFFCURVE",
"217 117 OFFCURVE",
"193 117 CURVE SMOOTH",
"169 117 OFFCURVE",
"169 138 OFFCURVE",
"169 150 CURVE SMOOTH",
"169 325 LINE SMOOTH",
"169 336 OFFCURVE",
"169 361 OFFCURVE",
"193 361 CURVE SMOOTH",
"217 361 OFFCURVE",
"217 336 OFFCURVE",
"217 325 CURVE SMOOTH",
"217 265 LINE",
"367 275 LINE",
"367 353 LINE SMOOTH",
"367 428 OFFCURVE",
"320 476 OFFCURVE",
"194 476 CURVE SMOOTH",
"49 476 OFFCURVE",
"19 424 OFFCURVE",
"19 351 CURVE SMOOTH",
"19 120 LINE SMOOTH",
"19 47 OFFCURVE",
"49 -5 OFFCURVE",
"194 -5 CURVE SMOOTH"
);
}
);
};
layerId = "D686CB0C-BBDB-4E69-8E5A-045D5C85CA47";
paths = (
{
closed = 1;
nodes = (
"320 -5 OFFCURVE",
"367 43 OFFCURVE",
"367 118 CURVE SMOOTH",
"367 211 LINE",
"217 201 LINE",
"217 150 LINE SMOOTH",
"217 138 OFFCURVE",
"217 117 OFFCURVE",
"193 117 CURVE SMOOTH",
"169 117 OFFCURVE",
"169 138 OFFCURVE",
"169 150 CURVE SMOOTH",
"169 325 LINE SMOOTH",
"169 336 OFFCURVE",
"169 361 OFFCURVE",
"193 361 CURVE SMOOTH",
"217 361 OFFCURVE",
"217 336 OFFCURVE",
"217 325 CURVE SMOOTH",
"217 265 LINE",
"367 275 LINE",
"367 353 LINE SMOOTH",
"367 428 OFFCURVE",
"320 476 OFFCURVE",
"194 476 CURVE SMOOTH",
"49 476 OFFCURVE",
"19 424 OFFCURVE",
"19 351 CURVE SMOOTH",
"19 120 LINE SMOOTH",
"19 47 OFFCURVE",
"49 -5 OFFCURVE",
"194 -5 CURVE SMOOTH"
);
}
);
width = 382;
},
{
anchors = (
{
name = bottom;
position = "{189, 0}";
},
{
name = top;
position = "{189, 470}";
}
);
layerId = "B8E7A328-E4C9-4125-8050-BD17141FCA48";
paths = (
{
closed = 1;
nodes = (
"300 -4 OFFCURVE",
"322 53 OFFCURVE",
"322 114 CURVE SMOOTH",
"322 176 LINE",
"302 171 LINE",
"302 110 LINE SMOOTH",
"302 39 OFFCURVE",
"256 13 OFFCURVE",
"182 13 CURVE SMOOTH",
"127 13 OFFCURVE",
"80 38 OFFCURVE",
"80 101 CURVE SMOOTH",
"80 370 LINE SMOOTH",
"80 434 OFFCURVE",
"127 459 OFFCURVE",
"191 459 CURVE SMOOTH",
"256 459 OFFCURVE",
"302 433 OFFCURVE",
"302 370 CURVE SMOOTH",
"302 301 LINE",
"322 307 LINE",
"322 373 LINE SMOOTH",
"322 418 OFFCURVE",
"300 475 OFFCURVE",
"191 475 CURVE SMOOTH",
"79 475 OFFCURVE",
"60 418 OFFCURVE",
"60 373 CURVE SMOOTH",
"60 98 LINE SMOOTH",
"60 53 OFFCURVE",
"79 -4 OFFCURVE",
"182 -4 CURVE SMOOTH"
);
}
);
width = 378;
}
);
leftKerningGroup = o;
leftMetricsKey = o;
note = c;
rightKerningGroup = c;
rightMetricsKey = "=o-4";
unicode = 0063;
},
{
glyphname = d;
lastChange = "2021-12-16 00:10:59 +0000";
layers = (
{
anchors = (
{
name = bottom;
position = "{198, 0}";
},
{
name = center;
position = "{253, 540}";
},
{
name = top;
position = "{198, 630}";
},
{
name = topright;
position = "{392, 643}";
}
);
background = {
paths = (
{
closed = 1;
nodes = (
"371 0 LINE",
"371 627 LINE",
"221 627 LINE",
"221 470 LINE",
"146 470 LINE SMOOTH",
"54 470 OFFCURVE",
"23 421 OFFCURVE",
"23 343 CURVE SMOOTH",
"23 145 LINE SMOOTH",
"23 37 OFFCURVE",
"23 0 OFFCURVE",
"126 0 CURVE SMOOTH"
);
},
{
closed = 1;
nodes = (
"202 120 LINE SMOOTH",
"181 120 OFFCURVE",
"173 121 OFFCURVE",
"173 155 CURVE SMOOTH",
"173 322 LINE SMOOTH",
"173 341 OFFCURVE",
"181 350 OFFCURVE",
"197 350 CURVE SMOOTH",
"221 350 LINE",
"221 120 LINE"
);
}
);
};
layerId = "D686CB0C-BBDB-4E69-8E5A-045D5C85CA47";
paths = (
{
closed = 1;
nodes = (
"371 0 LINE",
"371 627 LINE",
"221 627 LINE",
"221 470 LINE",
"146 470 LINE SMOOTH",
"65 470 OFFCURVE",
"23 432 OFFCURVE",
"23 354 CURVE SMOOTH",
"23 123 LINE SMOOTH",
"23 18 OFFCURVE",
"44 0 OFFCURVE",
"126 0 CURVE SMOOTH"
);
},
{
closed = 1;
nodes = (
"202 120 LINE SMOOTH",
"181 120 OFFCURVE",
"173 121 OFFCURVE",
"173 155 CURVE SMOOTH",
"173 322 LINE SMOOTH",
"173 341 OFFCURVE",
"181 350 OFFCURVE",
"197 350 CURVE SMOOTH",
"221 350 LINE",
"221 120 LINE"
);
}
);
width = 396;
},
{
anchors = (
{
name = bottom;
position = "{198, 0}";
},
{
name = center;
position = "{259, 540}";
},
{
name = top;
position = "{198, 630}";
},
{
name = topright;
position = "{356, 649}";
}
);
layerId = "B8E7A328-E4C9-4125-8050-BD17141FCA48";
paths = (
{
closed = 1;
nodes = (
"326 0 LINE",
"326 630 LINE",
"306 630 LINE",
"306 470 LINE",
"159 470 LINE SMOOTH",
"75 470 OFFCURVE",
"64 459 OFFCURVE",
"64 387 CURVE SMOOTH",
"64 101 LINE SMOOTH",
"64 8 OFFCURVE",
"75 0 OFFCURVE",
"133 0 CURVE SMOOTH"
);
},
{
closed = 1;
nodes = (
"138 17 LINE SMOOTH",
"96 17 OFFCURVE",
"84 26 OFFCURVE",
"84 82 CURVE SMOOTH",
"84 390 LINE SMOOTH",
"84 444 OFFCURVE",
"94 453 OFFCURVE",
"150 453 CURVE SMOOTH",
"306 453 LINE",
"306 17 LINE"
);
}
);
width = 396;
}
);
leftKerningGroup = o;
leftMetricsKey = a;
note = d;
rightKerningGroup = d;
unicode = 0064;
},
{
glyphname = eth;
lastChange = "2021-12-15 23:40:28 +0000";
layers = (
{
background = {
paths = (
{
closed = 1;
nodes = (
"360 -1 OFFCURVE",
"390 14 OFFCURVE",
"388 164 CURVE SMOOTH",
"387 338 LINE SMOOTH",
"387 550 OFFCURVE",
"286 620 OFFCURVE",
"159 620 CURVE SMOOTH",
"54 620 LINE",
"54 537 LINE",
"72 537 LINE SMOOTH",
"152 537 OFFCURVE",
"190 523 OFFCURVE",
"208 470 CURVE",
"150 470 LINE SMOOTH",
"76 470 OFFCURVE",
"40 429 OFFCURVE",
"40 326 CURVE SMOOTH",
"40 158 LINE SMOOTH",
"37 26 OFFCURVE",
"72 -1 OFFCURVE",
"214 -1 CURVE SMOOTH"
);
},
{
closed = 1;
nodes = (
"190 128 OFFCURVE",
"190 149 OFFCURVE",
"190 161 CURVE SMOOTH",
"190 336 LINE SMOOTH",
"190 347 OFFCURVE",
"190 372 OFFCURVE",
"214 372 CURVE SMOOTH",
"238 372 OFFCURVE",
"238 347 OFFCURVE",
"238 336 CURVE SMOOTH",
"238 161 LINE SMOOTH",
"238 149 OFFCURVE",
"238 128 OFFCURVE",
"214 128 CURVE SMOOTH"
);
},
{
closed = 1;
nodes = (
"248 646 LINE",
"213 674 LINE",
"87 509 LINE",
"123 480 LINE"
);
}
);
};
layerId = "D686CB0C-BBDB-4E69-8E5A-045D5C85CA47";
paths = (
{
closed = 1;
nodes = (
"360 -1 OFFCURVE",
"389 14 OFFCURVE",
"388 164 CURVE SMOOTH",
"387 338 LINE SMOOTH",
"386 550 OFFCURVE",
"286 620 OFFCURVE",
"159 620 CURVE SMOOTH",
"54 620 LINE",
"54 537 LINE",
"87 537 LINE SMOOTH",
"177 537 OFFCURVE",
"206 497 OFFCURVE",
"209 458 CURVE",
"218 470 LINE",
"190 470 OFFCURVE",
"184 470 OFFCURVE",
"150 470 CURVE SMOOTH",
"76 470 OFFCURVE",
"40 429 OFFCURVE",
"40 326 CURVE SMOOTH",
"40 158 LINE SMOOTH",
"40 26 OFFCURVE",
"72 -1 OFFCURVE",
"214 -1 CURVE SMOOTH"
);
},
{
closed = 1;
nodes = (
"197 128 OFFCURVE",
"190 138 OFFCURVE",
"190 161 CURVE SMOOTH",
"190 336 LINE SMOOTH",
"190 361 OFFCURVE",
"198 372 OFFCURVE",
"214 372 CURVE SMOOTH",
"230 372 OFFCURVE",
"238 362 OFFCURVE",
"238 336 CURVE SMOOTH",
"238 161 LINE SMOOTH",
"238 138 OFFCURVE",
"232 128 OFFCURVE",
"214 128 CURVE SMOOTH"
);
},
{
closed = 1;
nodes = (
"248 646 LINE",
"213 674 LINE",
"87 509 LINE",
"123 480 LINE"
);
}
);
width = 428;
},
{
layerId = "B8E7A328-E4C9-4125-8050-BD17141FCA48";
paths = (
{
closed = 1;
nodes = (
"292 -1 OFFCURVE",
"319 28 OFFCURVE",
"319 116 CURVE SMOOTH",
"319 354 LINE SMOOTH",
"319 548 OFFCURVE",
"243 620 OFFCURVE",
"148 620 CURVE SMOOTH",
"69 620 LINE",
"69 606 LINE",
"142 606 LINE SMOOTH",
"236 606 OFFCURVE",
"285 528 OFFCURVE",
"294 421 CURVE",
"298 423 LINE",
"279 454 OFFCURVE",
"244 470 OFFCURVE",
"190 470 CURVE SMOOTH",
"86 470 OFFCURVE",
"58 429 OFFCURVE",
"58 326 CURVE SMOOTH",
"58 154 LINE SMOOTH",
"58 24 OFFCURVE",
"83 -1 OFFCURVE",
"186 -1 CURVE SMOOTH"
);
},
{
closed = 1;
nodes = (
"108 16 OFFCURVE",
"78 35 OFFCURVE",
"78 137 CURVE SMOOTH",
"78 328 LINE SMOOTH",
"78 434 OFFCURVE",
"119 454 OFFCURVE",
"189 454 CURVE SMOOTH",
"274 454 OFFCURVE",
"299 417 OFFCURVE",
"299 369 CURVE SMOOTH",
"299 116 LINE SMOOTH",
"299 41 OFFCURVE",
"275 16 OFFCURVE",
"186 16 CURVE SMOOTH"
);
},
{
closed = 1;
nodes = (
"198 649 LINE",
"189 656 LINE",
"93 529 LINE",
"103 522 LINE"
);
}
);
width = 378;
}
);
leftKerningGroup = o;
rightKerningGroup = d;
unicode = 00F0;
},
{
glyphname = e;
lastChange = "2021-12-16 00:10:31 +0000";
layers = (
{
anchors = (
{
name = bottom;
position = "{193, 0}";
},
{
name = ogonek;
position = "{320, 11}";
},
{
name = top;
position = "{193, 470}";
}
);
background = {
paths = (
{
closed = 1;
nodes = (
"320 -5 OFFCURVE",
"367 43 OFFCURVE",
"367 118 CURVE SMOOTH",
"367 179 LINE",
"217 169 LINE",
"217 150 LINE SMOOTH",
"217 138 OFFCURVE",
"217 117 OFFCURVE",
"193 117 CURVE SMOOTH",
"169 117 OFFCURVE",
"169 138 OFFCURVE",
"169 150 CURVE SMOOTH",
"169 325 LINE SMOOTH",
"169 336 OFFCURVE",
"169 361 OFFCURVE",
"193 361 CURVE SMOOTH",
"217 361 OFFCURVE",
"217 336 OFFCURVE",
"217 325 CURVE SMOOTH",
"217 265 LINE",
"367 275 LINE",
"367 353 LINE SMOOTH",
"367 428 OFFCURVE",
"320 476 OFFCURVE",
"194 476 CURVE SMOOTH",
"49 476 OFFCURVE",
"19 424 OFFCURVE",
"19 351 CURVE SMOOTH",
"19 120 LINE SMOOTH",
"19 47 OFFCURVE",
"49 -5 OFFCURVE",
"194 -5 CURVE SMOOTH"
);
},
{
closed = 1;
nodes = (
"367 205 LINE",
"367 283 LINE",
"35 283 LINE",
"35 205 LINE"
);
}
);
};
layerId = "D686CB0C-BBDB-4E69-8E5A-045D5C85CA47";
paths = (
{
closed = 1;
nodes = (
"320 -5 OFFCURVE",
"367 43 OFFCURVE",
"367 118 CURVE SMOOTH",
"367 179 LINE",
"217 169 LINE",
"217 150 LINE SMOOTH",
"217 138 OFFCURVE",
"217 117 OFFCURVE",
"193 117 CURVE SMOOTH",
"169 117 OFFCURVE",
"169 138 OFFCURVE",
"169 150 CURVE SMOOTH",
"169 325 LINE SMOOTH",
"169 336 OFFCURVE",
"169 361 OFFCURVE",
"193 361 CURVE SMOOTH",
"217 361 OFFCURVE",
"217 336 OFFCURVE",
"217 325 CURVE SMOOTH",
"217 265 LINE",
"367 275 LINE",
"367 353 LINE SMOOTH",
"367 428 OFFCURVE",
"320 476 OFFCURVE",
"194 476 CURVE SMOOTH",
"49 476 OFFCURVE",
"19 424 OFFCURVE",
"19 351 CURVE SMOOTH",
"19 120 LINE SMOOTH",
"19 47 OFFCURVE",
"49 -5 OFFCURVE",
"194 -5 CURVE SMOOTH"
);
},
{
closed = 1;
nodes = (
"367 205 LINE",
"367 283 LINE",
"35 283 LINE",
"35 205 LINE"
);
}
);
width = 386;
},
{
anchors = (
{
name = bottom;
position = "{191, 0}";
},
{
name = ogonek;
position = "{332, 10}";
},
{
name = top;
position = "{191, 470}";
}
);
layerId = "B8E7A328-E4C9-4125-8050-BD17141FCA48";
paths = (
{
closed = 1;
nodes = (
"300 -4 OFFCURVE",
"322 53 OFFCURVE",
"322 114 CURVE SMOOTH",
"322 173 LINE",
"302 169 LINE",
"302 110 LINE SMOOTH",
"302 39 OFFCURVE",
"256 13 OFFCURVE",
"182 13 CURVE SMOOTH",
"127 13 OFFCURVE",
"80 38 OFFCURVE",
"80 101 CURVE SMOOTH",
"80 370 LINE SMOOTH",
"80 434 OFFCURVE",
"127 459 OFFCURVE",
"191 459 CURVE SMOOTH",
"256 459 OFFCURVE",
"302 433 OFFCURVE",
"302 370 CURVE SMOOTH",
"302 248 LINE",
"322 248 LINE",
"322 373 LINE SMOOTH",
"322 418 OFFCURVE",
"300 475 OFFCURVE",
"191 475 CURVE SMOOTH",
"79 475 OFFCURVE",
"60 418 OFFCURVE",
"60 373 CURVE SMOOTH",
"60 98 LINE SMOOTH",
"60 53 OFFCURVE",
"79 -4 OFFCURVE",
"182 -4 CURVE SMOOTH"
);
},
{
closed = 1;
nodes = (
"322 238 LINE",
"322 252 LINE",
"66 252 LINE",
"66 238 LINE"
);
}
);
width = 382;
}
);
leftKerningGroup = o;
leftMetricsKey = o;
note = e;
rightKerningGroup = e;
rightMetricsKey = o;
unicode = 0065;
},
{
glyphname = f;
lastChange = "2021-12-16 00:11:18 +0000";
layers = (
{
background = {
paths = (
{
closed = 1;
nodes = (
"49 0 LINE",
"200 0 LINE",
"200 392 LINE",
"274 392 LINE",
"284 470 LINE",
"200 470 LINE",
"200 500 LINE SMOOTH",
"200 542 OFFCURVE",
"204 548 OFFCURVE",
"235 548 CURVE SMOOTH",
"297 548 LINE",
"297 627 LINE",
"161 627 LINE SMOOTH",
"75 627 OFFCURVE",
"49 608 OFFCURVE",
"49 529 CURVE SMOOTH",
"49 470 LINE",
"6 470 LINE",
"6 392 LINE",
"49 392 LINE"
);
}
);
};
layerId = "D686CB0C-BBDB-4E69-8E5A-045D5C85CA47";
paths = (
{
closed = 1;
nodes = (
"49 0 LINE",
"200 0 LINE",
"200 392 LINE",
"274 392 LINE",
"284 470 LINE",
"200 470 LINE",
"200 500 LINE SMOOTH",
"200 542 OFFCURVE",
"204 548 OFFCURVE",
"235 548 CURVE SMOOTH",
"297 548 LINE",
"297 627 LINE",
"161 627 LINE SMOOTH",
"75 627 OFFCURVE",
"49 608 OFFCURVE",
"49 529 CURVE SMOOTH",
"49 470 LINE",
"6 470 LINE",
"6 392 LINE",
"49 392 LINE"
);
}
);
width = 288;
},
{
layerId = "B8E7A328-E4C9-4125-8050-BD17141FCA48";
paths = (
{
closed = 1;
nodes = (
"76 0 LINE",
"96 0 LINE",
"96 456 LINE",
"181 456 LINE",
"184 470 LINE",
"96 470 LINE",
"96 553 LINE SMOOTH",
"96 592 OFFCURVE",
"111 606 OFFCURVE",
"160 606 CURVE SMOOTH",
"219 606 LINE",
"219 620 LINE",
"155 620 LINE SMOOTH",
"95 620 OFFCURVE",
"76 601 OFFCURVE",
"76 555 CURVE SMOOTH",
"76 470 LINE",
"33 470 LINE",
"33 456 LINE",
"76 456 LINE"
);
}
);
width = 195;
}
);
leftKerningGroup = f;
note = f;
rightKerningGroup = f;
unicode = 0066;
},
{
glyphname = g;
lastChange = "2021-12-16 00:11:04 +0000";
layers = (
{
anchors = (
{
name = bottom;
position = "{198, -250}";
},
{
name = top;
position = "{198, 470}";
}
);
background = {
paths = (
{
closed = 1;
nodes = (
"250 -181 LINE SMOOTH",
"340 -181 OFFCURVE",
"371 -132 OFFCURVE",
"371 -54 CURVE SMOOTH",
"371 470 LINE",
"144 470 LINE SMOOTH",
"54 470 OFFCURVE",
"23 421 OFFCURVE",
"23 343 CURVE SMOOTH",
"23 133 LINE SMOOTH",
"23 40 OFFCURVE",
"28 0 OFFCURVE",
"113 0 CURVE SMOOTH",
"196 0 LINE",
"210 120 LINE",
"199 120 LINE SMOOTH",
"181 120 OFFCURVE",
"173 121 OFFCURVE",
"173 155 CURVE SMOOTH",
"173 322 LINE SMOOTH",
"173 341 OFFCURVE",
"181 350 OFFCURVE",
"197 350 CURVE SMOOTH",
"221 350 LINE",
"221 -13 LINE SMOOTH",
"221 -52 OFFCURVE",
"213 -61 OFFCURVE",
"182 -61 CURVE SMOOTH",
"52 -61 LINE",
"70 -181 LINE"
);
}
);
};
layerId = "D686CB0C-BBDB-4E69-8E5A-045D5C85CA47";
paths = (
{
closed = 1;
nodes = (
"250 -181 LINE SMOOTH",
"340 -181 OFFCURVE",
"371 -132 OFFCURVE",
"371 -54 CURVE SMOOTH",
"371 470 LINE",
"144 470 LINE SMOOTH",
"54 470 OFFCURVE",
"23 421 OFFCURVE",
"23 343 CURVE SMOOTH",
"23 133 LINE SMOOTH",
"23 40 OFFCURVE",
"28 0 OFFCURVE",
"113 0 CURVE SMOOTH",
"196 0 LINE",
"210 120 LINE",
"199 120 LINE SMOOTH",
"181 120 OFFCURVE",
"173 121 OFFCURVE",
"173 155 CURVE SMOOTH",
"173 322 LINE SMOOTH",
"173 341 OFFCURVE",
"181 350 OFFCURVE",
"197 350 CURVE SMOOTH",
"221 350 LINE",
"221 -13 LINE SMOOTH",
"221 -52 OFFCURVE",
"213 -61 OFFCURVE",
"182 -61 CURVE SMOOTH",
"52 -61 LINE",
"70 -181 LINE"
);
}
);
width = 396;
},
{
anchors = (
{
name = bottom;
position = "{198, -250}";
},
{
name = top;
position = "{198, 470}";
}
);
layerId = "B8E7A328-E4C9-4125-8050-BD17141FCA48";
paths = (
{
closed = 1;
nodes = (
"259 -170 LINE SMOOTH",
"310 -170 OFFCURVE",
"326 -150 OFFCURVE",
"326 -93 CURVE SMOOTH",
"326 470 LINE",
"167 470 LINE SMOOTH",
"77 470 OFFCURVE",
"64 465 OFFCURVE",
"64 387 CURVE SMOOTH",
"64 125 LINE SMOOTH",
"64 19 OFFCURVE",
"64 0 OFFCURVE",
"133 0 CURVE SMOOTH",
"264 0 LINE",
"268 17 LINE",
"138 17 LINE SMOOTH",
"88 17 OFFCURVE",
"84 33 OFFCURVE",
"84 103 CURVE SMOOTH",
"84 362 LINE SMOOTH",
"84 431 OFFCURVE",
"78 453 OFFCURVE",
"147 453 CURVE SMOOTH",
"306 453 LINE",
"306 -90 LINE SMOOTH",
"306 -133 OFFCURVE",
"298 -154 OFFCURVE",
"258 -154 CURVE SMOOTH",
"116 -154 LINE",
"120 -170 LINE"
);
}
);
width = 396;
}
);
leftKerningGroup = o;
leftMetricsKey = a;
note = g;
rightKerningGroup = a;
rightMetricsKey = a;
unicode = 0067;
},
{
glyphname = h;
lastChange = "2021-12-16 00:10:31 +0000";
layers = (
{
anchors = (
{
name = bottom;
position = "{198, 0}";
},
{
name = center;
position = "{105, 544}";
},
{
name = top;
position = "{98, 630}";
}
);
background = {
paths = (
{
closed = 1;
nodes = (
"25 0 LINE",
"175 0 LINE",
"175 326 LINE SMOOTH",
"175 349 OFFCURVE",
"183 358 OFFCURVE",
"200 358 CURVE SMOOTH",
"223 358 OFFCURVE",
"223 343 OFFCURVE",
"223 319 CURVE SMOOTH",
"223 0 LINE",
"373 0 LINE",
"373 372 LINE SMOOTH",
"373 416 OFFCURVE",
"358 473 OFFCURVE",
"270 473 CURVE SMOOTH",
"221 473 OFFCURVE",
"194 454 OFFCURVE",
"175 421 CURVE",
"175 627 LINE",
"25 627 LINE"
);
}
);
};
layerId = "D686CB0C-BBDB-4E69-8E5A-045D5C85CA47";
paths = (
{
closed = 1;
nodes = (
"25 0 LINE",
"175 0 LINE",
"175 326 LINE SMOOTH",
"175 349 OFFCURVE",
"183 358 OFFCURVE",
"200 358 CURVE SMOOTH",
"223 358 OFFCURVE",
"223 343 OFFCURVE",
"223 319 CURVE SMOOTH",
"223 0 LINE",
"373 0 LINE",
"373 372 LINE SMOOTH",
"373 416 OFFCURVE",
"358 473 OFFCURVE",
"270 473 CURVE SMOOTH",
"221 473 OFFCURVE",
"194 454 OFFCURVE",
"175 421 CURVE",
"175 627 LINE",
"25 627 LINE"
);
}
);
width = 395;
},
{
anchors = (
{
name = bottom;
position = "{198, 0}";
},
{
name = center;
position = "{105, 540}";
},
{
name = top;
position = "{79, 630}";
}
);
layerId = "B8E7A328-E4C9-4125-8050-BD17141FCA48";
paths = (
{
closed = 1;
nodes = (
"70 0 LINE",
"90 0 LINE",
"90 403 LINE",
"111 434 OFFCURVE",
"141 458 OFFCURVE",
"200 458 CURVE SMOOTH",
"266 458 OFFCURVE",
"311 433 OFFCURVE",
"311 368 CURVE SMOOTH",
"311 0 LINE",
"331 0 LINE",
"331 374 LINE SMOOTH",
"331 418 OFFCURVE",
"313 475 OFFCURVE",
"205 475 CURVE SMOOTH",
"146 475 OFFCURVE",
"112 456 OFFCURVE",
"90 423 CURVE",
"90 630 LINE",
"70 630 LINE"
);
}
);
width = 395;
}
);
leftKerningGroup = b;
leftMetricsKey = n;
note = h;
rightKerningGroup = n;
rightMetricsKey = n;
unicode = 0068;
},
{
glyphname = i;
lastChange = "2021-12-16 00:11:56 +0000";
layers = (
{
anchors = (
{
name = bottom;
position = "{99, 0}";
}
);
background = {
paths = (
{
closed = 1;
nodes = (
"27 0 LINE",
"177 0 LINE",
"177 470 LINE",
"27 470 LINE"
);
},
{
closed = 1;
nodes = (
"177 499 OFFCURVE",
"177 527 OFFCURVE",
"177 561 CURVE SMOOTH",
"177 602 OFFCURVE",
"177 630 OFFCURVE",
"99 630 CURVE SMOOTH",
"21 630 OFFCURVE",
"21 602 OFFCURVE",
"21 561 CURVE SMOOTH",
"21 527 OFFCURVE",
"21 499 OFFCURVE",
"99 499 CURVE SMOOTH"
);
},
{
closed = 1;
nodes = (
"24 0 LINE",
"174 0 LINE",
"174 470 LINE",
"24 470 LINE"
);
},
{
closed = 1;
nodes = (
"177 499 OFFCURVE",
"177 527 OFFCURVE",
"177 561 CURVE SMOOTH",
"177 602 OFFCURVE",
"177 630 OFFCURVE",
"99 630 CURVE SMOOTH",
"21 630 OFFCURVE",
"21 602 OFFCURVE",
"21 561 CURVE SMOOTH",
"21 527 OFFCURVE",
"21 499 OFFCURVE",
"99 499 CURVE SMOOTH"
);
}
);
};
layerId = "D686CB0C-BBDB-4E69-8E5A-045D5C85CA47";
paths = (
{
closed = 1;
nodes = (
"174 0 LINE",
"174 470 LINE",
"24 470 LINE",
"24 0 LINE"
);
},
{
closed = 1;
nodes = (
"165 500 OFFCURVE",
"177 515 OFFCURVE",
"177 565 CURVE SMOOTH",
"177 615 OFFCURVE",
"165 630 OFFCURVE",
"99 630 CURVE SMOOTH",
"33 630 OFFCURVE",
"21 615 OFFCURVE",
"21 565 CURVE SMOOTH",
"21 515 OFFCURVE",
"33 500 OFFCURVE",
"99 500 CURVE SMOOTH"
);
}
);
width = 198;
},
{
anchors = (
{
name = bottom;
position = "{80, 0}";
}
);
layerId = "B8E7A328-E4C9-4125-8050-BD17141FCA48";
paths = (
{
closed = 1;
nodes = (
"90 0 LINE",
"90 470 LINE",
"70 470 LINE",
"70 0 LINE"
);
},
{
closed = 1;
nodes = (
"92 546 OFFCURVE",
"95 548 OFFCURVE",
"95 560 CURVE SMOOTH",
"95 572 OFFCURVE",
"92 576 OFFCURVE",
"79 576 CURVE SMOOTH",
"66 576 OFFCURVE",
"64 572 OFFCURVE",
"64 560 CURVE SMOOTH",
"64 548 OFFCURVE",
"66 546 OFFCURVE",
"79 546 CURVE SMOOTH"
);
}
);
width = 160;
}
);
note = i;
unicode = 0069;
},
{
glyphname = idotless;
lastChange = "2021-12-16 00:11:04 +0000";
layers = (
{
anchors = (
{
name = bottom;
position = "{100, 0}";
},
{
name = ogonek;
position = "{180, 10}";
},
{
name = top;
position = "{100, 470}";
}
);
background = {
paths = (
{
closed = 1;
nodes = (
"25 0 LINE",
"175 0 LINE",
"175 470 LINE",
"25 470 LINE"
);
}
);
};
layerId = "D686CB0C-BBDB-4E69-8E5A-045D5C85CA47";
paths = (
{
closed = 1;
nodes = (
"25 0 LINE",
"175 0 LINE",
"175 470 LINE",
"25 470 LINE"
);
}
);
width = 200;
},
{
anchors = (
{
name = bottom;
position = "{80, 0}";
},
{
name = ogonek;
position = "{134, 10}";
},
{
name = top;
position = "{80, 470}";
}
);
layerId = "B8E7A328-E4C9-4125-8050-BD17141FCA48";
paths = (
{
closed = 1;
nodes = (
"70 0 LINE",
"90 0 LINE",
"90 470 LINE",
"70 470 LINE"
);
}
);
width = 160;
}
);
leftMetricsKey = n;
rightMetricsKey = d;
unicode = 0131;
},
{
glyphname = j;
lastChange = "2021-12-16 00:55:41 +0000";
layers = (
{
background = {
paths = (
{
closed = 1;
nodes = (
"139 -181 LINE SMOOTH",
"229 -181 OFFCURVE",
"260 -132 OFFCURVE",
"260 -54 CURVE SMOOTH",
"260 470 LINE",
"110 470 LINE",
"110 -13 LINE SMOOTH",
"110 -52 OFFCURVE",
"102 -61 OFFCURVE",
"71 -61 CURVE SMOOTH",
"-30 -61 LINE",
"-12 -181 LINE"
);
},
{
closed = 1;
nodes = (
"265 499 OFFCURVE",
"265 499 OFFCURVE",
"265 561 CURVE SMOOTH",
"265 630 OFFCURVE",
"265 630 OFFCURVE",
"187 630 CURVE SMOOTH",
"109 630 OFFCURVE",
"109 630 OFFCURVE",
"109 561 CURVE SMOOTH",
"109 499 OFFCURVE",
"109 499 OFFCURVE",
"187 499 CURVE SMOOTH"
);
},
{
closed = 1;
nodes = (
"265 499 OFFCURVE",
"265 499 OFFCURVE",
"265 561 CURVE SMOOTH",
"265 630 OFFCURVE",
"265 630 OFFCURVE",
"187 630 CURVE SMOOTH",
"109 630 OFFCURVE",
"109 630 OFFCURVE",
"109 561 CURVE SMOOTH",
"109 499 OFFCURVE",
"109 499 OFFCURVE",
"187 499 CURVE SMOOTH"
);
}
);
};
layerId = "D686CB0C-BBDB-4E69-8E5A-045D5C85CA47";
paths = (
{
closed = 1;
nodes = (
"139 -181 LINE SMOOTH",
"229 -181 OFFCURVE",
"260 -132 OFFCURVE",
"260 -54 CURVE SMOOTH",
"260 470 LINE",
"110 470 LINE",
"110 -13 LINE SMOOTH",
"110 -52 OFFCURVE",
"102 -61 OFFCURVE",
"71 -61 CURVE SMOOTH",
"-30 -61 LINE",
"-12 -181 LINE"
);
},
{
closed = 1;
nodes = (
"251 500 OFFCURVE",
"263 515 OFFCURVE",
"263 565 CURVE SMOOTH",
"263 615 OFFCURVE",
"251 630 OFFCURVE",
"185 630 CURVE SMOOTH",
"119 630 OFFCURVE",
"107 615 OFFCURVE",
"107 565 CURVE SMOOTH",
"107 515 OFFCURVE",
"119 500 OFFCURVE",
"185 500 CURVE SMOOTH"
);
}
);
width = 284;
},
{
layerId = "B8E7A328-E4C9-4125-8050-BD17141FCA48";
paths = (
{
closed = 1;
nodes = (
"19 -170 LINE SMOOTH",
"70 -170 OFFCURVE",
"85 -150 OFFCURVE",
"85 -93 CURVE SMOOTH",
"85 470 LINE",
"65 470 LINE",
"65 -90 LINE SMOOTH",
"65 -133 OFFCURVE",
"57 -154 OFFCURVE",
"18 -154 CURVE SMOOTH",
"-50 -154 LINE",
"-46 -170 LINE"
);
},
{
closed = 1;
nodes = (
"88 546 OFFCURVE",
"90 548 OFFCURVE",
"90 560 CURVE SMOOTH",
"90 572 OFFCURVE",
"88 576 OFFCURVE",
"75 576 CURVE SMOOTH",
"62 576 OFFCURVE",
"59 572 OFFCURVE",
"59 560 CURVE SMOOTH",
"59 548 OFFCURVE",
"62 546 OFFCURVE",
"75 546 CURVE SMOOTH"
);
}
);
width = 155;
}
);
leftKerningGroup = j;
leftMetricsKey = jdotless;
note = j;
rightKerningGroup = j;
rightMetricsKey = jdotless;
unicode = 006A;
},
{
glyphname = jdotless;
lastChange = "2021-12-16 00:12:30 +0000";
layers = (
{
anchors = (
{
name = bottom;
position = "{140, -250}";
},
{
name = top;
position = "{183, 470}";
}
);
background = {
paths = (
{
closed = 1;
nodes = (
"139 -181 LINE SMOOTH",
"229 -181 OFFCURVE",
"260 -132 OFFCURVE",
"260 -54 CURVE SMOOTH",
"260 470 LINE",
"110 470 LINE",
"110 -13 LINE SMOOTH",
"110 -52 OFFCURVE",
"102 -61 OFFCURVE",
"71 -61 CURVE SMOOTH",
"-30 -61 LINE",
"-12 -181 LINE"
);
}
);
};
layerId = "D686CB0C-BBDB-4E69-8E5A-045D5C85CA47";
paths = (
{
closed = 1;
nodes = (
"139 -181 LINE SMOOTH",
"229 -181 OFFCURVE",
"260 -132 OFFCURVE",
"260 -54 CURVE SMOOTH",
"260 470 LINE",
"110 470 LINE",
"110 -13 LINE SMOOTH",
"110 -52 OFFCURVE",
"102 -61 OFFCURVE",
"71 -61 CURVE SMOOTH",
"-30 -61 LINE",
"-12 -181 LINE"
);
}
);
width = 281;
},
{
anchors = (
{
name = bottom;
position = "{73, -250}";
},
{
name = top;
position = "{74, 470}";
}
);
layerId = "B8E7A328-E4C9-4125-8050-BD17141FCA48";
paths = (
{
closed = 1;
nodes = (
"18 -170 LINE SMOOTH",
"69 -170 OFFCURVE",
"84 -150 OFFCURVE",
"84 -93 CURVE SMOOTH",
"84 470 LINE",
"64 470 LINE",
"64 -90 LINE SMOOTH",
"64 -133 OFFCURVE",
"56 -154 OFFCURVE",
"17 -154 CURVE SMOOTH",
"-50 -154 LINE",
"-47 -170 LINE"
);
}
);
width = 149;
}
);
leftKerningGroup = j;
rightKerningGroup = j;
rightMetricsKey = i;
unicode = 0237;
},
{
glyphname = k;
lastChange = "2021-12-16 00:12:58 +0000";
layers = (
{
anchors = (
{
name = bottom;
position = "{218, 0}";
},
{
name = top;
position = "{203, 630}";
}
);
background = {
paths = (
{
closed = 1;
nodes = (
"175 0 LINE",
"175 620 LINE",
"25 620 LINE",
"25 0 LINE"
);
},
{
closed = 1;
nodes = (
"415 0 LINE",
"297 254 LINE",
"393 432 LINE",
"256 482 LINE",
"165 294 LINE",
"114 294 LINE",
"114 182 LINE",
"165 182 LINE",
"245 0 LINE"
);
}
);
};
layerId = "D686CB0C-BBDB-4E69-8E5A-045D5C85CA47";
paths = (
{
closed = 1;
nodes = (
"175 0 LINE",
"175 620 LINE",
"25 620 LINE",
"25 0 LINE"
);
},
{
closed = 1;
nodes = (
"415 0 LINE",
"297 254 LINE",
"393 432 LINE",
"256 482 LINE",
"165 294 LINE",
"114 294 LINE",
"114 182 LINE",
"165 182 LINE",
"245 0 LINE"
);
}
);
width = 405;
},
{
anchors = (
{
name = bottom;
position = "{186, 0}";
},
{
name = top;
position = "{169, 630}";
}
);
layerId = "B8E7A328-E4C9-4125-8050-BD17141FCA48";
paths = (
{
closed = 1;
nodes = (
"90 0 LINE",
"90 630 LINE",
"70 630 LINE",
"70 0 LINE"
);
},
{
closed = 1;
nodes = (
"334 0 LINE",
"155 243 LINE",
"301 473 LINE",
"281 482 LINE",
"136 250 LINE",
"80 250 LINE",
"80 234 LINE",
"136 234 LINE",
"310 0 LINE"
);
}
);
width = 332;
}
);
leftKerningGroup = b;
leftMetricsKey = b;
note = k;
rightKerningGroup = k;
unicode = 006B;
},
{
glyphname = kgreenlandic;
lastChange = "2021-12-15 23:40:28 +0000";
layers = (
{
background = {
paths = (
{
closed = 1;
nodes = (
"420 0 LINE",
"302 254 LINE",
"418 470 LINE",
"255 470 LINE",
"144 240 LINE",
"250 0 LINE"
);
},
{
closed = 1;
nodes = (
"30 0 LINE",
"180 0 LINE",
"180 525 LINE",
"30 525 LINE"
);
},
{
closed = 1;
nodes = (
"119 294 LINE",
"180 294 LINE",
"180 182 LINE",
"119 182 LINE"
);
}
);
};
layerId = "D686CB0C-BBDB-4E69-8E5A-045D5C85CA47";
paths = (
{
closed = 1;
nodes = (
"180 0 LINE",
"180 525 LINE",
"30 525 LINE",
"30 0 LINE"
);
},
{
closed = 1;
nodes = (
"180 182 LINE",
"180 294 LINE",
"119 294 LINE",
"119 182 LINE"
);
},
{
closed = 1;
nodes = (
"420 0 LINE",
"302 254 LINE",
"418 470 LINE",
"255 470 LINE",
"144 240 LINE",
"250 0 LINE"
);
}
);
width = 435;
},
{
layerId = "B8E7A328-E4C9-4125-8050-BD17141FCA48";
paths = (
{
closed = 1;
nodes = (
"60 0 LINE",
"60 555 LINE",
"40 555 LINE",
"40 0 LINE"
);
},
{
closed = 1;
nodes = (
"111 234 LINE",
"111 250 LINE",
"50 250 LINE",
"50 234 LINE"
);
},
{
closed = 1;
nodes = (
"304 0 LINE",
"124 243 LINE",
"269 470 LINE",
"244 470 LINE",
"101 242 LINE",
"280 0 LINE"
);
}
);
width = 323;
}
);
leftKerningGroup = b;
rightKerningGroup = k;
unicode = 0138;
},
{
glyphname = l;
lastChange = "2021-12-16 00:11:04 +0000";
layers = (
{
anchors = (
{
name = bottom;
position = "{100, 0}";
},
{
name = center;
position = "{100, 315}";
},
{
name = top;
position = "{100, 630}";
},
{
name = topright;
position = "{200, 643}";
}
);
background = {
paths = (
{
closed = 1;
nodes = (
"25 0 LINE",
"175 0 LINE",
"175 620 LINE",
"25 620 LINE"
);
}
);
};
layerId = "D686CB0C-BBDB-4E69-8E5A-045D5C85CA47";
paths = (
{
closed = 1;
nodes = (
"25 0 LINE",
"175 0 LINE",
"175 620 LINE",
"25 620 LINE"
);
}
);
width = 200;
},
{
anchors = (
{
name = bottom;
position = "{80, 0}";
},
{
name = center;
position = "{80, 315}";
},
{
name = top;
position = "{80, 630}";
},
{
name = topright;
position = "{128, 649}";
}
);
layerId = "B8E7A328-E4C9-4125-8050-BD17141FCA48";
paths = (
{
closed = 1;
nodes = (
"70 0 LINE",
"90 0 LINE",
"90 630 LINE",
"70 630 LINE"
);
}
);
width = 160;
}
);
leftKerningGroup = b;
leftMetricsKey = b;
note = l;
rightKerningGroup = d;
rightMetricsKey = d;
unicode = 006C;
},
{
glyphname = lslash;
lastChange = "2021-12-15 23:40:28 +0000";
layers = (
{
anchors = (
{
name = bottom;
position = "{141, 0}";
},
{
name = center;
position = "{141, 315}";
},
{
name = top;
position = "{141, 630}";
},
{
name = topright;
position = "{241, 643}";
}
);
background = {
components = (
{
alignment = -1;
name = l;
transform = "{1, 0, 0, 1, 41, 0}";
},
{
name = hyphen;
transform = "{0.73111, 0.1959, -0.25882, 0.96593, 65, -79}";
}
);
};
layerId = "D686CB0C-BBDB-4E69-8E5A-045D5C85CA47";
paths = (
{
closed = 1;
nodes = (
"66 0 LINE",
"216 0 LINE",
"216 620 LINE",
"66 620 LINE"
);
},
{
closed = 1;
nodes = (
"295 237 LINE",
"264 353 LINE",
"0 282 LINE",
"31 166 LINE"
);
}
);
width = 295;
},
{
anchors = (
{
name = bottom;
position = "{109, 0}";
},
{
name = center;
position = "{109, 315}";
},
{
name = top;
position = "{109, 630}";
},
{
name = topright;
position = "{158, 649}";
}
);
layerId = "B8E7A328-E4C9-4125-8050-BD17141FCA48";
paths = (
{
closed = 1;
nodes = (
"99 0 LINE",
"119 0 LINE",
"119 630 LINE",
"99 630 LINE"
);
},
{
closed = 1;
nodes = (
"211 264 LINE",
"206 280 LINE",
"37 235 LINE",
"42 219 LINE"
);
}
);
width = 247;
}
);
leftKerningGroup = b;
unicode = 0142;
},
{
glyphname = m;
lastChange = "2021-12-16 00:10:31 +0000";
layers = (
{
background = {
paths = (
{
closed = 1;
nodes = (
"25 0 LINE",
"175 0 LINE",
"175 326 LINE SMOOTH",
"175 349 OFFCURVE",
"183 358 OFFCURVE",
"200 358 CURVE SMOOTH",
"223 358 OFFCURVE",
"223 343 OFFCURVE",
"223 319 CURVE SMOOTH",
"223 0 LINE",
"373 0 LINE",
"373 377 LINE SMOOTH",
"373 421 OFFCURVE",
"358 478 OFFCURVE",
"270 478 CURVE SMOOTH",
"221 478 OFFCURVE",
"181 459 OFFCURVE",
"162 421 CURVE",
"148 470 LINE",
"25 470 LINE"
);
},
{
closed = 1;
nodes = (
"571 0 LINE",
"571 377 LINE SMOOTH",
"571 421 OFFCURVE",
"556 478 OFFCURVE",
"468 478 CURVE SMOOTH",
"419 478 OFFCURVE",
"357 464 OFFCURVE",
"339 358 CURVE",
"339 335 LINE SMOOTH",
"339 331 OFFCURVE",
"369 310 OFFCURVE",
"373 315 CURVE",
"373 349 OFFCURVE",
"381 358 OFFCURVE",
"398 358 CURVE SMOOTH",
"421 358 OFFCURVE",
"421 343 OFFCURVE",
"421 320 CURVE SMOOTH",
"421 0 LINE"
);
}
);
};
layerId = "D686CB0C-BBDB-4E69-8E5A-045D5C85CA47";
paths = (
{
closed = 1;
nodes = (
"175 0 LINE",
"175 326 LINE SMOOTH",
"175 349 OFFCURVE",
"183 358 OFFCURVE",
"199 358 CURVE SMOOTH",
"219 358 OFFCURVE",
"223 349 OFFCURVE",
"223 326 CURVE SMOOTH",
"223 0 LINE",
"373 0 LINE",
"373 320 LINE SMOOTH",
"373 349 OFFCURVE",
"381 358 OFFCURVE",
"398 358 CURVE SMOOTH",
"416 358 OFFCURVE",
"421 349 OFFCURVE",
"421 320 CURVE SMOOTH",
"421 0 LINE",
"571 0 LINE",
"571 377 LINE SMOOTH",
"571 421 OFFCURVE",
"556 478 OFFCURVE",
"468 478 CURVE SMOOTH",
"420 478 OFFCURVE",
"359 465 OFFCURVE",
"341 364 CURVE",
"372 393 LINE",
"369 435 OFFCURVE",
"347 478 OFFCURVE",
"270 478 CURVE SMOOTH",
"221 478 OFFCURVE",
"181 459 OFFCURVE",
"162 421 CURVE",
"148 470 LINE",
"25 470 LINE",
"25 0 LINE"
);
}
);
width = 593;
},
{
layerId = "B8E7A328-E4C9-4125-8050-BD17141FCA48";
paths = (
{
closed = 1;
nodes = (
"90 0 LINE",
"90 403 LINE",
"111 434 OFFCURVE",
"141 460 OFFCURVE",
"200 460 CURVE SMOOTH",
"265 460 OFFCURVE",
"311 433 OFFCURVE",
"311 369 CURVE SMOOTH",
"311 0 LINE",
"331 0 LINE",
"331 370 LINE SMOOTH",
"331 432 OFFCURVE",
"382 460 OFFCURVE",
"442 460 CURVE SMOOTH",
"506 460 OFFCURVE",
"552 433 OFFCURVE",
"552 369 CURVE SMOOTH",
"552 0 LINE",
"572 0 LINE",
"572 374 LINE SMOOTH",
"572 418 OFFCURVE",
"554 477 OFFCURVE",
"447 477 CURVE SMOOTH",
"393 477 OFFCURVE",
"332 453 OFFCURVE",
"323 400 CURVE",
"329 403 LINE",
"320 441 OFFCURVE",
"288 477 OFFCURVE",
"205 477 CURVE SMOOTH",
"146 477 OFFCURVE",
"111 456 OFFCURVE",
"88 423 CURVE",
"85 472 LINE",
"70 472 LINE",
"70 0 LINE"
);
}
);
width = 636;
}
);
leftKerningGroup = n;
leftMetricsKey = n;
note = m;
rightKerningGroup = n;
rightMetricsKey = n;
unicode = 006D;
},
{
glyphname = n;
lastChange = "2021-12-16 00:10:06 +0000";
layers = (
{
anchors = (
{
name = bottom;
position = "{198, 0}";
},
{
name = top;
position = "{198, 470}";
}
);
background = {
paths = (
{
closed = 1;
nodes = (
"25 0 LINE",
"175 0 LINE",
"175 326 LINE SMOOTH",
"175 349 OFFCURVE",
"183 358 OFFCURVE",
"200 358 CURVE SMOOTH",
"223 358 OFFCURVE",
"223 343 OFFCURVE",
"223 319 CURVE SMOOTH",
"223 0 LINE",
"373 0 LINE",
"373 377 LINE SMOOTH",
"373 421 OFFCURVE",
"358 478 OFFCURVE",
"270 478 CURVE SMOOTH",
"221 478 OFFCURVE",
"181 459 OFFCURVE",
"162 421 CURVE",
"148 470 LINE",
"25 470 LINE"
);
}
);
};
layerId = "D686CB0C-BBDB-4E69-8E5A-045D5C85CA47";
paths = (
{
closed = 1;
nodes = (
"25 0 LINE",
"175 0 LINE",
"175 326 LINE SMOOTH",
"175 349 OFFCURVE",
"183 358 OFFCURVE",
"200 358 CURVE SMOOTH",
"223 358 OFFCURVE",
"223 343 OFFCURVE",
"223 319 CURVE SMOOTH",
"223 0 LINE",
"373 0 LINE",
"373 377 LINE SMOOTH",
"373 421 OFFCURVE",
"358 478 OFFCURVE",
"270 478 CURVE SMOOTH",
"221 478 OFFCURVE",
"181 459 OFFCURVE",
"162 421 CURVE",
"148 470 LINE",
"25 470 LINE"
);
}
);
width = 395;
},
{
anchors = (
{
name = bottom;
position = "{198, 0}";
},
{
name = top;
position = "{199, 470}";
}
);
layerId = "B8E7A328-E4C9-4125-8050-BD17141FCA48";
paths = (
{
closed = 1;
nodes = (
"70 0 LINE",
"90 0 LINE",
"90 403 LINE",
"111 434 OFFCURVE",
"141 460 OFFCURVE",
"200 460 CURVE SMOOTH",
"266 460 OFFCURVE",
"311 433 OFFCURVE",
"311 368 CURVE SMOOTH",
"311 0 LINE",
"331 0 LINE",
"331 374 LINE SMOOTH",
"331 418 OFFCURVE",
"313 477 OFFCURVE",
"205 477 CURVE SMOOTH",
"146 477 OFFCURVE",
"111 456 OFFCURVE",
"88 423 CURVE",
"85 472 LINE",
"70 472 LINE"
);
}
);
width = 395;
}
);
leftKerningGroup = n;
note = n;
rightKerningGroup = n;
unicode = 006E;
},
{
glyphname = eng;
lastChange = "2021-12-15 23:40:28 +0000";
layers = (
{
background = {
paths = (
{
closed = 1;
nodes = (
"30 0 LINE",
"180 0 LINE",
"180 326 LINE SMOOTH",
"180 349 OFFCURVE",
"188 358 OFFCURVE",
"205 358 CURVE SMOOTH",
"228 358 OFFCURVE",
"228 343 OFFCURVE",
"228 319 CURVE SMOOTH",
"228 0 LINE",
"378 0 LINE",
"378 377 LINE SMOOTH",
"378 421 OFFCURVE",
"363 478 OFFCURVE",
"275 478 CURVE SMOOTH",
"226 478 OFFCURVE",
"186 459 OFFCURVE",
"167 421 CURVE",
"153 470 LINE",
"30 470 LINE"
);
},
{
closed = 1;
nodes = (
"257 -211 LINE SMOOTH",
"347 -211 OFFCURVE",
"378 -162 OFFCURVE",
"378 -84 CURVE SMOOTH",
"378 185 LINE",
"228 185 LINE",
"228 -43 LINE SMOOTH",
"228 -82 OFFCURVE",
"220 -91 OFFCURVE",
"189 -91 CURVE SMOOTH",
"88 -91 LINE",
"106 -211 LINE"
);
}
);
};
layerId = "D686CB0C-BBDB-4E69-8E5A-045D5C85CA47";
paths = (
{
closed = 1;
nodes = (
"30 0 LINE",
"180 0 LINE",
"180 326 LINE SMOOTH",
"180 349 OFFCURVE",
"188 358 OFFCURVE",
"205 358 CURVE SMOOTH",
"228 358 OFFCURVE",
"228 343 OFFCURVE",
"228 319 CURVE SMOOTH",
"228 0 LINE",
"378 0 LINE",
"378 377 LINE SMOOTH",
"378 421 OFFCURVE",
"363 478 OFFCURVE",
"275 478 CURVE SMOOTH",
"226 478 OFFCURVE",
"186 459 OFFCURVE",
"167 421 CURVE",
"153 470 LINE",
"30 470 LINE"
);
},
{
closed = 1;
nodes = (
"257 -211 LINE SMOOTH",
"347 -211 OFFCURVE",
"378 -162 OFFCURVE",
"378 -84 CURVE SMOOTH",
"378 185 LINE",
"228 185 LINE",
"228 -43 LINE SMOOTH",
"228 -82 OFFCURVE",
"220 -91 OFFCURVE",
"189 -91 CURVE SMOOTH",
"88 -91 LINE",
"106 -211 LINE"
);
}
);
width = 408;
},
{
layerId = "B8E7A328-E4C9-4125-8050-BD17141FCA48";
paths = (
{
closed = 1;
nodes = (
"40 0 LINE",
"60 0 LINE",
"60 402 LINE",
"81 432 OFFCURVE",
"111 458 OFFCURVE",
"170 458 CURVE SMOOTH",
"236 458 OFFCURVE",
"281 431 OFFCURVE",
"281 367 CURVE SMOOTH",
"281 0 LINE",
"301 0 LINE",
"301 372 LINE SMOOTH",
"301 416 OFFCURVE",
"282 475 OFFCURVE",
"175 475 CURVE SMOOTH",
"115 475 OFFCURVE",
"81 454 OFFCURVE",
"58 421 CURVE",
"56 470 LINE",
"40 470 LINE"
);
},
{
closed = 1;
nodes = (
"235 -173 LINE SMOOTH",
"286 -173 OFFCURVE",
"301 -152 OFFCURVE",
"301 -95 CURVE SMOOTH",
"301 267 LINE",
"281 267 LINE",
"281 -92 LINE SMOOTH",
"281 -136 OFFCURVE",
"273 -156 OFFCURVE",
"234 -156 CURVE SMOOTH",
"166 -156 LINE",
"170 -173 LINE"
);
}
);
width = 587;
}
);
leftKerningGroup = n;
rightKerningGroup = n;
unicode = 014B;
},
{
glyphname = o;
lastChange = "2021-12-16 00:10:24 +0000";
layers = (
{
anchors = (
{
name = bottom;
position = "{193, 0}";
},
{
name = center;
position = "{193, 235}";
},
{
name = ogonek;
position = "{347, 10}";
},
{
name = top;
position = "{193, 470}";
},
{
name = topright;
position = "{241, 470}";
}
);
background = {
paths = (
{
closed = 1;
nodes = (
"320 -5 OFFCURVE",
"367 43 OFFCURVE",
"367 118 CURVE SMOOTH",
"367 353 LINE SMOOTH",
"367 428 OFFCURVE",
"320 476 OFFCURVE",
"194 476 CURVE SMOOTH",
"49 476 OFFCURVE",
"19 424 OFFCURVE",
"19 351 CURVE SMOOTH",
"19 120 LINE SMOOTH",
"19 47 OFFCURVE",
"49 -5 OFFCURVE",
"194 -5 CURVE SMOOTH"
);
},
{
closed = 1;
nodes = (
"169 117 OFFCURVE",
"169 138 OFFCURVE",
"169 150 CURVE SMOOTH",
"169 325 LINE SMOOTH",
"169 336 OFFCURVE",
"169 361 OFFCURVE",
"193 361 CURVE SMOOTH",
"217 361 OFFCURVE",
"217 336 OFFCURVE",
"217 325 CURVE SMOOTH",
"217 150 LINE SMOOTH",
"217 138 OFFCURVE",
"217 117 OFFCURVE",
"193 117 CURVE SMOOTH"
);
}
);
};
layerId = "D686CB0C-BBDB-4E69-8E5A-045D5C85CA47";
paths = (
{
closed = 1;
nodes = (
"320 -5 OFFCURVE",
"367 43 OFFCURVE",
"367 118 CURVE SMOOTH",
"367 353 LINE SMOOTH",
"367 428 OFFCURVE",
"320 476 OFFCURVE",
"194 476 CURVE SMOOTH",
"49 476 OFFCURVE",
"19 424 OFFCURVE",
"19 351 CURVE SMOOTH",
"19 120 LINE SMOOTH",
"19 47 OFFCURVE",
"49 -5 OFFCURVE",
"194 -5 CURVE SMOOTH"
);
},
{
closed = 1;
nodes = (
"169 117 OFFCURVE",
"169 138 OFFCURVE",
"169 150 CURVE SMOOTH",
"169 325 LINE SMOOTH",
"169 336 OFFCURVE",
"169 361 OFFCURVE",
"193 361 CURVE SMOOTH",
"217 361 OFFCURVE",
"217 336 OFFCURVE",
"217 325 CURVE SMOOTH",
"217 150 LINE SMOOTH",
"217 138 OFFCURVE",
"217 117 OFFCURVE",
"193 117 CURVE SMOOTH"
);
}
);
width = 386;
},
{
anchors = (
{
name = bottom;
position = "{191, 0}";
},
{
name = center;
position = "{191, 235}";
},
{
name = ogonek;
position = "{334, 10}";
},
{
name = top;
position = "{191, 470}";
},
{
name = topright;
position = "{221, 470}";
}
);
layerId = "B8E7A328-E4C9-4125-8050-BD17141FCA48";
paths = (
{
closed = 1;
nodes = (
"300 -4 OFFCURVE",
"322 53 OFFCURVE",
"322 114 CURVE SMOOTH",
"322 373 LINE SMOOTH",
"322 418 OFFCURVE",
"300 475 OFFCURVE",
"191 475 CURVE SMOOTH",
"79 475 OFFCURVE",
"60 418 OFFCURVE",
"60 373 CURVE SMOOTH",
"60 98 LINE SMOOTH",
"60 53 OFFCURVE",
"79 -4 OFFCURVE",
"182 -4 CURVE SMOOTH"
);
},
{
closed = 1;
nodes = (
"127 13 OFFCURVE",
"80 38 OFFCURVE",
"80 101 CURVE SMOOTH",
"80 370 LINE SMOOTH",
"80 434 OFFCURVE",
"127 459 OFFCURVE",
"191 459 CURVE SMOOTH",
"256 459 OFFCURVE",
"302 433 OFFCURVE",
"302 370 CURVE SMOOTH",
"302 110 LINE SMOOTH",
"302 39 OFFCURVE",
"256 13 OFFCURVE",
"182 13 CURVE SMOOTH"
);
}
);
width = 382;
}
);
leftKerningGroup = o;
note = o;
rightKerningGroup = o;
unicode = 006F;
},
{
glyphname = oslash;
lastChange = "2021-12-15 23:40:28 +0000";
layers = (
{
anchors = (
{
name = top;
position = "{192, 470}";
}
);
background = {
paths = (
{
closed = 1;
nodes = (
"346 562 LINE",
"311 569 LINE",
"44 -76 LINE",
"78 -84 LINE"
);
},
{
closed = 1;
nodes = (
"319 -5 OFFCURVE",
"366 43 OFFCURVE",
"366 118 CURVE SMOOTH",
"366 353 LINE SMOOTH",
"366 428 OFFCURVE",
"319 476 OFFCURVE",
"193 476 CURVE SMOOTH",
"48 476 OFFCURVE",
"18 424 OFFCURVE",
"18 351 CURVE SMOOTH",
"18 120 LINE SMOOTH",
"18 47 OFFCURVE",
"48 -5 OFFCURVE",
"193 -5 CURVE SMOOTH"
);
},
{
closed = 1;
nodes = (
"168 117 OFFCURVE",
"168 138 OFFCURVE",
"168 150 CURVE SMOOTH",
"168 325 LINE SMOOTH",
"168 336 OFFCURVE",
"168 361 OFFCURVE",
"192 361 CURVE SMOOTH",
"216 361 OFFCURVE",
"216 336 OFFCURVE",
"216 325 CURVE SMOOTH",
"216 150 LINE SMOOTH",
"216 138 OFFCURVE",
"216 117 OFFCURVE",
"192 117 CURVE SMOOTH"
);
}
);
};
layerId = "D686CB0C-BBDB-4E69-8E5A-045D5C85CA47";
paths = (
{
closed = 1;
nodes = (
"319 -5 OFFCURVE",
"366 43 OFFCURVE",
"366 118 CURVE SMOOTH",
"366 353 LINE SMOOTH",
"366 428 OFFCURVE",
"319 476 OFFCURVE",
"193 476 CURVE SMOOTH",
"48 476 OFFCURVE",
"18 424 OFFCURVE",
"18 351 CURVE SMOOTH",
"18 120 LINE SMOOTH",
"18 47 OFFCURVE",
"48 -5 OFFCURVE",
"193 -5 CURVE SMOOTH"
);
},
{
closed = 1;
nodes = (
"168 117 OFFCURVE",
"168 138 OFFCURVE",
"168 150 CURVE SMOOTH",
"168 325 LINE SMOOTH",
"168 336 OFFCURVE",
"168 361 OFFCURVE",
"192 361 CURVE SMOOTH",
"216 361 OFFCURVE",
"216 336 OFFCURVE",
"216 325 CURVE SMOOTH",
"216 150 LINE SMOOTH",
"216 138 OFFCURVE",
"216 117 OFFCURVE",
"192 117 CURVE SMOOTH"
);
},
{
closed = 1;
nodes = (
"358 562 LINE",
"323 569 LINE",
"56 -76 LINE",
"90 -84 LINE"
);
}
);
width = 384;
},
{
anchors = (
{
name = top;
position = "{175, 470}";
}
);
layerId = "B8E7A328-E4C9-4125-8050-BD17141FCA48";
paths = (
{
closed = 1;
nodes = (
"284 -4 OFFCURVE",
"305 53 OFFCURVE",
"305 114 CURVE SMOOTH",
"305 371 LINE SMOOTH",
"305 417 OFFCURVE",
"284 473 OFFCURVE",
"175 473 CURVE SMOOTH",
"63 473 OFFCURVE",
"43 416 OFFCURVE",
"43 371 CURVE SMOOTH",
"43 98 LINE SMOOTH",
"43 53 OFFCURVE",
"63 -4 OFFCURVE",
"165 -4 CURVE SMOOTH"
);
},
{
closed = 1;
nodes = (
"111 13 OFFCURVE",
"63 38 OFFCURVE",
"63 101 CURVE SMOOTH",
"63 368 LINE SMOOTH",
"63 432 OFFCURVE",
"111 457 OFFCURVE",
"175 457 CURVE SMOOTH",
"239 457 OFFCURVE",
"285 431 OFFCURVE",
"285 368 CURVE SMOOTH",
"285 110 LINE SMOOTH",
"285 39 OFFCURVE",
"239 13 OFFCURVE",
"165 13 CURVE SMOOTH"
);
},
{
closed = 1;
nodes = (
"345 573 LINE",
"333 573 LINE",
"-2 -99 LINE",
"9 -100 LINE"
);
}
);
width = 346;
}
);
leftKerningGroup = o;
rightKerningGroup = o;
unicode = 00F8;
},
{
glyphname = thorn;
lastChange = "2021-12-15 23:40:28 +0000";
layers = (
{
background = {
paths = (
{
closed = 1;
nodes = (
"165 -157 LINE",
"165 0 LINE",
"240 0 LINE SMOOTH",
"332 0 OFFCURVE",
"363 49 OFFCURVE",
"363 127 CURVE SMOOTH",
"363 325 LINE SMOOTH",
"363 433 OFFCURVE",
"363 470 OFFCURVE",
"260 470 CURVE SMOOTH",
"160 470 LINE",
"160 620 LINE",
"15 620 LINE",
"15 -157 LINE"
);
},
{
closed = 1;
nodes = (
"165 350 LINE",
"184 350 LINE SMOOTH",
"205 350 OFFCURVE",
"213 349 OFFCURVE",
"213 315 CURVE SMOOTH",
"213 148 LINE SMOOTH",
"213 129 OFFCURVE",
"205 120 OFFCURVE",
"189 120 CURVE SMOOTH",
"165 120 LINE"
);
}
);
};
layerId = "D686CB0C-BBDB-4E69-8E5A-045D5C85CA47";
paths = (
{
closed = 1;
nodes = (
"165 -157 LINE",
"165 0 LINE",
"240 0 LINE SMOOTH",
"332 0 OFFCURVE",
"363 49 OFFCURVE",
"363 127 CURVE SMOOTH",
"363 325 LINE SMOOTH",
"363 433 OFFCURVE",
"363 470 OFFCURVE",
"260 470 CURVE SMOOTH",
"160 470 LINE",
"160 620 LINE",
"15 620 LINE",
"15 -157 LINE"
);
},
{
closed = 1;
nodes = (
"165 350 LINE",
"184 350 LINE SMOOTH",
"205 350 OFFCURVE",
"213 349 OFFCURVE",
"213 315 CURVE SMOOTH",
"213 148 LINE SMOOTH",
"213 129 OFFCURVE",
"205 120 OFFCURVE",
"189 120 CURVE SMOOTH",
"165 120 LINE"
);
}
);
width = 378;
},
{
layerId = "B8E7A328-E4C9-4125-8050-BD17141FCA48";
paths = (
{
closed = 1;
nodes = (
"63 -157 LINE",
"63 0 LINE",
"202 0 LINE SMOOTH",
"291 0 OFFCURVE",
"305 5 OFFCURVE",
"305 83 CURVE SMOOTH",
"305 343 LINE SMOOTH",
"305 451 OFFCURVE",
"305 470 OFFCURVE",
"235 470 CURVE SMOOTH",
"63 470 LINE",
"63 611 LINE",
"43 611 LINE",
"43 -157 LINE"
);
},
{
closed = 1;
nodes = (
"63 453 LINE",
"231 453 LINE SMOOTH",
"281 453 OFFCURVE",
"285 437 OFFCURVE",
"285 367 CURVE SMOOTH",
"285 108 LINE SMOOTH",
"285 39 OFFCURVE",
"289 17 OFFCURVE",
"222 17 CURVE SMOOTH",
"63 17 LINE"
);
}
);
width = 343;
}
);
leftKerningGroup = b;
unicode = 00FE;
},
{
glyphname = r;
lastChange = "2021-12-16 00:13:28 +0000";
layers = (
{
anchors = (
{
name = bottom;
position = "{97, 0}";
},
{
name = top;
position = "{180, 470}";
}
);
background = {
paths = (
{
closed = 1;
nodes = (
"175 0 LINE",
"175 301 LINE SMOOTH",
"175 349 OFFCURVE",
"206 366 OFFCURVE",
"237 366 CURVE SMOOTH",
"273 366 OFFCURVE",
"309 350 OFFCURVE",
"323 339 CURVE",
"327 459 LINE",
"317 465 OFFCURVE",
"295 478 OFFCURVE",
"251 478 CURVE SMOOTH",
"221 478 OFFCURVE",
"181 459 OFFCURVE",
"162 421 CURVE",
"148 470 LINE",
"25 470 LINE",
"25 0 LINE"
);
},
{
closed = 1;
nodes = (
"175 0 LINE",
"175 301 LINE SMOOTH",
"175 349 OFFCURVE",
"206 366 OFFCURVE",
"237 366 CURVE SMOOTH",
"273 366 OFFCURVE",
"309 350 OFFCURVE",
"323 339 CURVE",
"327 459 LINE",
"317 465 OFFCURVE",
"295 478 OFFCURVE",
"251 478 CURVE SMOOTH",
"221 478 OFFCURVE",
"181 459 OFFCURVE",
"162 421 CURVE",
"148 470 LINE",
"25 470 LINE",
"25 0 LINE"
);
}
);
};
layerId = "D686CB0C-BBDB-4E69-8E5A-045D5C85CA47";
paths = (
{
closed = 1;
nodes = (
"175 0 LINE",
"175 281 LINE SMOOTH",
"175 329 OFFCURVE",
"206 346 OFFCURVE",
"237 346 CURVE SMOOTH",
"269 346 OFFCURVE",
"296 342 OFFCURVE",
"310 339 CURVE",
"317 469 LINE",
"307 475 OFFCURVE",
"289 478 OFFCURVE",
"251 478 CURVE SMOOTH",
"221 478 OFFCURVE",
"181 459 OFFCURVE",
"162 421 CURVE",
"148 470 LINE",
"25 470 LINE",
"25 0 LINE"
);
}
);
width = 322;
},
{
anchors = (
{
name = bottom;
position = "{79, 0}";
},
{
name = top;
position = "{160, 470}";
}
);
layerId = "B8E7A328-E4C9-4125-8050-BD17141FCA48";
paths = (
{
closed = 1;
nodes = (
"90 0 LINE",
"90 398 LINE",
"111 431 OFFCURVE",
"142 458 OFFCURVE",
"189 458 CURVE SMOOTH",
"215 458 OFFCURVE",
"229 454 OFFCURVE",
"247 445 CURVE",
"248 464 LINE",
"232 471 OFFCURVE",
"218 475 OFFCURVE",
"189 475 CURVE SMOOTH",
"146 475 OFFCURVE",
"111 454 OFFCURVE",
"88 421 CURVE",
"85 470 LINE",
"70 470 LINE",
"70 0 LINE"
);
}
);
width = 260;
}
);
leftKerningGroup = n;
leftMetricsKey = n;
note = r;
rightKerningGroup = r;
unicode = 0072;
},
{
glyphname = s;
lastChange = "2021-12-16 00:13:46 +0000";
layers = (
{
anchors = (
{
name = bottom;
position = "{169, 0}";
},
{
name = top;
position = "{169, 470}";
}
);
background = {
paths = (
{
closed = 1;
nodes = (
"284 -6 OFFCURVE",
"320 33 OFFCURVE",
"320 120 CURVE SMOOTH",
"320 140 LINE SMOOTH",
"320 176 OFFCURVE",
"316 221 OFFCURVE",
"259 250 CURVE SMOOTH",
"199 281 OFFCURVE",
"174 297 OFFCURVE",
"167 303 CURVE SMOOTH",
"155 313 OFFCURVE",
"153 321 OFFCURVE",
"153 356 CURVE SMOOTH",
"153 369 OFFCURVE",
"157 377 OFFCURVE",
"168 377 CURVE SMOOTH",
"181 377 OFFCURVE",
"184 369 OFFCURVE",
"184 356 CURVE SMOOTH",
"184 305 LINE",
"320 323 LINE",
"320 370 LINE SMOOTH",
"320 445 OFFCURVE",
"278 476 OFFCURVE",
"172 476 CURVE SMOOTH",
"65 476 OFFCURVE",
"18 441 OFFCURVE",
"18 357 CURVE SMOOTH",
"18 333 LINE SMOOTH",
"18 298 OFFCURVE",
"24 266 OFFCURVE",
"93 227 CURVE SMOOTH",
"165 186 LINE SMOOTH",
"187 174 OFFCURVE",
"183 158 OFFCURVE",
"183 114 CURVE SMOOTH",
"183 101 OFFCURVE",
"179 93 OFFCURVE",
"168 93 CURVE SMOOTH",
"154 93 OFFCURVE",
"152 101 OFFCURVE",
"152 114 CURVE SMOOTH",
"152 182 LINE",
"18 165 LINE",
"18 106 LINE SMOOTH",
"18 35 OFFCURVE",
"60 -6 OFFCURVE",
"164 -6 CURVE SMOOTH"
);
}
);
};
layerId = "D686CB0C-BBDB-4E69-8E5A-045D5C85CA47";
paths = (
{
closed = 1;
nodes = (
"284 -6 OFFCURVE",
"320 33 OFFCURVE",
"320 120 CURVE SMOOTH",
"320 140 LINE SMOOTH",
"320 198 OFFCURVE",
"301 229 OFFCURVE",
"259 250 CURVE SMOOTH",
"199 281 OFFCURVE",
"174 297 OFFCURVE",
"167 303 CURVE SMOOTH",
"155 313 OFFCURVE",
"153 321 OFFCURVE",
"153 356 CURVE SMOOTH",
"153 369 OFFCURVE",
"157 377 OFFCURVE",
"168 377 CURVE SMOOTH",
"181 377 OFFCURVE",
"184 369 OFFCURVE",
"184 356 CURVE SMOOTH",
"184 305 LINE",
"320 323 LINE",
"320 370 LINE SMOOTH",
"320 445 OFFCURVE",
"278 476 OFFCURVE",
"172 476 CURVE SMOOTH",
"65 476 OFFCURVE",
"18 441 OFFCURVE",
"18 357 CURVE SMOOTH",
"18 333 LINE SMOOTH",
"18 298 OFFCURVE",
"24 266 OFFCURVE",
"93 227 CURVE SMOOTH",
"117 213 OFFCURVE",
"141 200 OFFCURVE",
"165 186 CURVE SMOOTH",
"187 174 OFFCURVE",
"183 158 OFFCURVE",
"183 114 CURVE SMOOTH",
"183 101 OFFCURVE",
"179 93 OFFCURVE",
"168 93 CURVE SMOOTH",
"154 93 OFFCURVE",
"152 101 OFFCURVE",
"152 114 CURVE SMOOTH",
"152 182 LINE",
"18 165 LINE",
"18 106 LINE SMOOTH",
"18 35 OFFCURVE",
"60 -6 OFFCURVE",
"164 -6 CURVE SMOOTH"
);
}
);
width = 338;
},
{
anchors = (
{
name = bottom;
position = "{183, 0}";
},
{
name = top;
position = "{185, 470}";
}
);
layerId = "B8E7A328-E4C9-4125-8050-BD17141FCA48";
paths = (
{
closed = 1;
nodes = (
"280 -6 OFFCURVE",
"312 33 OFFCURVE",
"312 107 CURVE SMOOTH",
"312 113 LINE SMOOTH",
"312 177 OFFCURVE",
"294 200 OFFCURVE",
"230 232 CURVE SMOOTH",
"208 243 OFFCURVE",
"137 274 OFFCURVE",
"123 282 CURVE SMOOTH",
"83 301 OFFCURVE",
"72 315 OFFCURVE",
"72 364 CURVE SMOOTH",
"72 402 OFFCURVE",
"80 459 OFFCURVE",
"184 459 CURVE SMOOTH",
"253 459 OFFCURVE",
"293 440 OFFCURVE",
"293 367 CURVE SMOOTH",
"293 289 LINE",
"312 292 LINE",
"312 369 LINE SMOOTH",
"312 444 OFFCURVE",
"276 475 OFFCURVE",
"185 475 CURVE SMOOTH",
"93 475 OFFCURVE",
"53 440 OFFCURVE",
"53 368 CURVE SMOOTH",
"53 359 LINE SMOOTH",
"53 308 OFFCURVE",
"69 291 OFFCURVE",
"113 269 CURVE SMOOTH",
"125 262 OFFCURVE",
"203 227 OFFCURVE",
"220 218 CURVE SMOOTH",
"275 190 OFFCURVE",
"293 168 OFFCURVE",
"293 106 CURVE SMOOTH",
"293 26 OFFCURVE",
"249 10 OFFCURVE",
"179 10 CURVE SMOOTH",
"91 10 OFFCURVE",
"72 59 OFFCURVE",
"72 106 CURVE SMOOTH",
"72 181 LINE",
"53 177 LINE",
"53 106 LINE SMOOTH",
"53 35 OFFCURVE",
"88 -6 OFFCURVE",
"179 -6 CURVE SMOOTH"
);
}
);
width = 366;
}
);
leftKerningGroup = s;
note = s;
rightKerningGroup = s;
unicode = 0073;
},
{
glyphname = germandbls;
lastChange = "2021-12-15 23:40:28 +0000";
layers = (
{
background = {
paths = (
{
closed = 1;
nodes = (
"-621 -181 LINE SMOOTH",
"-531 -181 OFFCURVE",
"-500 -132 OFFCURVE",
"-500 -54 CURVE SMOOTH",
"-500 500 LINE SMOOTH",
"-500 542 OFFCURVE",
"-496 548 OFFCURVE",
"-465 548 CURVE SMOOTH",
"-444 548 LINE SMOOTH",
"-419 548 OFFCURVE",
"-411 544 OFFCURVE",
"-409 489 CURVE SMOOTH",
"-409 464 LINE",
"-456 448 OFFCURVE",
"-477 414 OFFCURVE",
"-477 357 CURVE SMOOTH",
"-477 333 LINE SMOOTH",
"-477 298 OFFCURVE",
"-471 266 OFFCURVE",
"-402 227 CURVE SMOOTH",
"-330 186 LINE SMOOTH",
"-308 174 OFFCURVE",
"-312 158 OFFCURVE",
"-312 114 CURVE SMOOTH",
"-312 101 OFFCURVE",
"-316 93 OFFCURVE",
"-327 93 CURVE SMOOTH",
"-341 93 OFFCURVE",
"-343 101 OFFCURVE",
"-343 114 CURVE SMOOTH",
"-343 182 LINE",
"-477 165 LINE",
"-477 106 LINE SMOOTH",
"-477 35 OFFCURVE",
"-435 -6 OFFCURVE",
"-331 -6 CURVE SMOOTH",
"-211 -6 OFFCURVE",
"-175 33 OFFCURVE",
"-175 120 CURVE SMOOTH",
"-175 140 LINE SMOOTH",
"-175 176 OFFCURVE",
"-179 221 OFFCURVE",
"-236 250 CURVE SMOOTH",
"-296 281 OFFCURVE",
"-321 297 OFFCURVE",
"-328 303 CURVE SMOOTH",
"-340 313 OFFCURVE",
"-341 314 OFFCURVE",
"-341 345 CURVE SMOOTH",
"-341 373 OFFCURVE",
"-340 376 OFFCURVE",
"-323 386 CURVE SMOOTH",
"-308 395 OFFCURVE",
"-258 407 OFFCURVE",
"-258 470 CURVE SMOOTH",
"-258 493 LINE SMOOTH",
"-261 610 OFFCURVE",
"-290 627 OFFCURVE",
"-371 627 CURVE SMOOTH",
"-539 627 LINE SMOOTH",
"-625 627 OFFCURVE",
"-651 608 OFFCURVE",
"-651 529 CURVE SMOOTH",
"-651 470 LINE",
"-694 470 LINE",
"-694 392 LINE",
"-651 392 LINE",
"-650 -13 LINE SMOOTH",
"-650 -52 OFFCURVE",
"-658 -61 OFFCURVE",
"-689 -61 CURVE SMOOTH",
"-750 -61 LINE",
"-717 -181 LINE"
);
},
{
closed = 1;
nodes = (
"404 281 OFFCURVE",
"379 297 OFFCURVE",
"372 303 CURVE SMOOTH",
"360 313 OFFCURVE",
"359 314 OFFCURVE",
"359 345 CURVE SMOOTH",
"359 373 OFFCURVE",
"360 376 OFFCURVE",
"377 386 CURVE SMOOTH",
"392 395 OFFCURVE",
"442 407 OFFCURVE",
"442 470 CURVE SMOOTH",
"442 478 OFFCURVE",
"442 486 OFFCURVE",
"442 493 CURVE SMOOTH",
"439 610 OFFCURVE",
"410 627 OFFCURVE",
"329 627 CURVE SMOOTH",
"161 627 LINE SMOOTH",
"75 627 OFFCURVE",
"49 608 OFFCURVE",
"49 529 CURVE SMOOTH",
"49 470 LINE",
"6 470 LINE",
"6 392 LINE",
"49 392 LINE",
"50 -13 LINE SMOOTH",
"50 -52 OFFCURVE",
"42 -61 OFFCURVE",
"11 -61 CURVE SMOOTH",
"-50 -61 LINE",
"-17 -181 LINE",
"79 -181 LINE SMOOTH",
"169 -181 OFFCURVE",
"200 -132 OFFCURVE",
"200 -54 CURVE SMOOTH",
"200 500 LINE SMOOTH",
"200 542 OFFCURVE",
"204 548 OFFCURVE",
"235 548 CURVE SMOOTH",
"256 548 LINE SMOOTH",
"281 548 OFFCURVE",
"289 544 OFFCURVE",
"291 489 CURVE SMOOTH",
"291 482 OFFCURVE",
"291 473 OFFCURVE",
"291 464 CURVE",
"244 448 OFFCURVE",
"223 414 OFFCURVE",
"223 357 CURVE SMOOTH",
"223 333 LINE SMOOTH",
"223 298 OFFCURVE",
"229 266 OFFCURVE",
"298 227 CURVE SMOOTH",
"322 213 OFFCURVE",
"346 200 OFFCURVE",
"370 186 CURVE SMOOTH",
"392 174 OFFCURVE",
"388 158 OFFCURVE",
"388 114 CURVE SMOOTH",
"388 101 OFFCURVE",
"384 93 OFFCURVE",
"373 93 CURVE SMOOTH",
"359 93 OFFCURVE",
"357 101 OFFCURVE",
"357 114 CURVE SMOOTH",
"357 182 LINE",
"223 165 LINE",
"223 106 LINE SMOOTH",
"223 35 OFFCURVE",
"265 -6 OFFCURVE",
"369 -6 CURVE SMOOTH",
"489 -6 OFFCURVE",
"525 33 OFFCURVE",
"525 120 CURVE SMOOTH",
"525 140 LINE SMOOTH",
"525 176 OFFCURVE",
"521 221 OFFCURVE",
"464 250 CURVE SMOOTH"
);
}
);
};
layerId = "D686CB0C-BBDB-4E69-8E5A-045D5C85CA47";
paths = (
{
closed = 1;
nodes = (
"79 -181 LINE SMOOTH",
"169 -181 OFFCURVE",
"200 -132 OFFCURVE",
"200 -54 CURVE SMOOTH",
"200 500 LINE SMOOTH",
"200 542 OFFCURVE",
"204 548 OFFCURVE",
"235 548 CURVE SMOOTH",
"256 548 LINE SMOOTH",
"281 548 OFFCURVE",
"289 544 OFFCURVE",
"290 500 CURVE SMOOTH",
"291 464 LINE",
"236 445 OFFCURVE",
"223 407 OFFCURVE",
"223 345 CURVE SMOOTH",
"223 286 OFFCURVE",
"236 262 OFFCURVE",
"298 227 CURVE SMOOTH",
"322 213 OFFCURVE",
"346 200 OFFCURVE",
"370 186 CURVE SMOOTH",
"392 174 OFFCURVE",
"388 158 OFFCURVE",
"388 114 CURVE SMOOTH",
"388 101 OFFCURVE",
"384 93 OFFCURVE",
"373 93 CURVE SMOOTH",
"362 93 OFFCURVE",
"357 97 OFFCURVE",
"357 114 CURVE SMOOTH",
"357 182 LINE",
"223 165 LINE",
"223 106 LINE SMOOTH",
"223 35 OFFCURVE",
"265 -6 OFFCURVE",
"369 -6 CURVE SMOOTH",
"489 -6 OFFCURVE",
"525 33 OFFCURVE",
"525 120 CURVE SMOOTH",
"525 140 LINE SMOOTH",
"525 184 OFFCURVE",
"516 223 OFFCURVE",
"464 250 CURVE SMOOTH",
"444 260 OFFCURVE",
"414 277 OFFCURVE",
"393 289 CURVE SMOOTH",
"364 307 OFFCURVE",
"359 312 OFFCURVE",
"359 345 CURVE SMOOTH",
"359 371 OFFCURVE",
"362 377 OFFCURVE",
"386 391 CURVE SMOOTH",
"427 415 OFFCURVE",
"442 430 OFFCURVE",
"442 470 CURVE SMOOTH",
"442 493 LINE SMOOTH",
"442 610 OFFCURVE",
"410 627 OFFCURVE",
"329 627 CURVE SMOOTH",
"161 627 LINE SMOOTH",
"75 627 OFFCURVE",
"49 608 OFFCURVE",
"49 529 CURVE SMOOTH",
"49 470 LINE",
"6 470 LINE",
"6 392 LINE",
"49 392 LINE",
"50 -13 LINE SMOOTH",
"50 -52 OFFCURVE",
"42 -61 OFFCURVE",
"11 -61 CURVE SMOOTH",
"-50 -61 LINE",
"-17 -181 LINE"
);
}
);
width = 545;
},
{
layerId = "B8E7A328-E4C9-4125-8050-BD17141FCA48";
paths = (
{
closed = 1;
nodes = (
"30 -170 LINE SMOOTH",
"81 -170 OFFCURVE",
"96 -150 OFFCURVE",
"96 -93 CURVE SMOOTH",
"96 539 LINE SMOOTH",
"96 592 OFFCURVE",
"110 606 OFFCURVE",
"181 606 CURVE SMOOTH",
"189 606 LINE SMOOTH",
"250 606 OFFCURVE",
"271 593 OFFCURVE",
"271 539 CURVE SMOOTH",
"271 480 LINE",
"208 478 OFFCURVE",
"180 437 OFFCURVE",
"180 363 CURVE SMOOTH",
"180 302 OFFCURVE",
"192 280 OFFCURVE",
"232 260 CURVE SMOOTH",
"256 246 OFFCURVE",
"292 228 OFFCURVE",
"308 219 CURVE SMOOTH",
"365 186 OFFCURVE",
"371 168 OFFCURVE",
"371 106 CURVE SMOOTH",
"371 26 OFFCURVE",
"328 10 OFFCURVE",
"257 10 CURVE SMOOTH",
"169 10 OFFCURVE",
"150 59 OFFCURVE",
"150 106 CURVE SMOOTH",
"150 181 LINE",
"131 177 LINE",
"131 106 LINE SMOOTH",
"131 35 OFFCURVE",
"167 -6 OFFCURVE",
"256 -6 CURVE SMOOTH",
"358 -6 OFFCURVE",
"389 33 OFFCURVE",
"389 107 CURVE SMOOTH",
"389 113 LINE SMOOTH",
"389 175 OFFCURVE",
"381 198 OFFCURVE",
"318 232 CURVE SMOOTH",
"302 240 OFFCURVE",
"286 249 OFFCURVE",
"243 273 CURVE SMOOTH",
"205 293 OFFCURVE",
"199 315 OFFCURVE",
"199 363 CURVE SMOOTH",
"199 411 OFFCURVE",
"212 464 OFFCURVE",
"277 466 CURVE SMOOTH",
"287 467 OFFCURVE",
"291 470 OFFCURVE",
"291 480 CURVE SMOOTH",
"291 539 LINE SMOOTH",
"291 601 OFFCURVE",
"266 620 OFFCURVE",
"195 620 CURVE SMOOTH",
"174 620 LINE SMOOTH",
"94 620 OFFCURVE",
"76 601 OFFCURVE",
"76 541 CURVE SMOOTH",
"76 470 LINE",
"33 470 LINE",
"33 456 LINE",
"76 456 LINE",
"76 -90 LINE SMOOTH",
"76 -133 OFFCURVE",
"68 -154 OFFCURVE",
"28 -154 CURVE SMOOTH",
"-36 -154 LINE",
"-31 -170 LINE"
);
}
);
width = 437;
}
);
rightKerningGroup = s;
unicode = 00DF;
},
{
glyphname = t;
lastChange = "2021-12-16 00:13:58 +0000";
layers = (
{
anchors = (
{
name = bottom;
position = "{189, 3}";
},
{
name = center;
position = "{145, 252}";
},
{
name = top;
position = "{145, 470}";
},
{
name = topright;
position = "{216, 670}";
}
);
background = {
paths = (
{
closed = 1;
nodes = (
"279 0 LINE",
"279 120 LINE",
"236 120 LINE SMOOTH",
"206 120 OFFCURVE",
"194 135 OFFCURVE",
"194 175 CURVE SMOOTH",
"194 358 LINE",
"246 358 LINE",
"280 470 LINE",
"194 470 LINE",
"194 558 LINE",
"84 558 LINE",
"59 470 LINE",
"12 470 LINE",
"12 358 LINE",
"45 358 LINE",
"45 102 LINE SMOOTH",
"45 7 OFFCURVE",
"112 0 OFFCURVE",
"189 0 CURVE SMOOTH"
);
}
);
};
layerId = "D686CB0C-BBDB-4E69-8E5A-045D5C85CA47";
paths = (
{
closed = 1;
nodes = (
"279 0 LINE",
"279 120 LINE",
"236 120 LINE SMOOTH",
"206 120 OFFCURVE",
"194 135 OFFCURVE",
"194 175 CURVE SMOOTH",
"194 358 LINE",
"246 358 LINE",
"280 470 LINE",
"194 470 LINE",
"194 558 LINE",
"84 558 LINE",
"59 470 LINE",
"12 470 LINE",
"12 358 LINE",
"45 358 LINE",
"45 102 LINE SMOOTH",
"45 7 OFFCURVE",
"112 0 OFFCURVE",
"189 0 CURVE SMOOTH"
);
}
);
width = 290;
},
{
anchors = (
{
name = bottom;
position = "{141, 0}";
},
{
name = center;
position = "{101, 348}";
},
{
name = top;
position = "{82, 551}";
},
{
name = topright;
position = "{121, 651}";
}
);
layerId = "B8E7A328-E4C9-4125-8050-BD17141FCA48";
paths = (
{
closed = 1;
nodes = (
"186 0 LINE",
"186 17 LINE",
"160 17 LINE SMOOTH",
"113 17 OFFCURVE",
"85 32 OFFCURVE",
"85 95 CURVE SMOOTH",
"85 454 LINE",
"166 454 LINE",
"170 470 LINE",
"85 470 LINE",
"85 558 LINE",
"71 558 LINE",
"68 470 LINE",
"32 470 LINE",
"32 454 LINE",
"65 454 LINE",
"65 102 LINE SMOOTH",
"65 31 OFFCURVE",
"80 0 OFFCURVE",
"157 0 CURVE SMOOTH"
);
}
);
width = 198;
}
);
leftKerningGroup = t;
note = t;
rightKerningGroup = t;
unicode = 0074;
},
{
glyphname = u;
lastChange = "2021-12-16 00:55:41 +0000";
layers = (
{
anchors = (
{
name = bottom;
position = "{196, 0}";
},
{
name = ogonek;
position = "{354, 10}";
},
{
name = top;
position = "{196, 470}";
},
{
name = topright;
position = "{269, 470}";
}
);
background = {
paths = (
{
closed = 1;
nodes = (
"368 0 LINE",
"368 470 LINE",
"218 470 LINE",
"218 120 LINE",
"193 120 LINE SMOOTH",
"170 120 OFFCURVE",
"170 135 OFFCURVE",
"170 159 CURVE SMOOTH",
"170 470 LINE",
"20 470 LINE",
"20 93 LINE SMOOTH",
"20 49 OFFCURVE",
"35 0 OFFCURVE",
"123 0 CURVE SMOOTH"
);
}
);
};
layerId = "D686CB0C-BBDB-4E69-8E5A-045D5C85CA47";
paths = (
{
closed = 1;
nodes = (
"368 0 LINE",
"368 470 LINE",
"218 470 LINE",
"218 120 LINE",
"193 120 LINE SMOOTH",
"170 120 OFFCURVE",
"170 135 OFFCURVE",
"170 159 CURVE SMOOTH",
"170 470 LINE",
"20 470 LINE",
"20 93 LINE SMOOTH",
"20 49 OFFCURVE",
"35 0 OFFCURVE",
"123 0 CURVE SMOOTH"
);
}
);
width = 393;
},
{
anchors = (
{
name = bottom;
position = "{198, 0}";
},
{
name = ogonek;
position = "{391, 9}";
},
{
name = top;
position = "{198, 470}";
},
{
name = topright;
position = "{292, 470}";
}
);
layerId = "B8E7A328-E4C9-4125-8050-BD17141FCA48";
paths = (
{
closed = 1;
nodes = (
"327 0 LINE",
"327 470 LINE",
"307 470 LINE",
"307 17 LINE",
"196 17 LINE SMOOTH",
"130 17 OFFCURVE",
"85 39 OFFCURVE",
"85 105 CURVE SMOOTH",
"85 470 LINE",
"65 470 LINE",
"65 98 LINE SMOOTH",
"65 54 OFFCURVE",
"83 0 OFFCURVE",
"191 0 CURVE SMOOTH"
);
}
);
width = 397;
}
);
leftKerningGroup = u;
leftMetricsKey = "=n-5";
note = u;
rightKerningGroup = u;
rightMetricsKey = a;
unicode = 0075;
},
{
glyphname = v;
lastChange = "2021-12-16 00:14:41 +0000";
layers = (
{
background = {
paths = (
{
closed = 1;
nodes = (
"224 0 LINE",
"366 470 LINE",
"224 470 LINE",
"177 253 LINE",
"184 253 LINE",
"128 470 LINE",
"-12 470 LINE",
"130 0 LINE"
);
}
);
};
layerId = "D686CB0C-BBDB-4E69-8E5A-045D5C85CA47";
paths = (
{
closed = 1;
nodes = (
"224 0 LINE",
"366 470 LINE",
"224 470 LINE",
"177 253 LINE",
"184 253 LINE",
"128 470 LINE",
"-12 470 LINE",
"130 0 LINE"
);
}
);
width = 359;
},
{
layerId = "B8E7A328-E4C9-4125-8050-BD17141FCA48";
paths = (
{
closed = 1;
nodes = (
"159 0 LINE",
"283 470 LINE",
"262 470 LINE",
"160 74 LINE",
"152 42 LINE",
"39 470 LINE",
"19 470 LINE",
"142 0 LINE"
);
}
);
width = 302;
}
);
leftKerningGroup = v;
note = v;
rightKerningGroup = v;
unicode = 0076;
},
{
glyphname = w;
lastChange = "2021-12-16 00:15:41 +0000";
layers = (
{
anchors = (
{
name = bottom;
position = "{296, 0}";
},
{
name = top;
position = "{296, 470}";
}
);
background = {
paths = (
{
closed = 1;
nodes = (
"214 0 LINE",
"355 442 LINE",
"352 470 LINE",
"234 470 LINE",
"122 61 LINE",
"228 111 LINE",
"138 470 LINE",
"-12 470 LINE",
"120 0 LINE"
);
},
{
closed = 1;
nodes = (
"466 0 LINE",
"598 470 LINE",
"448 470 LINE",
"349 114 LINE",
"470 58 LINE",
"352 470 LINE",
"242 453 LINE",
"232 441 LINE",
"372 0 LINE"
);
}
);
};
layerId = "D686CB0C-BBDB-4E69-8E5A-045D5C85CA47";
paths = (
{
closed = 1;
nodes = (
"120 0 LINE",
"214 0 LINE",
"293 248 LINE",
"372 0 LINE",
"466 0 LINE",
"598 470 LINE",
"448 470 LINE",
"401 300 LINE",
"352 470 LINE",
"234 470 LINE",
"184 287 LINE",
"138 470 LINE",
"-12 470 LINE"
);
}
);
width = 591;
},
{
anchors = (
{
name = bottom;
position = "{272, 0}";
},
{
name = top;
position = "{272, 470}";
}
);
layerId = "B8E7A328-E4C9-4125-8050-BD17141FCA48";
paths = (
{
closed = 1;
nodes = (
"148 0 LINE",
"165 0 LINE",
"270 432 LINE",
"374 0 LINE",
"390 0 LINE",
"522 470 LINE",
"502 470 LINE",
"382 45 LINE",
"278 470 LINE",
"260 470 LINE",
"158 43 LINE",
"37 470 LINE",
"16 470 LINE"
);
}
);
width = 541;
}
);
leftKerningGroup = w;
note = w;
rightKerningGroup = w;
unicode = 0077;
},
{
glyphname = x;
lastChange = "2021-12-16 00:14:57 +0000";
layers = (
{
background = {
paths = (
{
closed = 1;
nodes = (
"351 0 LINE",
"252 241 LINE",
"349 470 LINE",
"221 470 LINE",
"123 241 LINE",
"223 0 LINE"
);
},
{
closed = 1;
nodes = (
"123 0 LINE",
"223 241 LINE",
"125 470 LINE",
"-3 470 LINE",
"94 241 LINE",
"-5 0 LINE"
);
},
{
closed = 1;
nodes = (
"208 173 LINE",
"208 293 LINE",
"142 293 LINE",
"142 173 LINE"
);
}
);
};
layerId = "D686CB0C-BBDB-4E69-8E5A-045D5C85CA47";
paths = (
{
closed = 1;
nodes = (
"351 0 LINE",
"252 241 LINE",
"349 470 LINE",
"221 470 LINE",
"123 241 LINE",
"223 0 LINE"
);
},
{
closed = 1;
nodes = (
"123 0 LINE",
"223 241 LINE",
"125 470 LINE",
"-3 470 LINE",
"94 241 LINE",
"-5 0 LINE"
);
},
{
closed = 1;
nodes = (
"208 173 LINE",
"208 293 LINE",
"142 293 LINE",
"142 173 LINE"
);
}
);
width = 346;
},
{
layerId = "B8E7A328-E4C9-4125-8050-BD17141FCA48";
paths = (
{
closed = 1;
nodes = (
"281 0 LINE",
"191 241 LINE",
"279 470 LINE",
"260 470 LINE",
"171 241 LINE",
"262 0 LINE"
);
},
{
closed = 1;
nodes = (
"38 0 LINE",
"130 241 LINE",
"40 470 LINE",
"20 470 LINE",
"110 241 LINE",
"18 0 LINE"
);
},
{
closed = 1;
nodes = (
"183 232 LINE",
"183 249 LINE",
"117 249 LINE",
"117 232 LINE"
);
}
);
width = 299;
}
);
leftKerningGroup = x;
note = x;
rightKerningGroup = x;
unicode = 0078;
},
{
glyphname = y;
lastChange = "2021-12-16 00:15:17 +0000";
layers = (
{
anchors = (
{
name = bottom;
position = "{350, 0}";
},
{
name = top;
position = "{200, 470}";
}
);
background = {
paths = (
{
closed = 1;
nodes = (
"104 -170 LINE SMOOTH",
"176 -170 OFFCURVE",
"211 -133 OFFCURVE",
"238 -48 CURVE SMOOTH",
"402 470 LINE",
"256 470 LINE",
"195 233 LINE",
"194 197 LINE",
"192 197 LINE",
"191 233 LINE",
"130 470 LINE",
"-13 470 LINE",
"131 15 LINE",
"126 -6 LINE SMOOTH",
"113 -61 OFFCURVE",
"92 -78 OFFCURVE",
"59 -78 CURVE SMOOTH",
"4 -78 LINE",
"-22 -170 LINE"
);
}
);
};
layerId = "D686CB0C-BBDB-4E69-8E5A-045D5C85CA47";
paths = (
{
closed = 1;
nodes = (
"104 -170 LINE SMOOTH",
"176 -170 OFFCURVE",
"211 -133 OFFCURVE",
"238 -48 CURVE SMOOTH",
"402 470 LINE",
"256 470 LINE",
"195 233 LINE",
"194 197 LINE",
"192 197 LINE",
"191 233 LINE",
"130 470 LINE",
"-13 470 LINE",
"131 15 LINE",
"126 -6 LINE SMOOTH",
"113 -61 OFFCURVE",
"92 -78 OFFCURVE",
"59 -78 CURVE SMOOTH",
"4 -78 LINE",
"-22 -170 LINE"
);
}
);
width = 399;
},
{
anchors = (
{
name = bottom;
position = "{231, 0}";
},
{
name = top;
position = "{155, 470}";
}
);
layerId = "B8E7A328-E4C9-4125-8050-BD17141FCA48";
paths = (
{
closed = 1;
nodes = (
"26 -170 LINE SMOOTH",
"100 -170 OFFCURVE",
"125 -144 OFFCURVE",
"144 -73 CURVE SMOOTH",
"287 470 LINE",
"266 470 LINE",
"152 40 LINE",
"151 36 LINE",
"155 36 LINE",
"154 40 LINE",
"40 470 LINE",
"20 470 LINE",
"144 3 LINE",
"125 -70 LINE SMOOTH",
"109 -138 OFFCURVE",
"79 -155 OFFCURVE",
"27 -155 CURVE SMOOTH",
"-5 -155 LINE",
"-4 -170 LINE"
);
}
);
width = 305;
}
);
leftKerningGroup = y;
note = y;
rightKerningGroup = y;
unicode = 0079;
},
{
glyphname = z;
lastChange = "2021-12-16 00:15:30 +0000";
layers = (
{
anchors = (
{
name = bottom;
position = "{171, 0}";
},
{
name = center;
position = "{171, 235}";
},
{
name = top;
position = "{171, 470}";
}
);
background = {
paths = (
{
closed = 1;
nodes = (
"3 0 LINE",
"292 0 LINE",
"336 120 LINE",
"195 120 LINE",
"322 399 LINE",
"322 470 LINE",
"38 470 LINE",
"13 350 LINE",
"160 350 LINE",
"3 9 LINE"
);
}
);
};
layerId = "D686CB0C-BBDB-4E69-8E5A-045D5C85CA47";
paths = (
{
closed = 1;
nodes = (
"3 0 LINE",
"292 0 LINE",
"336 120 LINE",
"195 120 LINE",
"322 399 LINE",
"322 470 LINE",
"38 470 LINE",
"13 350 LINE",
"160 350 LINE",
"3 9 LINE"
);
}
);
width = 342;
},
{
anchors = (
{
name = bottom;
position = "{140, 0}";
},
{
name = center;
position = "{140, 235}";
},
{
name = top;
position = "{140, 470}";
}
);
layerId = "B8E7A328-E4C9-4125-8050-BD17141FCA48";
paths = (
{
closed = 1;
nodes = (
"25 0 LINE",
"246 0 LINE",
"256 17 LINE",
"50 17 LINE",
"248 456 LINE",
"248 470 LINE",
"32 470 LINE",
"26 453 LINE",
"225 453 LINE",
"25 9 LINE"
);
}
);
width = 278;
}
);
leftKerningGroup = z;
note = z;
rightKerningGroup = z;
unicode = 007A;
},
{
glyphname = f_f;
lastChange = "2021-12-16 00:55:41 +0000";
layers = (
{
background = {
paths = (
{
closed = 1;
nodes = (
"49 0 LINE",
"206 0 LINE",
"206 392 LINE",
"315 392 LINE",
"325 470 LINE",
"206 470 LINE",
"206 500 LINE SMOOTH",
"206 542 OFFCURVE",
"210 548 OFFCURVE",
"241 548 CURVE SMOOTH",
"303 548 LINE",
"303 627 LINE",
"161 627 LINE SMOOTH",
"75 627 OFFCURVE",
"49 608 OFFCURVE",
"49 529 CURVE SMOOTH",
"49 470 LINE",
"6 470 LINE",
"6 392 LINE",
"49 392 LINE"
);
},
{
closed = 1;
nodes = (
"338 0 LINE",
"495 0 LINE",
"495 392 LINE",
"569 392 LINE",
"579 470 LINE",
"495 470 LINE",
"495 500 LINE SMOOTH",
"495 542 OFFCURVE",
"499 548 OFFCURVE",
"530 548 CURVE SMOOTH",
"592 548 LINE",
"592 627 LINE",
"450 627 LINE SMOOTH",
"364 627 OFFCURVE",
"338 608 OFFCURVE",
"338 529 CURVE SMOOTH",
"338 470 LINE",
"295 470 LINE",
"295 392 LINE",
"338 392 LINE"
);
}
);
};
layerId = "D686CB0C-BBDB-4E69-8E5A-045D5C85CA47";
paths = (
{
closed = 1;
nodes = (
"49 0 LINE",
"206 0 LINE",
"206 392 LINE",
"315 392 LINE",
"325 470 LINE",
"206 470 LINE",
"206 500 LINE SMOOTH",
"206 542 OFFCURVE",
"210 548 OFFCURVE",
"241 548 CURVE SMOOTH",
"303 548 LINE",
"303 627 LINE",
"161 627 LINE SMOOTH",
"75 627 OFFCURVE",
"49 608 OFFCURVE",
"49 529 CURVE SMOOTH",
"49 470 LINE",
"6 470 LINE",
"6 392 LINE",
"49 392 LINE"
);
},
{
closed = 1;
nodes = (
"338 0 LINE",
"495 0 LINE",
"495 392 LINE",
"569 392 LINE",
"579 470 LINE",
"495 470 LINE",
"495 500 LINE SMOOTH",
"495 542 OFFCURVE",
"499 548 OFFCURVE",
"530 548 CURVE SMOOTH",
"592 548 LINE",
"592 627 LINE",
"450 627 LINE SMOOTH",
"364 627 OFFCURVE",
"338 608 OFFCURVE",
"338 529 CURVE SMOOTH",
"338 470 LINE",
"295 470 LINE",
"295 392 LINE",
"338 392 LINE"
);
}
);
width = 602;
},
{
layerId = "B8E7A328-E4C9-4125-8050-BD17141FCA48";
paths = (
{
closed = 1;
nodes = (
"76 0 LINE",
"97 0 LINE",
"97 456 LINE",
"270 456 LINE",
"274 470 LINE",
"97 470 LINE",
"97 553 LINE SMOOTH",
"97 592 OFFCURVE",
"111 606 OFFCURVE",
"161 606 CURVE SMOOTH",
"219 606 LINE",
"219 620 LINE",
"155 620 LINE SMOOTH",
"95 620 OFFCURVE",
"76 601 OFFCURVE",
"76 555 CURVE SMOOTH",
"76 470 LINE",
"33 470 LINE",
"33 456 LINE",
"76 456 LINE"
);
},
{
closed = 1;
nodes = (
"267 0 LINE",
"289 0 LINE",
"289 456 LINE",
"372 456 LINE",
"376 470 LINE",
"289 470 LINE",
"289 553 LINE SMOOTH",
"289 592 OFFCURVE",
"302 606 OFFCURVE",
"352 606 CURVE SMOOTH",
"411 606 LINE",
"411 620 LINE",
"346 620 LINE SMOOTH",
"287 620 OFFCURVE",
"267 601 OFFCURVE",
"267 555 CURVE SMOOTH",
"267 470 LINE",
"224 470 LINE",
"224 456 LINE",
"267 456 LINE"
);
}
);
width = 429;
}
);
leftKerningGroup = f;
leftMetricsKey = f;
rightKerningGroup = f;
},
{
glyphname = f_f_i;
lastChange = "2021-12-16 00:55:41 +0000";
layers = (
{
background = {
paths = (
{
closed = 1;
nodes = (
"338 0 LINE",
"495 0 LINE",
"495 392 LINE",
"692 392 LINE",
"702 470 LINE",
"495 470 LINE",
"495 500 LINE SMOOTH",
"495 542 OFFCURVE",
"499 548 OFFCURVE",
"530 548 CURVE SMOOTH",
"592 548 LINE",
"592 627 LINE",
"450 627 LINE SMOOTH",
"364 627 OFFCURVE",
"338 608 OFFCURVE",
"338 529 CURVE SMOOTH",
"338 470 LINE",
"295 470 LINE",
"295 392 LINE",
"338 392 LINE"
);
},
{
closed = 1;
nodes = (
"49 0 LINE",
"206 0 LINE",
"206 392 LINE",
"315 392 LINE",
"325 470 LINE",
"206 470 LINE",
"206 500 LINE SMOOTH",
"206 542 OFFCURVE",
"210 548 OFFCURVE",
"241 548 CURVE SMOOTH",
"303 548 LINE",
"303 627 LINE",
"161 627 LINE SMOOTH",
"75 627 OFFCURVE",
"49 608 OFFCURVE",
"49 529 CURVE SMOOTH",
"49 470 LINE",
"6 470 LINE",
"6 392 LINE",
"49 392 LINE"
);
},
{
closed = 1;
nodes = (
"651 0 LINE",
"801 0 LINE",
"801 470 LINE",
"651 470 LINE"
);
}
);
};
layerId = "D686CB0C-BBDB-4E69-8E5A-045D5C85CA47";
paths = (
{
closed = 1;
nodes = (
"338 0 LINE",
"495 0 LINE",
"495 392 LINE",
"692 392 LINE",
"702 470 LINE",
"495 470 LINE",
"495 500 LINE SMOOTH",
"495 542 OFFCURVE",
"499 548 OFFCURVE",
"530 548 CURVE SMOOTH",
"592 548 LINE",
"592 627 LINE",
"450 627 LINE SMOOTH",
"364 627 OFFCURVE",
"338 608 OFFCURVE",
"338 529 CURVE SMOOTH",
"338 470 LINE",
"295 470 LINE",
"295 392 LINE",
"338 392 LINE"
);
},
{
closed = 1;
nodes = (
"49 0 LINE",
"206 0 LINE",
"206 392 LINE",
"315 392 LINE",
"325 470 LINE",
"206 470 LINE",
"206 500 LINE SMOOTH",
"206 542 OFFCURVE",
"210 548 OFFCURVE",
"241 548 CURVE SMOOTH",
"303 548 LINE",
"303 627 LINE",
"161 627 LINE SMOOTH",
"75 627 OFFCURVE",
"49 608 OFFCURVE",
"49 529 CURVE SMOOTH",
"49 470 LINE",
"6 470 LINE",
"6 392 LINE",
"49 392 LINE"
);
},
{
closed = 1;
nodes = (
"651 0 LINE",
"801 0 LINE",
"801 470 LINE",
"651 470 LINE"
);
}
);
width = 816;
},
{
layerId = "B8E7A328-E4C9-4125-8050-BD17141FCA48";
paths = (
{
closed = 1;
nodes = (
"267 0 LINE",
"289 0 LINE",
"289 456 LINE",
"492 456 LINE",
"496 470 LINE",
"289 470 LINE",
"289 553 LINE SMOOTH",
"289 592 OFFCURVE",
"302 606 OFFCURVE",
"352 606 CURVE SMOOTH",
"411 606 LINE",
"411 620 LINE",
"346 620 LINE SMOOTH",
"287 620 OFFCURVE",
"267 601 OFFCURVE",
"267 555 CURVE SMOOTH",
"267 470 LINE",
"224 470 LINE",
"224 456 LINE",
"267 456 LINE"
);
},
{
closed = 1;
nodes = (
"76 0 LINE",
"97 0 LINE",
"97 456 LINE",
"270 456 LINE",
"274 470 LINE",
"97 470 LINE",
"97 553 LINE SMOOTH",
"97 592 OFFCURVE",
"111 606 OFFCURVE",
"161 606 CURVE SMOOTH",
"219 606 LINE",
"219 620 LINE",
"155 620 LINE SMOOTH",
"95 620 OFFCURVE",
"76 601 OFFCURVE",
"76 555 CURVE SMOOTH",
"76 470 LINE",
"33 470 LINE",
"33 456 LINE",
"76 456 LINE"
);
},
{
closed = 1;
nodes = (
"486 0 LINE",
"506 0 LINE",
"506 470 LINE",
"486 470 LINE"
);
}
);
width = 553;
}
);
leftMetricsKey = f;
},
{
glyphname = f_f_l;
lastChange = "2021-12-16 00:55:41 +0000";
layers = (
{
background = {
paths = (
{
closed = 1;
nodes = (
"366 0 LINE",
"523 0 LINE",
"523 392 LINE",
"597 392 LINE",
"607 470 LINE",
"523 470 LINE",
"523 500 LINE SMOOTH",
"523 542 OFFCURVE",
"527 548 OFFCURVE",
"558 548 CURVE SMOOTH",
"727 548 LINE",
"810 620 LINE",
"478 627 LINE SMOOTH",
"392 629 OFFCURVE",
"366 608 OFFCURVE",
"366 529 CURVE SMOOTH",
"366 470 LINE",
"323 470 LINE",
"323 392 LINE",
"366 392 LINE"
);
},
{
closed = 1;
nodes = (
"49 0 LINE",
"206 0 LINE",
"206 392 LINE",
"432 392 LINE",
"442 470 LINE",
"206 470 LINE",
"206 500 LINE SMOOTH",
"206 542 OFFCURVE",
"210 548 OFFCURVE",
"241 548 CURVE SMOOTH",
"303 548 LINE",
"303 627 LINE",
"161 627 LINE SMOOTH",
"75 627 OFFCURVE",
"49 608 OFFCURVE",
"49 529 CURVE SMOOTH",
"49 470 LINE",
"6 470 LINE",
"6 392 LINE",
"49 392 LINE"
);
},
{
closed = 1;
nodes = (
"660 0 LINE",
"810 0 LINE",
"810 620 LINE",
"660 620 LINE"
);
}
);
};
layerId = "D686CB0C-BBDB-4E69-8E5A-045D5C85CA47";
paths = (
{
closed = 1;
nodes = (
"206 0 LINE",
"206 392 LINE",
"432 392 LINE",
"442 470 LINE",
"206 470 LINE",
"206 500 LINE SMOOTH",
"206 542 OFFCURVE",
"210 548 OFFCURVE",
"241 548 CURVE SMOOTH",
"303 548 LINE",
"303 627 LINE",
"161 627 LINE SMOOTH",
"75 627 OFFCURVE",
"49 608 OFFCURVE",
"49 529 CURVE SMOOTH",
"49 470 LINE",
"6 470 LINE",
"6 392 LINE",
"49 392 LINE",
"49 0 LINE"
);
},
{
closed = 1;
nodes = (
"523 0 LINE",
"523 392 LINE",
"597 392 LINE",
"607 470 LINE",
"523 470 LINE",
"523 500 LINE SMOOTH",
"523 542 OFFCURVE",
"527 548 OFFCURVE",
"558 548 CURVE SMOOTH",
"727 548 LINE",
"810 620 LINE",
"478 627 LINE SMOOTH",
"392 629 OFFCURVE",
"366 608 OFFCURVE",
"366 529 CURVE SMOOTH",
"366 470 LINE",
"323 470 LINE",
"323 392 LINE",
"366 392 LINE",
"366 0 LINE"
);
},
{
closed = 1;
nodes = (
"810 0 LINE",
"810 620 LINE",
"660 620 LINE",
"660 0 LINE"
);
}
);
width = 835;
},
{
layerId = "B8E7A328-E4C9-4125-8050-BD17141FCA48";
paths = (
{
closed = 1;
nodes = (
"97 0 LINE",
"97 456 LINE",
"290 456 LINE",
"293 470 LINE",
"97 470 LINE",
"97 553 LINE SMOOTH",
"97 592 OFFCURVE",
"111 606 OFFCURVE",
"161 606 CURVE SMOOTH",
"219 606 LINE",
"219 620 LINE",
"155 620 LINE SMOOTH",
"95 620 OFFCURVE",
"76 601 OFFCURVE",
"76 555 CURVE SMOOTH",
"76 470 LINE",
"33 470 LINE",
"33 456 LINE",
"76 456 LINE",
"76 0 LINE"
);
},
{
closed = 1;
nodes = (
"330 0 LINE",
"330 456 LINE",
"415 456 LINE",
"418 470 LINE",
"330 470 LINE",
"330 553 LINE SMOOTH",
"330 592 OFFCURVE",
"345 606 OFFCURVE",
"394 606 CURVE SMOOTH",
"519 606 LINE",
"524 620 LINE",
"388 620 LINE SMOOTH",
"328 620 OFFCURVE",
"310 601 OFFCURVE",
"310 555 CURVE SMOOTH",
"310 470 LINE",
"267 470 LINE",
"267 456 LINE",
"310 456 LINE",
"310 0 LINE"
);
},
{
closed = 1;
nodes = (
"531 0 LINE",
"531 620 LINE",
"511 620 LINE",
"511 0 LINE"
);
}
);
width = 601;
}
);
leftMetricsKey = f;
rightKerningGroup = i;
rightMetricsKey = l;
},
{
glyphname = fi;
lastChange = "2021-12-16 00:55:41 +0000";
layers = (
{
background = {
paths = (
{
closed = 1;
nodes = (
"49 0 LINE",
"206 0 LINE",
"206 392 LINE",
"379 392 LINE",
"389 470 LINE",
"206 470 LINE",
"206 500 LINE SMOOTH",
"206 542 OFFCURVE",
"210 548 OFFCURVE",
"241 548 CURVE SMOOTH",
"303 548 LINE",
"303 627 LINE",
"161 627 LINE SMOOTH",
"75 627 OFFCURVE",
"49 608 OFFCURVE",
"49 529 CURVE SMOOTH",
"49 470 LINE",
"6 470 LINE",
"6 392 LINE",
"49 392 LINE"
);
},
{
closed = 1;
nodes = (
"334 0 LINE",
"484 0 LINE",
"484 470 LINE",
"334 470 LINE"
);
}
);
};
layerId = "D686CB0C-BBDB-4E69-8E5A-045D5C85CA47";
paths = (
{
closed = 1;
nodes = (
"49 0 LINE",
"206 0 LINE",
"206 392 LINE",
"379 392 LINE",
"389 470 LINE",
"206 470 LINE",
"206 500 LINE SMOOTH",
"206 542 OFFCURVE",
"210 548 OFFCURVE",
"241 548 CURVE SMOOTH",
"303 548 LINE",
"303 627 LINE",
"161 627 LINE SMOOTH",
"75 627 OFFCURVE",
"49 608 OFFCURVE",
"49 529 CURVE SMOOTH",
"49 470 LINE",
"6 470 LINE",
"6 392 LINE",
"49 392 LINE"
);
},
{
closed = 1;
nodes = (
"334 0 LINE",
"484 0 LINE",
"484 470 LINE",
"334 470 LINE"
);
}
);
width = 499;
},
{
layerId = "B8E7A328-E4C9-4125-8050-BD17141FCA48";
paths = (
{
closed = 1;
nodes = (
"76 0 LINE",
"97 0 LINE",
"97 456 LINE",
"298 456 LINE",
"301 470 LINE",
"97 470 LINE",
"97 553 LINE SMOOTH",
"97 592 OFFCURVE",
"111 606 OFFCURVE",
"161 606 CURVE SMOOTH",
"219 606 LINE",
"219 620 LINE",
"155 620 LINE SMOOTH",
"95 620 OFFCURVE",
"76 601 OFFCURVE",
"76 555 CURVE SMOOTH",
"76 470 LINE",
"33 470 LINE",
"33 456 LINE",
"76 456 LINE"
);
},
{
closed = 1;
nodes = (
"291 0 LINE",
"311 0 LINE",
"311 470 LINE",
"291 470 LINE"
);
}
);
width = 364;
}
);
leftMetricsKey = f;
unicode = FB01;
},
{
glyphname = fl;
lastChange = "2021-12-16 00:55:41 +0000";
layers = (
{
background = {
paths = (
{
closed = 1;
nodes = (
"49 0 LINE",
"206 0 LINE",
"206 392 LINE",
"280 392 LINE",
"290 470 LINE",
"206 470 LINE",
"206 500 LINE SMOOTH",
"206 542 OFFCURVE",
"210 548 OFFCURVE",
"241 548 CURVE SMOOTH",
"410 548 LINE",
"493 620 LINE",
"161 627 LINE SMOOTH",
"75 629 OFFCURVE",
"49 608 OFFCURVE",
"49 529 CURVE SMOOTH",
"49 470 LINE",
"6 470 LINE",
"6 392 LINE",
"49 392 LINE"
);
},
{
closed = 1;
nodes = (
"343 0 LINE",
"493 0 LINE",
"493 620 LINE",
"343 620 LINE"
);
}
);
};
layerId = "D686CB0C-BBDB-4E69-8E5A-045D5C85CA47";
paths = (
{
closed = 1;
nodes = (
"49 0 LINE",
"206 0 LINE",
"206 392 LINE",
"280 392 LINE",
"290 470 LINE",
"206 470 LINE",
"206 500 LINE SMOOTH",
"206 542 OFFCURVE",
"210 548 OFFCURVE",
"241 548 CURVE SMOOTH",
"410 548 LINE",
"493 620 LINE",
"161 627 LINE SMOOTH",
"75 629 OFFCURVE",
"49 608 OFFCURVE",
"49 529 CURVE SMOOTH",
"49 470 LINE",
"6 470 LINE",
"6 392 LINE",
"49 392 LINE"
);
},
{
closed = 1;
nodes = (
"343 0 LINE",
"493 0 LINE",
"493 620 LINE",
"343 620 LINE"
);
}
);
width = 518;
},
{
layerId = "B8E7A328-E4C9-4125-8050-BD17141FCA48";
paths = (
{
closed = 1;
nodes = (
"76 0 LINE",
"97 0 LINE",
"97 456 LINE",
"181 456 LINE",
"184 470 LINE",
"97 470 LINE",
"97 553 LINE SMOOTH",
"97 592 OFFCURVE",
"111 606 OFFCURVE",
"161 606 CURVE SMOOTH",
"290 606 LINE",
"295 620 LINE",
"155 620 LINE SMOOTH",
"95 620 OFFCURVE",
"76 601 OFFCURVE",
"76 555 CURVE SMOOTH",
"76 470 LINE",
"33 470 LINE",
"33 456 LINE",
"76 456 LINE"
);
},
{
closed = 1;
nodes = (
"277 0 LINE",
"297 0 LINE",
"297 620 LINE",
"277 620 LINE"
);
}
);
width = 367;
}
);
leftMetricsKey = f;
rightKerningGroup = i;
rightMetricsKey = l;
unicode = FB02;
},
{
glyphname = ordfeminine;
lastChange = "2021-12-15 23:40:28 +0000";
layers = (
{
background = {
paths = (
{
closed = 1;
nodes = (
"156 350 LINE",
"165 428 LINE",
"158 428 LINE SMOOTH",
"146 428 OFFCURVE",
"141 429 OFFCURVE",
"141 451 CURVE SMOOTH",
"141 559 LINE SMOOTH",
"141 572 OFFCURVE",
"146 577 OFFCURVE",
"157 577 CURVE SMOOTH",
"172 577 LINE",
"172 350 LINE",
"289 350 LINE",
"289 655 LINE",
"122 655 LINE SMOOTH",
"45 656 OFFCURVE",
"25 624 OFFCURVE",
"25 573 CURVE SMOOTH",
"25 436 LINE SMOOTH",
"25 376 OFFCURVE",
"28 350 OFFCURVE",
"102 350 CURVE SMOOTH"
);
}
);
};
layerId = "D686CB0C-BBDB-4E69-8E5A-045D5C85CA47";
paths = (
{
closed = 1;
nodes = (
"156 350 LINE",
"165 428 LINE",
"158 428 LINE SMOOTH",
"146 428 OFFCURVE",
"141 429 OFFCURVE",
"141 451 CURVE SMOOTH",
"141 559 LINE SMOOTH",
"141 572 OFFCURVE",
"146 577 OFFCURVE",
"157 577 CURVE SMOOTH",
"172 577 LINE",
"172 350 LINE",
"289 350 LINE",
"289 655 LINE",
"122 655 LINE SMOOTH",
"45 656 OFFCURVE",
"25 624 OFFCURVE",
"25 573 CURVE SMOOTH",
"25 436 LINE SMOOTH",
"25 376 OFFCURVE",
"28 350 OFFCURVE",
"102 350 CURVE SMOOTH"
);
}
);
width = 314;
},
{
layerId = "B8E7A328-E4C9-4125-8050-BD17141FCA48";
paths = (
{
closed = 1;
nodes = (
"180 350 LINE",
"182 364 LINE",
"102 364 LINE SMOOTH",
"68 364 OFFCURVE",
"65 375 OFFCURVE",
"65 417 CURVE SMOOTH",
"65 585 LINE SMOOTH",
"65 626 OFFCURVE",
"63 641 OFFCURVE",
"107 641 CURVE SMOOTH",
"204 641 LINE",
"204 350 LINE",
"221 350 LINE",
"221 655 LINE",
"116 655 LINE SMOOTH",
"57 655 OFFCURVE",
"48 649 OFFCURVE",
"48 601 CURVE SMOOTH",
"48 431 LINE SMOOTH",
"48 365 OFFCURVE",
"48 350 OFFCURVE",
"94 350 CURVE SMOOTH"
);
}
);
width = 269;
}
);
unicode = 00AA;
},
{
glyphname = ordmasculine;
lastChange = "2021-12-15 23:40:28 +0000";
layers = (
{
background = {
paths = (
{
closed = 1;
nodes = (
"239 344 OFFCURVE",
"271 374 OFFCURVE",
"271 424 CURVE SMOOTH",
"271 576 LINE SMOOTH",
"271 625 OFFCURVE",
"240 657 OFFCURVE",
"148 656 CURVE SMOOTH",
"44 656 OFFCURVE",
"25 623 OFFCURVE",
"25 575 CURVE SMOOTH",
"25 425 LINE SMOOTH",
"25 379 OFFCURVE",
"43 344 OFFCURVE",
"144 344 CURVE SMOOTH"
);
},
{
closed = 1;
nodes = (
"127 423 OFFCURVE",
"127 437 OFFCURVE",
"127 445 CURVE SMOOTH",
"127 558 LINE SMOOTH",
"127 565 OFFCURVE",
"127 582 OFFCURVE",
"148 582 CURVE SMOOTH",
"168 581 OFFCURVE",
"168 565 OFFCURVE",
"168 558 CURVE SMOOTH",
"168 445 LINE SMOOTH",
"168 437 OFFCURVE",
"168 423 OFFCURVE",
"148 423 CURVE SMOOTH"
);
}
);
};
layerId = "D686CB0C-BBDB-4E69-8E5A-045D5C85CA47";
paths = (
{
closed = 1;
nodes = (
"239 344 OFFCURVE",
"271 374 OFFCURVE",
"271 424 CURVE SMOOTH",
"271 576 LINE SMOOTH",
"271 625 OFFCURVE",
"240 657 OFFCURVE",
"148 656 CURVE SMOOTH",
"44 656 OFFCURVE",
"25 623 OFFCURVE",
"25 575 CURVE SMOOTH",
"25 425 LINE SMOOTH",
"25 379 OFFCURVE",
"43 344 OFFCURVE",
"144 344 CURVE SMOOTH"
);
},
{
closed = 1;
nodes = (
"127 423 OFFCURVE",
"127 437 OFFCURVE",
"127 445 CURVE SMOOTH",
"127 558 LINE SMOOTH",
"127 565 OFFCURVE",
"127 582 OFFCURVE",
"148 582 CURVE SMOOTH",
"168 581 OFFCURVE",
"168 565 OFFCURVE",
"168 558 CURVE SMOOTH",
"168 445 LINE SMOOTH",
"168 437 OFFCURVE",
"168 423 OFFCURVE",
"148 423 CURVE SMOOTH"
);
}
);
width = 296;
},
{
layerId = "B8E7A328-E4C9-4125-8050-BD17141FCA48";
paths = (
{
closed = 1;
nodes = (
"206 345 OFFCURVE",
"220 382 OFFCURVE",
"220 422 CURVE SMOOTH",
"220 589 LINE SMOOTH",
"220 618 OFFCURVE",
"206 655 OFFCURVE",
"134 655 CURVE SMOOTH",
"60 655 OFFCURVE",
"48 618 OFFCURVE",
"48 589 CURVE SMOOTH",
"48 411 LINE SMOOTH",
"48 382 OFFCURVE",
"60 345 OFFCURVE",
"128 345 CURVE SMOOTH"
);
},
{
closed = 1;
nodes = (
"93 359 OFFCURVE",
"65 372 OFFCURVE",
"65 414 CURVE SMOOTH",
"65 587 LINE SMOOTH",
"65 628 OFFCURVE",
"93 641 OFFCURVE",
"134 641 CURVE SMOOTH",
"177 641 OFFCURVE",
"203 628 OFFCURVE",
"203 587 CURVE SMOOTH",
"203 420 LINE SMOOTH",
"203 373 OFFCURVE",
"177 359 OFFCURVE",
"129 359 CURVE SMOOTH"
);
}
);
width = 268;
}
);
unicode = 00BA;
},
{
glyphname = Omega;
lastChange = "2021-12-15 23:40:28 +0000";
layers = (
{
background = {
paths = (
{
closed = 1;
nodes = (
"50 0 LINE",
"317 0 LINE",
"324 126 LINE",
"275 156 OFFCURVE",
"253 240 OFFCURVE",
"253 334 CURVE SMOOTH",
"253 434 OFFCURVE",
"259 516 OFFCURVE",
"353 516 CURVE SMOOTH",
"453 516 OFFCURVE",
"450 424 OFFCURVE",
"450 323 CURVE SMOOTH",
"450 224 OFFCURVE",
"425 161 OFFCURVE",
"380 126 CURVE",
"387 0 LINE",
"653 0 LINE",
"653 120 LINE",
"491 120 LINE",
"571 180 OFFCURVE",
"632 248 OFFCURVE",
"632 359 CURVE SMOOTH",
"632 494 OFFCURVE",
"626 620 OFFCURVE",
"355 620 CURVE SMOOTH",
"83 620 OFFCURVE",
"73 500 OFFCURVE",
"73 349 CURVE SMOOTH",
"74 248 OFFCURVE",
"127 178 OFFCURVE",
"210 120 CURVE",
"50 120 LINE"
);
}
);
};
layerId = "D686CB0C-BBDB-4E69-8E5A-045D5C85CA47";
paths = (
{
closed = 1;
nodes = (
"50 0 LINE",
"317 0 LINE",
"324 126 LINE",
"275 156 OFFCURVE",
"253 240 OFFCURVE",
"253 334 CURVE SMOOTH",
"253 434 OFFCURVE",
"259 516 OFFCURVE",
"353 516 CURVE SMOOTH",
"453 516 OFFCURVE",
"450 424 OFFCURVE",
"450 323 CURVE SMOOTH",
"450 224 OFFCURVE",
"425 161 OFFCURVE",
"380 126 CURVE",
"387 0 LINE",
"653 0 LINE",
"653 120 LINE",
"491 120 LINE",
"571 180 OFFCURVE",
"632 248 OFFCURVE",
"632 359 CURVE SMOOTH",
"632 494 OFFCURVE",
"626 620 OFFCURVE",
"355 620 CURVE SMOOTH",
"83 620 OFFCURVE",
"73 500 OFFCURVE",
"73 349 CURVE SMOOTH",
"74 248 OFFCURVE",
"127 178 OFFCURVE",
"210 120 CURVE",
"50 120 LINE"
);
}
);
width = 703;
},
{
layerId = "B8E7A328-E4C9-4125-8050-BD17141FCA48";
paths = (
{
closed = 1;
nodes = (
"32 0 LINE",
"180 0 LINE",
"186 17 LINE",
"117 70 OFFCURVE",
"61 224 OFFCURVE",
"61 349 CURVE SMOOTH",
"61 489 OFFCURVE",
"72 604 OFFCURVE",
"286 604 CURVE SMOOTH",
"501 604 OFFCURVE",
"507 480 OFFCURVE",
"507 348 CURVE SMOOTH",
"507 202 OFFCURVE",
"433 56 OFFCURVE",
"380 17 CURVE",
"386 0 LINE",
"536 0 LINE",
"536 17 LINE",
"400 17 LINE",
"467 77 OFFCURVE",
"530 204 OFFCURVE",
"530 350 CURVE SMOOTH",
"530 511 OFFCURVE",
"510 620 OFFCURVE",
"286 620 CURVE SMOOTH",
"62 620 OFFCURVE",
"39 517 OFFCURVE",
"39 350 CURVE SMOOTH",
"39 204 OFFCURVE",
"95 75 OFFCURVE",
"165 17 CURVE",
"32 17 LINE"
);
}
);
width = 567;
}
);
unicode = 03A9;
},
{
glyphname = mu;
lastChange = "2021-12-15 23:40:28 +0000";
layers = (
{
background = {
paths = (
{
closed = 1;
nodes = (
"378 0 LINE",
"378 470 LINE",
"228 470 LINE",
"228 120 LINE",
"203 120 LINE SMOOTH",
"180 120 OFFCURVE",
"180 135 OFFCURVE",
"180 159 CURVE SMOOTH",
"180 470 LINE",
"30 470 LINE",
"30 93 LINE SMOOTH",
"30 49 OFFCURVE",
"45 0 OFFCURVE",
"133 0 CURVE SMOOTH"
);
},
{
closed = 1;
nodes = (
"208 -181 LINE",
"226 -61 LINE",
"219 -61 LINE SMOOTH",
"188 -61 OFFCURVE",
"180 -52 OFFCURVE",
"180 -13 CURVE SMOOTH",
"180 470 LINE",
"30 470 LINE",
"30 -54 LINE SMOOTH",
"30 -132 OFFCURVE",
"61 -181 OFFCURVE",
"151 -181 CURVE SMOOTH"
);
}
);
};
layerId = "D686CB0C-BBDB-4E69-8E5A-045D5C85CA47";
paths = (
{
closed = 1;
nodes = (
"378 0 LINE",
"378 470 LINE",
"228 470 LINE",
"228 120 LINE",
"203 120 LINE SMOOTH",
"180 120 OFFCURVE",
"180 135 OFFCURVE",
"180 159 CURVE SMOOTH",
"180 470 LINE",
"30 470 LINE",
"30 93 LINE SMOOTH",
"30 49 OFFCURVE",
"45 0 OFFCURVE",
"133 0 CURVE SMOOTH"
);
},
{
closed = 1;
nodes = (
"208 -181 LINE",
"226 -61 LINE",
"219 -61 LINE SMOOTH",
"188 -61 OFFCURVE",
"180 -52 OFFCURVE",
"180 -13 CURVE SMOOTH",
"180 470 LINE",
"30 470 LINE",
"30 -54 LINE SMOOTH",
"30 -132 OFFCURVE",
"61 -181 OFFCURVE",
"151 -181 CURVE SMOOTH"
);
}
);
width = 438;
},
{
layerId = "B8E7A328-E4C9-4125-8050-BD17141FCA48";
paths = (
{
closed = 1;
nodes = (
"301 0 LINE",
"301 470 LINE",
"281 470 LINE",
"281 17 LINE",
"171 17 LINE SMOOTH",
"104 17 OFFCURVE",
"60 39 OFFCURVE",
"60 105 CURVE SMOOTH",
"60 470 LINE",
"40 470 LINE",
"40 98 LINE SMOOTH",
"40 54 OFFCURVE",
"58 0 OFFCURVE",
"166 0 CURVE SMOOTH"
);
},
{
closed = 1;
nodes = (
"113 -170 LINE",
"117 -154 LINE",
"106 -154 LINE SMOOTH",
"68 -154 OFFCURVE",
"60 -133 OFFCURVE",
"60 -90 CURVE SMOOTH",
"60 470 LINE",
"40 470 LINE",
"40 -93 LINE SMOOTH",
"40 -150 OFFCURVE",
"54 -170 OFFCURVE",
"105 -170 CURVE SMOOTH"
);
}
);
width = 342;
}
);
leftKerningGroup = bracketleft;
rightKerningGroup = u;
unicode = 03BC;
},
{
glyphname = pi;
lastChange = "2021-12-15 23:40:28 +0000";
layers = (
{
background = {
paths = (
{
closed = 1;
nodes = (
"270 0 LINE",
"270 368 LINE",
"315 368 LINE",
"315 181 LINE",
"466 181 LINE",
"466 368 LINE",
"556 368 LINE",
"556 470 LINE",
"20 470 LINE",
"20 368 LINE",
"120 368 LINE",
"120 0 LINE"
);
},
{
closed = 1;
nodes = (
"492 0 LINE",
"510 120 LINE",
"504 120 LINE SMOOTH",
"473 120 OFFCURVE",
"465 129 OFFCURVE",
"465 168 CURVE SMOOTH",
"465 470 LINE",
"315 470 LINE",
"315 127 LINE SMOOTH",
"315 49 OFFCURVE",
"346 0 OFFCURVE",
"436 0 CURVE SMOOTH"
);
}
);
};
layerId = "D686CB0C-BBDB-4E69-8E5A-045D5C85CA47";
paths = (
{
closed = 1;
nodes = (
"270 0 LINE",
"270 368 LINE",
"315 368 LINE",
"315 181 LINE",
"466 181 LINE",
"466 368 LINE",
"556 368 LINE",
"556 470 LINE",
"20 470 LINE",
"20 368 LINE",
"120 368 LINE",
"120 0 LINE"
);
},
{
closed = 1;
nodes = (
"492 0 LINE",
"510 120 LINE",
"504 120 LINE SMOOTH",
"473 120 OFFCURVE",
"465 129 OFFCURVE",
"465 168 CURVE SMOOTH",
"465 470 LINE",
"315 470 LINE",
"315 127 LINE SMOOTH",
"315 49 OFFCURVE",
"346 0 OFFCURVE",
"436 0 CURVE SMOOTH"
);
}
);
width = 576;
},
{
layerId = "B8E7A328-E4C9-4125-8050-BD17141FCA48";
paths = (
{
closed = 1;
nodes = (
"161 0 LINE",
"161 453 LINE",
"326 453 LINE",
"326 170 LINE",
"346 170 LINE",
"346 453 LINE",
"433 453 LINE",
"433 470 LINE",
"48 470 LINE",
"48 453 LINE",
"141 453 LINE",
"141 0 LINE"
);
},
{
closed = 1;
nodes = (
"397 0 LINE",
"401 17 LINE",
"392 17 LINE SMOOTH",
"354 17 OFFCURVE",
"346 37 OFFCURVE",
"346 81 CURVE SMOOTH",
"346 470 LINE",
"326 470 LINE",
"326 78 LINE SMOOTH",
"326 20 OFFCURVE",
"340 0 OFFCURVE",
"391 0 CURVE SMOOTH"
);
}
);
width = 480;
}
);
unicode = 03C0;
},
{
glyphname = zero;
lastChange = "2021-12-16 01:05:52 +0000";
layers = (
{
background = {
paths = (
{
closed = 1;
nodes = (
"175 198 LINE",
"175 461 LINE SMOOTH",
"175 489 OFFCURVE",
"178 503 OFFCURVE",
"199 503 CURVE SMOOTH",
"226 503 OFFCURVE",
"226 495 OFFCURVE",
"226 460 CURVE SMOOTH",
"226 198 LINE",
"380 198 LINE",
"380 491 LINE SMOOTH",
"381 592 OFFCURVE",
"317 627 OFFCURVE",
"199 627 CURVE SMOOTH",
"77 627 OFFCURVE",
"20 592 OFFCURVE",
"20 492 CURVE SMOOTH",
"20 198 LINE"
);
},
{
closed = 1;
nodes = (
"317 -7 OFFCURVE",
"381 28 OFFCURVE",
"380 129 CURVE SMOOTH",
"380 422 LINE",
"226 422 LINE",
"226 160 LINE SMOOTH",
"226 125 OFFCURVE",
"226 117 OFFCURVE",
"199 117 CURVE SMOOTH",
"178 117 OFFCURVE",
"175 131 OFFCURVE",
"175 159 CURVE SMOOTH",
"175 422 LINE",
"20 422 LINE",
"20 128 LINE SMOOTH",
"20 28 OFFCURVE",
"77 -7 OFFCURVE",
"199 -7 CURVE SMOOTH"
);
}
);
};
layerId = "D686CB0C-BBDB-4E69-8E5A-045D5C85CA47";
paths = (
{
closed = 1;
nodes = (
"175 198 LINE",
"175 461 LINE SMOOTH",
"175 489 OFFCURVE",
"178 503 OFFCURVE",
"199 503 CURVE SMOOTH",
"226 503 OFFCURVE",
"226 495 OFFCURVE",
"226 460 CURVE SMOOTH",
"226 198 LINE",
"380 198 LINE",
"380 491 LINE SMOOTH",
"381 592 OFFCURVE",
"317 627 OFFCURVE",
"199 627 CURVE SMOOTH",
"77 627 OFFCURVE",
"20 592 OFFCURVE",
"20 492 CURVE SMOOTH",
"20 198 LINE"
);
},
{
closed = 1;
nodes = (
"317 -7 OFFCURVE",
"381 28 OFFCURVE",
"380 129 CURVE SMOOTH",
"380 422 LINE",
"226 422 LINE",
"226 160 LINE SMOOTH",
"226 125 OFFCURVE",
"226 117 OFFCURVE",
"199 117 CURVE SMOOTH",
"178 117 OFFCURVE",
"175 131 OFFCURVE",
"175 159 CURVE SMOOTH",
"175 422 LINE",
"20 422 LINE",
"20 128 LINE SMOOTH",
"20 28 OFFCURVE",
"77 -7 OFFCURVE",
"199 -7 CURVE SMOOTH"
);
}
);
width = 400;
},
{
layerId = "B8E7A328-E4C9-4125-8050-BD17141FCA48";
paths = (
{
closed = 1;
nodes = (
"71 171 LINE",
"71 490 LINE SMOOTH",
"71 589 OFFCURVE",
"137 604 OFFCURVE",
"185 604 CURVE SMOOTH",
"237 604 OFFCURVE",
"302 590 OFFCURVE",
"302 489 CURVE SMOOTH",
"302 171 LINE",
"322 171 LINE",
"322 491 LINE SMOOTH",
"322 609 OFFCURVE",
"244 622 OFFCURVE",
"185 622 CURVE SMOOTH",
"130 622 OFFCURVE",
"50 609 OFFCURVE",
"50 492 CURVE SMOOTH",
"50 171 LINE"
);
},
{
closed = 1;
nodes = (
"244 -6 OFFCURVE",
"322 7 OFFCURVE",
"322 125 CURVE SMOOTH",
"322 445 LINE",
"302 445 LINE",
"302 128 LINE SMOOTH",
"302 27 OFFCURVE",
"237 12 OFFCURVE",
"185 12 CURVE SMOOTH",
"137 12 OFFCURVE",
"71 27 OFFCURVE",
"71 127 CURVE SMOOTH",
"71 445 LINE",
"50 445 LINE",
"50 124 LINE SMOOTH",
"50 7 OFFCURVE",
"130 -6 OFFCURVE",
"185 -6 CURVE SMOOTH"
);
}
);
width = 372;
}
);
leftKerningGroup = zero;
rightKerningGroup = zero;
unicode = 0030;
},
{
glyphname = one;
lastChange = "2021-12-16 01:05:47 +0000";
layers = (
{
background = {
paths = (
{
closed = 1;
nodes = (
"320 0 LINE",
"319 620 LINE",
"173 620 LINE",
"0 406 LINE",
"82 329 LINE",
"170 420 LINE",
"170 0 LINE"
);
}
);
};
layerId = "D686CB0C-BBDB-4E69-8E5A-045D5C85CA47";
paths = (
{
closed = 1;
nodes = (
"320 0 LINE",
"319 620 LINE",
"173 620 LINE",
"0 406 LINE",
"82 329 LINE",
"170 420 LINE",
"170 0 LINE"
);
}
);
width = 340;
},
{
layerId = "B8E7A328-E4C9-4125-8050-BD17141FCA48";
paths = (
{
closed = 1;
nodes = (
"178 0 LINE",
"178 620 LINE",
"158 620 LINE",
"20 448 LINE",
"33 436 LINE",
"158 589 LINE",
"158 0 LINE"
);
}
);
width = 248;
}
);
leftKerningGroup = one;
rightKerningGroup = one;
unicode = 0031;
},
{
glyphname = two;
lastChange = "2021-12-16 01:05:36 +0000";
layers = (
{
background = {
paths = (
{
closed = 1;
nodes = (
"336 0 LINE",
"363 120 LINE",
"165 119 LINE",
"165 121 OFFCURVE",
"164 128 OFFCURVE",
"164 137 CURVE SMOOTH",
"164 161 OFFCURVE",
"171 201 OFFCURVE",
"219 227 CURVE SMOOTH",
"229 232 OFFCURVE",
"238 237 OFFCURVE",
"246 242 CURVE SMOOTH",
"334 294 OFFCURVE",
"363 339 OFFCURVE",
"363 427 CURVE SMOOTH",
"363 509 LINE SMOOTH",
"363 603 OFFCURVE",
"318 621 OFFCURVE",
"213 621 CURVE SMOOTH",
"165 621 LINE SMOOTH",
"62 621 OFFCURVE",
"14 603 OFFCURVE",
"14 509 CURVE SMOOTH",
"14 412 LINE",
"165 377 LINE",
"165 470 LINE SMOOTH",
"165 498 OFFCURVE",
"170 509 OFFCURVE",
"188 509 CURVE SMOOTH",
"190 509 LINE SMOOTH",
"208 509 OFFCURVE",
"213 498 OFFCURVE",
"213 464 CURVE SMOOTH",
"213 413 LINE SMOOTH",
"213 390 OFFCURVE",
"215 366 OFFCURVE",
"158 334 CURVE SMOOTH",
"146 328 OFFCURVE",
"133 322 OFFCURVE",
"117 315 CURVE SMOOTH",
"14 271 OFFCURVE",
"15 257 OFFCURVE",
"15 0 CURVE"
);
}
);
};
layerId = "D686CB0C-BBDB-4E69-8E5A-045D5C85CA47";
paths = (
{
closed = 1;
nodes = (
"336 0 LINE",
"363 120 LINE",
"164 119 LINE",
"164 172 OFFCURVE",
"174 202 OFFCURVE",
"219 227 CURVE SMOOTH",
"229 233 OFFCURVE",
"255 247 OFFCURVE",
"274 260 CURVE SMOOTH",
"329 297 OFFCURVE",
"363 339 OFFCURVE",
"363 427 CURVE SMOOTH",
"363 509 LINE SMOOTH",
"363 603 OFFCURVE",
"318 621 OFFCURVE",
"213 621 CURVE SMOOTH",
"165 621 LINE SMOOTH",
"62 621 OFFCURVE",
"14 603 OFFCURVE",
"14 509 CURVE SMOOTH",
"14 412 LINE",
"165 377 LINE",
"165 470 LINE SMOOTH",
"165 498 OFFCURVE",
"170 509 OFFCURVE",
"186 509 CURVE SMOOTH",
"193 509 LINE SMOOTH",
"208 509 OFFCURVE",
"213 498 OFFCURVE",
"213 470 CURVE SMOOTH",
"213 413 LINE SMOOTH",
"213 377 OFFCURVE",
"199 357 OFFCURVE",
"164 338 CURVE SMOOTH",
"146 328 OFFCURVE",
"126 320 OFFCURVE",
"106 310 CURVE SMOOTH",
"31 272 OFFCURVE",
"15 253 OFFCURVE",
"15 88 CURVE SMOOTH",
"15 0 LINE"
);
}
);
width = 377;
},
{
layerId = "B8E7A328-E4C9-4125-8050-BD17141FCA48";
paths = (
{
closed = 1;
nodes = (
"297 0 LINE",
"303 17 LINE",
"61 17 LINE",
"61 83 OFFCURVE",
"68 175 OFFCURVE",
"158 250 CURVE SMOOTH",
"176 265 OFFCURVE",
"192 278 OFFCURVE",
"207 291 CURVE SMOOTH",
"266 342 OFFCURVE",
"303 384 OFFCURVE",
"303 453 CURVE SMOOTH",
"303 498 LINE SMOOTH",
"303 581 OFFCURVE",
"266 620 OFFCURVE",
"194 620 CURVE SMOOTH",
"169 620 LINE SMOOTH",
"87 620 OFFCURVE",
"47 586 OFFCURVE",
"47 488 CURVE SMOOTH",
"47 402 LINE",
"67 400 LINE",
"67 501 LINE SMOOTH",
"67 541 OFFCURVE",
"85 604 OFFCURVE",
"162 604 CURVE SMOOTH",
"191 604 LINE SMOOTH",
"247 604 OFFCURVE",
"283 574 OFFCURVE",
"283 495 CURVE SMOOTH",
"283 466 LINE SMOOTH",
"283 395 OFFCURVE",
"259 360 OFFCURVE",
"200 309 CURVE SMOOTH",
"190 301 OFFCURVE",
"179 292 OFFCURVE",
"167 283 CURVE SMOOTH",
"89 222 OFFCURVE",
"43 171 OFFCURVE",
"41 14 CURVE SMOOTH",
"41 0 LINE"
);
}
);
width = 343;
}
);
leftKerningGroup = two;
rightKerningGroup = two;
unicode = 0032;
},
{
color = 4;
glyphname = three;
lastChange = "2021-12-16 01:05:28 +0000";
layers = (
{
background = {
paths = (
{
closed = 1;
nodes = (
"200 -3 LINE SMOOTH",
"301 -3 OFFCURVE",
"364 40 OFFCURVE",
"364 132 CURVE SMOOTH",
"363 206 LINE SMOOTH",
"363 280 OFFCURVE",
"277 305 OFFCURVE",
"245 305 CURVE",
"243 306 LINE",
"245 307 LINE",
"273 307 OFFCURVE",
"363 356 OFFCURVE",
"363 448 CURVE SMOOTH",
"363 478 LINE SMOOTH",
"363 592 OFFCURVE",
"301 620 OFFCURVE",
"216 620 CURVE SMOOTH",
"173 620 LINE SMOOTH",
"72 620 OFFCURVE",
"15 578 OFFCURVE",
"15 486 CURVE SMOOTH",
"15 439 LINE",
"165 419 LINE",
"165 480 LINE SMOOTH",
"165 503 OFFCURVE",
"173 509 OFFCURVE",
"184 509 CURVE SMOOTH",
"195 509 LINE SMOOTH",
"205 509 OFFCURVE",
"213 503 OFFCURVE",
"213 480 CURVE SMOOTH",
"213 435 LINE SMOOTH",
"213 365 OFFCURVE",
"187 363 OFFCURVE",
"160 363 CURVE SMOOTH",
"75 363 LINE",
"75 262 LINE",
"186 262 LINE SMOOTH",
"205 262 OFFCURVE",
"213 257 OFFCURVE",
"213 211 CURVE SMOOTH",
"213 162 LINE SMOOTH",
"213 124 OFFCURVE",
"203 120 OFFCURVE",
"192 120 CURVE SMOOTH",
"186 120 LINE SMOOTH",
"176 120 OFFCURVE",
"165 124 OFFCURVE",
"165 162 CURVE SMOOTH",
"165 198 LINE",
"15 211 LINE",
"15 131 LINE SMOOTH",
"15 38 OFFCURVE",
"40 -3 OFFCURVE",
"189 -3 CURVE SMOOTH"
);
}
);
};
layerId = "D686CB0C-BBDB-4E69-8E5A-045D5C85CA47";
paths = (
{
closed = 1;
nodes = (
"200 -3 LINE SMOOTH",
"301 -3 OFFCURVE",
"364 40 OFFCURVE",
"364 132 CURVE SMOOTH",
"363 206 LINE SMOOTH",
"363 280 OFFCURVE",
"277 305 OFFCURVE",
"245 305 CURVE",
"245 307 LINE",
"273 307 OFFCURVE",
"363 356 OFFCURVE",
"363 448 CURVE SMOOTH",
"363 478 LINE SMOOTH",
"363 592 OFFCURVE",
"301 620 OFFCURVE",
"216 620 CURVE SMOOTH",
"173 620 LINE SMOOTH",
"72 620 OFFCURVE",
"15 578 OFFCURVE",
"15 486 CURVE SMOOTH",
"15 439 LINE",
"165 419 LINE",
"165 480 LINE SMOOTH",
"165 503 OFFCURVE",
"173 509 OFFCURVE",
"184 509 CURVE SMOOTH",
"195 509 LINE SMOOTH",
"205 509 OFFCURVE",
"213 503 OFFCURVE",
"213 480 CURVE SMOOTH",
"213 435 LINE SMOOTH",
"213 365 OFFCURVE",
"187 363 OFFCURVE",
"160 363 CURVE SMOOTH",
"75 363 LINE",
"75 262 LINE",
"186 262 LINE SMOOTH",
"205 262 OFFCURVE",
"213 257 OFFCURVE",
"213 211 CURVE SMOOTH",
"213 162 LINE SMOOTH",
"213 124 OFFCURVE",
"203 120 OFFCURVE",
"192 120 CURVE SMOOTH",
"186 120 LINE SMOOTH",
"176 120 OFFCURVE",
"165 124 OFFCURVE",
"165 162 CURVE SMOOTH",
"165 198 LINE",
"15 211 LINE",
"15 131 LINE SMOOTH",
"15 38 OFFCURVE",
"40 -3 OFFCURVE",
"189 -3 CURVE SMOOTH"
);
}
);
width = 378;
},
{
layerId = "B8E7A328-E4C9-4125-8050-BD17141FCA48";
paths = (
{
closed = 1;
nodes = (
"196 0 LINE SMOOTH",
"266 0 OFFCURVE",
"309 40 OFFCURVE",
"309 132 CURVE SMOOTH",
"309 206 LINE SMOOTH",
"309 289 OFFCURVE",
"261 320 OFFCURVE",
"212 320 CURVE",
"212 321 LINE",
"261 321 OFFCURVE",
"309 365 OFFCURVE",
"309 448 CURVE SMOOTH",
"309 494 LINE SMOOTH",
"309 595 OFFCURVE",
"271 620 OFFCURVE",
"201 620 CURVE SMOOTH",
"151 620 LINE SMOOTH",
"86 620 OFFCURVE",
"47 578 OFFCURVE",
"47 496 CURVE SMOOTH",
"47 417 LINE",
"67 408 LINE",
"67 495 LINE SMOOTH",
"67 549 OFFCURVE",
"85 604 OFFCURVE",
"159 604 CURVE SMOOTH",
"196 604 LINE SMOOTH",
"263 604 OFFCURVE",
"289 580 OFFCURVE",
"289 496 CURVE SMOOTH",
"289 449 LINE SMOOTH",
"289 356 OFFCURVE",
"243 329 OFFCURVE",
"185 329 CURVE SMOOTH",
"128 329 LINE",
"128 313 LINE",
"185 313 LINE SMOOTH",
"246 313 OFFCURVE",
"289 290 OFFCURVE",
"289 192 CURVE SMOOTH",
"289 139 LINE SMOOTH",
"289 70 OFFCURVE",
"268 17 OFFCURVE",
"194 17 CURVE SMOOTH",
"163 17 LINE SMOOTH",
"91 17 OFFCURVE",
"67 63 OFFCURVE",
"67 141 CURVE SMOOTH",
"67 213 LINE",
"47 219 LINE",
"47 131 LINE SMOOTH",
"47 38 OFFCURVE",
"82 0 OFFCURVE",
"163 0 CURVE SMOOTH"
);
}
);
width = 359;
}
);
leftKerningGroup = three;
rightKerningGroup = three;
unicode = 0033;
},
{
glyphname = four;
lastChange = "2021-12-16 01:06:44 +0000";
layers = (
{
background = {
paths = (
{
closed = 1;
nodes = (
"413 0 LINE",
"412 118 LINE",
"486 118 LINE",
"513 239 LINE",
"410 239 LINE",
"413 620 LINE",
"205 620 LINE",
"0 189 LINE",
"44 118 LINE",
"244 118 LINE",
"242 0 LINE"
);
},
{
closed = 1;
nodes = (
"171 239 LINE",
"252 438 LINE",
"252 239 LINE"
);
},
{
closed = 1;
nodes = (
"413 0 LINE",
"412 118 LINE",
"486 118 LINE",
"513 239 LINE",
"410 239 LINE",
"413 620 LINE",
"205 620 LINE",
"0 189 LINE",
"44 118 LINE",
"244 118 LINE",
"242 0 LINE"
);
},
{
closed = 1;
nodes = (
"252 438 LINE",
"252 239 LINE",
"171 239 LINE"
);
}
);
};
layerId = "D686CB0C-BBDB-4E69-8E5A-045D5C85CA47";
paths = (
{
closed = 1;
nodes = (
"392 0 LINE",
"391 118 LINE",
"445 118 LINE",
"472 239 LINE",
"389 239 LINE",
"392 620 LINE",
"196 620 LINE",
"0 189 LINE",
"44 118 LINE",
"229 118 LINE",
"227 0 LINE"
);
},
{
closed = 1;
nodes = (
"237 438 LINE",
"237 239 LINE",
"171 239 LINE"
);
}
);
width = 468;
},
{
background = {
paths = (
{
closed = 1;
nodes = (
"336 0 LINE",
"336 131 LINE",
"433 131 LINE",
"439 148 LINE",
"335 148 LINE",
"336 620 LINE",
"315 620 LINE",
"12 143 LINE",
"21 131 LINE",
"315 131 LINE",
"314 0 LINE"
);
},
{
closed = 1;
nodes = (
"315 586 LINE",
"315 148 LINE",
"37 148 LINE"
);
}
);
};
layerId = "B8E7A328-E4C9-4125-8050-BD17141FCA48";
paths = (
{
closed = 1;
nodes = (
"286 0 LINE",
"286 131 LINE",
"383 131 LINE",
"389 148 LINE",
"285 148 LINE",
"286 620 LINE",
"265 620 LINE",
"12 143 LINE",
"21 131 LINE",
"265 131 LINE",
"264 0 LINE"
);
},
{
closed = 1;
nodes = (
"265 586 LINE",
"265 148 LINE",
"37 148 LINE"
);
}
);
width = 396;
}
);
leftKerningGroup = four;
rightKerningGroup = four;
unicode = 0034;
},
{
glyphname = five;
lastChange = "2021-12-16 01:05:10 +0000";
layers = (
{
background = {
paths = (
{
closed = 1;
nodes = (
"228 -2 LINE SMOOTH",
"256 -2 OFFCURVE",
"371 0 OFFCURVE",
"371 166 CURVE SMOOTH",
"371 303 LINE SMOOTH",
"371 437 OFFCURVE",
"298 442 OFFCURVE",
"275 442 CURVE SMOOTH",
"247 442 LINE SMOOTH",
"219 442 OFFCURVE",
"183 436 OFFCURVE",
"173 427 CURVE",
"173 500 LINE",
"367 500 LINE",
"367 620 LINE",
"23 620 LINE",
"23 308 LINE",
"171 279 LINE",
"171 308 OFFCURVE",
"178 336 OFFCURVE",
"197 336 CURVE SMOOTH",
"203 336 LINE SMOOTH",
"218 336 OFFCURVE",
"221 326 OFFCURVE",
"221 281 CURVE SMOOTH",
"221 181 LINE SMOOTH",
"221 141 OFFCURVE",
"221 120 OFFCURVE",
"201 120 CURVE SMOOTH",
"192 120 LINE SMOOTH",
"180 120 OFFCURVE",
"173 126 OFFCURVE",
"173 166 CURVE SMOOTH",
"173 196 LINE",
"16 220 LINE",
"16 142 LINE SMOOTH",
"16 50 OFFCURVE",
"46 -2 OFFCURVE",
"180 -2 CURVE SMOOTH"
);
}
);
};
layerId = "D686CB0C-BBDB-4E69-8E5A-045D5C85CA47";
paths = (
{
closed = 1;
nodes = (
"228 -2 LINE SMOOTH",
"256 -2 OFFCURVE",
"371 0 OFFCURVE",
"371 166 CURVE SMOOTH",
"371 303 LINE SMOOTH",
"371 437 OFFCURVE",
"298 442 OFFCURVE",
"275 442 CURVE SMOOTH",
"247 442 LINE SMOOTH",
"219 442 OFFCURVE",
"183 436 OFFCURVE",
"173 427 CURVE",
"173 500 LINE",
"367 500 LINE",
"367 620 LINE",
"23 620 LINE",
"23 308 LINE",
"171 279 LINE",
"171 308 OFFCURVE",
"178 336 OFFCURVE",
"197 336 CURVE SMOOTH",
"203 336 LINE SMOOTH",
"218 336 OFFCURVE",
"221 326 OFFCURVE",
"221 281 CURVE SMOOTH",
"221 181 LINE SMOOTH",
"221 141 OFFCURVE",
"221 120 OFFCURVE",
"201 120 CURVE SMOOTH",
"192 120 LINE SMOOTH",
"180 120 OFFCURVE",
"173 126 OFFCURVE",
"173 166 CURVE SMOOTH",
"173 196 LINE",
"16 220 LINE",
"16 142 LINE SMOOTH",
"16 50 OFFCURVE",
"46 -2 OFFCURVE",
"180 -2 CURVE SMOOTH"
);
}
);
width = 388;
},
{
layerId = "B8E7A328-E4C9-4125-8050-BD17141FCA48";
paths = (
{
closed = 1;
nodes = (
"202 -2 LINE SMOOTH",
"255 -2 OFFCURVE",
"316 30 OFFCURVE",
"316 134 CURVE SMOOTH",
"316 227 LINE SMOOTH",
"316 349 OFFCURVE",
"291 390 OFFCURVE",
"205 390 CURVE SMOOTH",
"180 390 LINE SMOOTH",
"114 390 OFFCURVE",
"79 341 OFFCURVE",
"74 333 CURVE",
"74 603 LINE",
"302 603 LINE",
"302 620 LINE",
"54 620 LINE",
"54 312 LINE",
"75 307 LINE",
"79 321 OFFCURVE",
"113 374 OFFCURVE",
"177 374 CURVE SMOOTH",
"200 374 LINE SMOOTH",
"265 374 OFFCURVE",
"296 348 OFFCURVE",
"296 226 CURVE SMOOTH",
"296 125 LINE SMOOTH",
"296 60 OFFCURVE",
"257 15 OFFCURVE",
"200 15 CURVE SMOOTH",
"159 15 LINE SMOOTH",
"90 15 OFFCURVE",
"74 66 OFFCURVE",
"74 130 CURVE SMOOTH",
"74 209 LINE",
"54 216 LINE",
"54 131 LINE SMOOTH",
"54 40 OFFCURVE",
"82 -2 OFFCURVE",
"159 -2 CURVE SMOOTH"
);
}
);
width = 357;
}
);
leftKerningGroup = five;
rightKerningGroup = five;
unicode = 0035;
},
{
glyphname = six;
lastChange = "2021-12-16 01:04:51 +0000";
layers = (
{
background = {
paths = (
{
closed = 1;
nodes = (
"283 -7 OFFCURVE",
"366 0 OFFCURVE",
"366 132 CURVE SMOOTH",
"366 279 LINE SMOOTH",
"366 350 OFFCURVE",
"327 393 OFFCURVE",
"258 393 CURVE SMOOTH",
"191 393 OFFCURVE",
"174 378 OFFCURVE",
"168 365 CURVE",
"168 458 LINE SMOOTH",
"168 491 OFFCURVE",
"174 502 OFFCURVE",
"193 502 CURVE SMOOTH",
"210 502 OFFCURVE",
"216 491 OFFCURVE",
"216 458 CURVE SMOOTH",
"216 430 LINE",
"363 440 LINE",
"363 507 LINE SMOOTH",
"363 605 OFFCURVE",
"291 626 OFFCURVE",
"193 626 CURVE SMOOTH",
"70 626 OFFCURVE",
"18 593 OFFCURVE",
"18 472 CURVE SMOOTH",
"18 132 LINE SMOOTH",
"18 2 OFFCURVE",
"104 -7 OFFCURVE",
"193 -7 CURVE SMOOTH"
);
},
{
closed = 1;
nodes = (
"170 119 OFFCURVE",
"168 133 OFFCURVE",
"168 174 CURVE SMOOTH",
"168 255 LINE SMOOTH",
"168 290 OFFCURVE",
"176 300 OFFCURVE",
"192 300 CURVE SMOOTH",
"211 300 OFFCURVE",
"216 290 OFFCURVE",
"216 255 CURVE SMOOTH",
"216 174 LINE SMOOTH",
"216 133 OFFCURVE",
"214 119 OFFCURVE",
"192 119 CURVE SMOOTH"
);
}
);
};
layerId = "D686CB0C-BBDB-4E69-8E5A-045D5C85CA47";
paths = (
{
closed = 1;
nodes = (
"283 -7 OFFCURVE",
"366 0 OFFCURVE",
"366 132 CURVE SMOOTH",
"366 279 LINE SMOOTH",
"366 350 OFFCURVE",
"327 393 OFFCURVE",
"258 393 CURVE SMOOTH",
"191 393 OFFCURVE",
"174 378 OFFCURVE",
"168 365 CURVE",
"168 458 LINE SMOOTH",
"168 491 OFFCURVE",
"174 502 OFFCURVE",
"193 502 CURVE SMOOTH",
"210 502 OFFCURVE",
"216 491 OFFCURVE",
"216 458 CURVE SMOOTH",
"216 430 LINE",
"363 440 LINE",
"363 507 LINE SMOOTH",
"363 605 OFFCURVE",
"291 626 OFFCURVE",
"193 626 CURVE SMOOTH",
"70 626 OFFCURVE",
"18 593 OFFCURVE",
"18 472 CURVE SMOOTH",
"18 132 LINE SMOOTH",
"18 2 OFFCURVE",
"104 -7 OFFCURVE",
"193 -7 CURVE SMOOTH"
);
},
{
closed = 1;
nodes = (
"170 119 OFFCURVE",
"168 133 OFFCURVE",
"168 174 CURVE SMOOTH",
"168 255 LINE SMOOTH",
"168 290 OFFCURVE",
"176 300 OFFCURVE",
"192 300 CURVE SMOOTH",
"211 300 OFFCURVE",
"216 290 OFFCURVE",
"216 255 CURVE SMOOTH",
"216 174 LINE SMOOTH",
"216 133 OFFCURVE",
"214 119 OFFCURVE",
"192 119 CURVE SMOOTH"
);
}
);
width = 380;
},
{
layerId = "B8E7A328-E4C9-4125-8050-BD17141FCA48";
paths = (
{
closed = 1;
nodes = (
"264 -3 OFFCURVE",
"312 24 OFFCURVE",
"312 161 CURVE SMOOTH",
"312 261 LINE SMOOTH",
"312 324 OFFCURVE",
"293 393 OFFCURVE",
"186 393 CURVE SMOOTH",
"122 393 OFFCURVE",
"79 361 OFFCURVE",
"70 320 CURVE",
"70 505 LINE SMOOTH",
"70 569 OFFCURVE",
"103 605 OFFCURVE",
"182 605 CURVE SMOOTH",
"260 605 OFFCURVE",
"292 569 OFFCURVE",
"292 505 CURVE SMOOTH",
"292 443 LINE",
"312 450 LINE",
"312 508 LINE SMOOTH",
"312 577 OFFCURVE",
"278 623 OFFCURVE",
"182 623 CURVE SMOOTH",
"83 623 OFFCURVE",
"50 577 OFFCURVE",
"50 505 CURVE SMOOTH",
"50 161 LINE SMOOTH",
"50 24 OFFCURVE",
"103 -3 OFFCURVE",
"178 -3 CURVE SMOOTH"
);
},
{
closed = 1;
nodes = (
"122 14 OFFCURVE",
"70 37 OFFCURVE",
"70 163 CURVE SMOOTH",
"70 259 LINE SMOOTH",
"70 329 OFFCURVE",
"104 377 OFFCURVE",
"181 377 CURVE SMOOTH",
"276 377 OFFCURVE",
"292 313 OFFCURVE",
"292 259 CURVE SMOOTH",
"292 163 LINE SMOOTH",
"292 37 OFFCURVE",
"247 14 OFFCURVE",
"177 14 CURVE SMOOTH"
);
}
);
width = 359;
}
);
leftKerningGroup = six;
rightKerningGroup = six;
unicode = 0036;
},
{
glyphname = seven;
lastChange = "2021-12-16 01:06:24 +0000";
layers = (
{
background = {
paths = (
{
closed = 1;
nodes = (
"209 0 LINE",
"424 620 LINE",
"36 620 LINE",
"10 500 LINE",
"210 500 LINE",
"34 0 LINE"
);
}
);
};
layerId = "D686CB0C-BBDB-4E69-8E5A-045D5C85CA47";
paths = (
{
closed = 1;
nodes = (
"209 0 LINE",
"424 620 LINE",
"36 620 LINE",
"10 500 LINE",
"210 500 LINE",
"34 0 LINE"
);
}
);
width = 426;
},
{
layerId = "B8E7A328-E4C9-4125-8050-BD17141FCA48";
paths = (
{
closed = 1;
nodes = (
"47 0 LINE",
"317 620 LINE",
"24 620 LINE",
"20 603 LINE",
"287 603 LINE",
"23 0 LINE"
);
}
);
width = 317;
}
);
leftKerningGroup = seven;
rightKerningGroup = seven;
unicode = 0037;
},
{
glyphname = eight;
lastChange = "2021-12-16 01:06:34 +0000";
layers = (
{
background = {
paths = (
{
closed = 1;
nodes = (
"211 -3 LINE SMOOTH",
"329 -3 OFFCURVE",
"364 34 OFFCURVE",
"364 161 CURVE SMOOTH",
"364 189 LINE SMOOTH",
"364 277 OFFCURVE",
"310 303 OFFCURVE",
"280 310 CURVE",
"309 319 OFFCURVE",
"359 352 OFFCURVE",
"359 431 CURVE SMOOTH",
"359 480 LINE SMOOTH",
"359 578 OFFCURVE",
"327 623 OFFCURVE",
"215 623 CURVE SMOOTH",
"161 623 LINE SMOOTH",
"48 623 OFFCURVE",
"20 573 OFFCURVE",
"20 471 CURVE SMOOTH",
"20 431 LINE SMOOTH",
"20 346 OFFCURVE",
"65 319 OFFCURVE",
"91 310 CURVE",
"66 306 OFFCURVE",
"16 284 OFFCURVE",
"16 189 CURVE SMOOTH",
"16 145 LINE SMOOTH",
"16 35 OFFCURVE",
"48 -3 OFFCURVE",
"159 -3 CURVE SMOOTH"
);
},
{
closed = 1;
nodes = (
"168 119 OFFCURVE",
"166 130 OFFCURVE",
"166 164 CURVE SMOOTH",
"166 230 LINE SMOOTH",
"166 259 OFFCURVE",
"174 267 OFFCURVE",
"190 267 CURVE SMOOTH",
"209 267 OFFCURVE",
"214 259 OFFCURVE",
"214 230 CURVE SMOOTH",
"214 164 LINE SMOOTH",
"214 130 OFFCURVE",
"212 119 OFFCURVE",
"190 119 CURVE SMOOTH"
);
},
{
closed = 1;
nodes = (
"168 381 OFFCURVE",
"166 392 OFFCURVE",
"166 425 CURVE SMOOTH",
"166 474 LINE SMOOTH",
"166 502 OFFCURVE",
"174 510 OFFCURVE",
"190 510 CURVE SMOOTH",
"209 510 OFFCURVE",
"214 502 OFFCURVE",
"214 474 CURVE SMOOTH",
"214 425 LINE SMOOTH",
"214 392 OFFCURVE",
"212 381 OFFCURVE",
"190 381 CURVE SMOOTH"
);
}
);
};
layerId = "D686CB0C-BBDB-4E69-8E5A-045D5C85CA47";
paths = (
{
closed = 1;
nodes = (
"211 -3 LINE SMOOTH",
"329 -3 OFFCURVE",
"364 34 OFFCURVE",
"364 161 CURVE SMOOTH",
"364 189 LINE SMOOTH",
"364 277 OFFCURVE",
"310 303 OFFCURVE",
"280 310 CURVE",
"309 319 OFFCURVE",
"359 352 OFFCURVE",
"359 431 CURVE SMOOTH",
"359 480 LINE SMOOTH",
"359 578 OFFCURVE",
"327 623 OFFCURVE",
"215 623 CURVE SMOOTH",
"161 623 LINE SMOOTH",
"48 623 OFFCURVE",
"20 573 OFFCURVE",
"20 471 CURVE SMOOTH",
"20 431 LINE SMOOTH",
"20 346 OFFCURVE",
"65 319 OFFCURVE",
"91 310 CURVE",
"66 306 OFFCURVE",
"16 284 OFFCURVE",
"16 189 CURVE SMOOTH",
"16 145 LINE SMOOTH",
"16 35 OFFCURVE",
"48 -3 OFFCURVE",
"159 -3 CURVE SMOOTH"
);
},
{
closed = 1;
nodes = (
"168 119 OFFCURVE",
"166 130 OFFCURVE",
"166 164 CURVE SMOOTH",
"166 230 LINE SMOOTH",
"166 259 OFFCURVE",
"174 267 OFFCURVE",
"190 267 CURVE SMOOTH",
"209 267 OFFCURVE",
"214 259 OFFCURVE",
"214 230 CURVE SMOOTH",
"214 164 LINE SMOOTH",
"214 130 OFFCURVE",
"212 119 OFFCURVE",
"190 119 CURVE SMOOTH"
);
},
{
closed = 1;
nodes = (
"168 381 OFFCURVE",
"166 392 OFFCURVE",
"166 425 CURVE SMOOTH",
"166 474 LINE SMOOTH",
"166 502 OFFCURVE",
"174 510 OFFCURVE",
"190 510 CURVE SMOOTH",
"209 510 OFFCURVE",
"214 502 OFFCURVE",
"214 474 CURVE SMOOTH",
"214 425 LINE SMOOTH",
"214 392 OFFCURVE",
"212 381 OFFCURVE",
"190 381 CURVE SMOOTH"
);
}
);
width = 380;
},
{
layerId = "B8E7A328-E4C9-4125-8050-BD17141FCA48";
paths = (
{
closed = 1;
nodes = (
"182 -2 LINE SMOOTH",
"271 -2 OFFCURVE",
"316 36 OFFCURVE",
"316 162 CURVE SMOOTH",
"316 192 LINE SMOOTH",
"316 276 OFFCURVE",
"284 316 OFFCURVE",
"231 321 CURVE",
"282 335 OFFCURVE",
"313 362 OFFCURVE",
"313 451 CURVE SMOOTH",
"313 486 LINE SMOOTH",
"313 585 OFFCURVE",
"273 622 OFFCURVE",
"194 622 CURVE SMOOTH",
"174 622 LINE SMOOTH",
"91 622 OFFCURVE",
"51 584 OFFCURVE",
"51 487 CURVE SMOOTH",
"51 450 LINE SMOOTH",
"51 361 OFFCURVE",
"82 335 OFFCURVE",
"133 321 CURVE",
"79 316 OFFCURVE",
"48 276 OFFCURVE",
"48 192 CURVE SMOOTH",
"48 146 LINE SMOOTH",
"48 36 OFFCURVE",
"91 -2 OFFCURVE",
"174 -2 CURVE SMOOTH"
);
},
{
closed = 1;
nodes = (
"123 15 OFFCURVE",
"69 33 OFFCURVE",
"69 148 CURVE SMOOTH",
"69 195 LINE SMOOTH",
"69 270 OFFCURVE",
"88 315 OFFCURVE",
"182 315 CURVE SMOOTH",
"277 315 OFFCURVE",
"295 270 OFFCURVE",
"295 195 CURVE SMOOTH",
"295 162 LINE SMOOTH",
"295 33 OFFCURVE",
"248 15 OFFCURVE",
"178 15 CURVE SMOOTH"
);
},
{
closed = 1;
nodes = (
"114 331 OFFCURVE",
"71 352 OFFCURVE",
"71 450 CURVE SMOOTH",
"71 488 LINE SMOOTH",
"71 556 OFFCURVE",
"88 606 OFFCURVE",
"182 606 CURVE SMOOTH",
"277 606 OFFCURVE",
"293 556 OFFCURVE",
"293 485 CURVE SMOOTH",
"293 451 LINE SMOOTH",
"293 352 OFFCURVE",
"250 331 OFFCURVE",
"182 331 CURVE SMOOTH"
);
}
);
width = 364;
}
);
leftKerningGroup = eight;
rightKerningGroup = eight;
unicode = 0038;
},
{
glyphname = nine;
lastChange = "2021-12-16 01:04:38 +0000";
layers = (
{
background = {
paths = (
{
closed = 1;
nodes = (
"310 -7 OFFCURVE",
"362 26 OFFCURVE",
"362 147 CURVE SMOOTH",
"362 487 LINE SMOOTH",
"362 617 OFFCURVE",
"276 626 OFFCURVE",
"187 626 CURVE SMOOTH",
"97 626 OFFCURVE",
"14 619 OFFCURVE",
"14 487 CURVE SMOOTH",
"14 340 LINE SMOOTH",
"14 269 OFFCURVE",
"53 226 OFFCURVE",
"122 226 CURVE SMOOTH",
"189 226 OFFCURVE",
"206 241 OFFCURVE",
"212 254 CURVE",
"212 161 LINE SMOOTH",
"212 128 OFFCURVE",
"206 117 OFFCURVE",
"187 117 CURVE SMOOTH",
"170 117 OFFCURVE",
"164 128 OFFCURVE",
"164 161 CURVE SMOOTH",
"164 184 LINE",
"17 193 LINE",
"17 112 LINE SMOOTH",
"17 14 OFFCURVE",
"89 -7 OFFCURVE",
"187 -7 CURVE SMOOTH"
);
},
{
closed = 1;
nodes = (
"169 319 OFFCURVE",
"164 329 OFFCURVE",
"164 364 CURVE SMOOTH",
"164 445 LINE SMOOTH",
"164 486 OFFCURVE",
"166 500 OFFCURVE",
"188 500 CURVE SMOOTH",
"210 500 OFFCURVE",
"212 486 OFFCURVE",
"212 445 CURVE SMOOTH",
"212 364 LINE SMOOTH",
"212 329 OFFCURVE",
"204 319 OFFCURVE",
"188 319 CURVE SMOOTH"
);
}
);
};
layerId = "D686CB0C-BBDB-4E69-8E5A-045D5C85CA47";
paths = (
{
closed = 1;
nodes = (
"310 -7 OFFCURVE",
"362 26 OFFCURVE",
"362 147 CURVE SMOOTH",
"362 487 LINE SMOOTH",
"362 617 OFFCURVE",
"276 626 OFFCURVE",
"187 626 CURVE SMOOTH",
"97 626 OFFCURVE",
"14 619 OFFCURVE",
"14 487 CURVE SMOOTH",
"14 340 LINE SMOOTH",
"14 269 OFFCURVE",
"53 226 OFFCURVE",
"122 226 CURVE SMOOTH",
"189 226 OFFCURVE",
"206 241 OFFCURVE",
"212 254 CURVE",
"212 161 LINE SMOOTH",
"212 128 OFFCURVE",
"206 117 OFFCURVE",
"187 117 CURVE SMOOTH",
"170 117 OFFCURVE",
"164 128 OFFCURVE",
"164 161 CURVE SMOOTH",
"164 184 LINE",
"17 193 LINE",
"17 112 LINE SMOOTH",
"17 14 OFFCURVE",
"89 -7 OFFCURVE",
"187 -7 CURVE SMOOTH"
);
},
{
closed = 1;
nodes = (
"169 319 OFFCURVE",
"164 329 OFFCURVE",
"164 364 CURVE SMOOTH",
"164 445 LINE SMOOTH",
"164 486 OFFCURVE",
"166 500 OFFCURVE",
"188 500 CURVE SMOOTH",
"210 500 OFFCURVE",
"212 486 OFFCURVE",
"212 445 CURVE SMOOTH",
"212 364 LINE SMOOTH",
"212 329 OFFCURVE",
"204 319 OFFCURVE",
"188 319 CURVE SMOOTH"
);
}
);
width = 380;
},
{
layerId = "B8E7A328-E4C9-4125-8050-BD17141FCA48";
paths = (
{
closed = 1;
nodes = (
"277 -4 OFFCURVE",
"309 42 OFFCURVE",
"309 114 CURVE SMOOTH",
"309 458 LINE SMOOTH",
"309 595 OFFCURVE",
"257 622 OFFCURVE",
"182 622 CURVE SMOOTH",
"97 622 OFFCURVE",
"48 595 OFFCURVE",
"48 458 CURVE SMOOTH",
"48 358 LINE SMOOTH",
"48 295 OFFCURVE",
"66 226 OFFCURVE",
"175 226 CURVE SMOOTH",
"239 226 OFFCURVE",
"280 258 OFFCURVE",
"289 299 CURVE",
"289 114 LINE SMOOTH",
"289 50 OFFCURVE",
"258 14 OFFCURVE",
"178 14 CURVE SMOOTH",
"100 14 OFFCURVE",
"68 50 OFFCURVE",
"68 114 CURVE SMOOTH",
"68 175 LINE",
"48 181 LINE",
"48 111 LINE SMOOTH",
"48 42 OFFCURVE",
"82 -4 OFFCURVE",
"178 -4 CURVE SMOOTH"
);
},
{
closed = 1;
nodes = (
"84 242 OFFCURVE",
"68 306 OFFCURVE",
"68 360 CURVE SMOOTH",
"68 456 LINE SMOOTH",
"68 582 OFFCURVE",
"112 605 OFFCURVE",
"183 605 CURVE SMOOTH",
"239 605 OFFCURVE",
"289 582 OFFCURVE",
"289 456 CURVE SMOOTH",
"289 360 LINE SMOOTH",
"289 290 OFFCURVE",
"257 242 OFFCURVE",
"179 242 CURVE SMOOTH"
);
}
);
width = 359;
}
);
leftKerningGroup = nine;
rightKerningGroup = nine;
unicode = 0039;
},
{
glyphname = onesuperior;
lastChange = "2021-12-15 23:40:28 +0000";
layers = (
{
background = {
paths = (
{
closed = 1;
nodes = (
"243 240 LINE",
"242 643 LINE",
"117 643 LINE",
"5 504 LINE",
"58 454 LINE",
"115 513 LINE",
"115 240 LINE"
);
}
);
};
layerId = "D686CB0C-BBDB-4E69-8E5A-045D5C85CA47";
paths = (
{
closed = 1;
nodes = (
"243 240 LINE",
"242 643 LINE",
"117 643 LINE",
"5 504 LINE",
"58 454 LINE",
"115 513 LINE",
"115 240 LINE"
);
}
);
width = 263;
},
{
layerId = "B8E7A328-E4C9-4125-8050-BD17141FCA48";
paths = (
{
closed = 1;
nodes = (
"128 219 LINE",
"128 622 LINE",
"109 622 LINE",
"20 510 LINE",
"29 501 LINE",
"109 597 LINE",
"109 219 LINE"
);
}
);
width = 186;
}
);
unicode = 00B9;
},
{
glyphname = twosuperior;
lastChange = "2021-12-15 23:40:28 +0000";
layers = (
{
background = {
paths = (
{
closed = 1;
nodes = (
"292 240 LINE",
"310 340 LINE",
"144 339 LINE",
"144 343 OFFCURVE",
"153 363 OFFCURVE",
"197 388 CURVE",
"204 391 OFFCURVE",
"210 395 OFFCURVE",
"215 397 CURVE SMOOTH",
"291 427 OFFCURVE",
"310 460 OFFCURVE",
"310 518 CURVE SMOOTH",
"310 571 LINE SMOOTH",
"310 632 OFFCURVE",
"281 644 OFFCURVE",
"212 644 CURVE SMOOTH",
"114 644 LINE SMOOTH",
"47 644 OFFCURVE",
"16 632 OFFCURVE",
"16 571 CURVE SMOOTH",
"16 508 LINE",
"144 485 LINE",
"144 545 LINE SMOOTH",
"144 564 OFFCURVE",
"147 571 OFFCURVE",
"159 571 CURVE SMOOTH",
"160 571 LINE SMOOTH",
"172 571 OFFCURVE",
"175 564 OFFCURVE",
"175 542 CURVE SMOOTH",
"175 508 LINE SMOOTH",
"175 493 OFFCURVE",
"177 478 OFFCURVE",
"110 457 CURVE SMOOTH",
"102 454 OFFCURVE",
"93 449 OFFCURVE",
"83 445 CURVE SMOOTH",
"16 416 OFFCURVE",
"17 407 OFFCURVE",
"17 240 CURVE"
);
}
);
};
layerId = "D686CB0C-BBDB-4E69-8E5A-045D5C85CA47";
paths = (
{
closed = 1;
nodes = (
"292 240 LINE",
"310 340 LINE",
"144 339 LINE",
"144 343 OFFCURVE",
"153 363 OFFCURVE",
"197 388 CURVE",
"204 391 OFFCURVE",
"210 395 OFFCURVE",
"215 397 CURVE SMOOTH",
"291 427 OFFCURVE",
"310 460 OFFCURVE",
"310 518 CURVE SMOOTH",
"310 571 LINE SMOOTH",
"310 632 OFFCURVE",
"281 644 OFFCURVE",
"212 644 CURVE SMOOTH",
"114 644 LINE SMOOTH",
"47 644 OFFCURVE",
"16 632 OFFCURVE",
"16 571 CURVE SMOOTH",
"16 508 LINE",
"144 485 LINE",
"144 545 LINE SMOOTH",
"144 564 OFFCURVE",
"147 571 OFFCURVE",
"159 571 CURVE SMOOTH",
"160 571 LINE SMOOTH",
"172 571 OFFCURVE",
"175 564 OFFCURVE",
"175 542 CURVE SMOOTH",
"175 508 LINE SMOOTH",
"175 493 OFFCURVE",
"177 478 OFFCURVE",
"110 457 CURVE SMOOTH",
"102 454 OFFCURVE",
"93 449 OFFCURVE",
"83 445 CURVE SMOOTH",
"16 416 OFFCURVE",
"17 407 OFFCURVE",
"17 240 CURVE"
);
}
);
width = 326;
},
{
layerId = "B8E7A328-E4C9-4125-8050-BD17141FCA48";
paths = (
{
closed = 1;
nodes = (
"206 222 LINE",
"210 238 LINE",
"53 238 LINE",
"53 278 OFFCURVE",
"54 330 OFFCURVE",
"114 380 CURVE SMOOTH",
"125 390 OFFCURVE",
"135 398 OFFCURVE",
"144 406 CURVE SMOOTH",
"186 439 OFFCURVE",
"213 471 OFFCURVE",
"213 516 CURVE SMOOTH",
"213 545 LINE SMOOTH",
"213 599 OFFCURVE",
"185 625 OFFCURVE",
"138 625 CURVE SMOOTH",
"118 625 LINE SMOOTH",
"63 625 OFFCURVE",
"38 602 OFFCURVE",
"38 539 CURVE SMOOTH",
"38 483 LINE",
"57 481 LINE",
"57 547 LINE SMOOTH",
"57 573 OFFCURVE",
"66 609 OFFCURVE",
"115 609 CURVE SMOOTH",
"135 609 LINE SMOOTH",
"171 609 OFFCURVE",
"193 592 OFFCURVE",
"193 543 CURVE SMOOTH",
"193 524 LINE SMOOTH",
"193 479 OFFCURVE",
"179 456 OFFCURVE",
"137 423 CURVE SMOOTH",
"131 417 OFFCURVE",
"124 411 OFFCURVE",
"116 406 CURVE SMOOTH",
"65 365 OFFCURVE",
"34 331 OFFCURVE",
"34 222 CURVE"
);
}
);
width = 248;
}
);
unicode = 00B2;
},
{
color = 4;
glyphname = threesuperior;
lastChange = "2021-12-15 23:40:28 +0000";
layers = (
{
background = {
paths = (
{
closed = 1;
nodes = (
"202 240 LINE SMOOTH",
"268 240 OFFCURVE",
"309 268 OFFCURVE",
"309 328 CURVE SMOOTH",
"308 376 LINE SMOOTH",
"308 424 OFFCURVE",
"252 440 OFFCURVE",
"231 440 CURVE SMOOTH",
"193 441 LINE",
"231 442 LINE SMOOTH",
"250 442 OFFCURVE",
"308 473 OFFCURVE",
"308 533 CURVE SMOOTH",
"308 553 LINE SMOOTH",
"308 627 OFFCURVE",
"268 645 OFFCURVE",
"213 645 CURVE SMOOTH",
"106 645 LINE SMOOTH",
"40 645 OFFCURVE",
"14 618 OFFCURVE",
"14 575 CURVE SMOOTH",
"14 527 LINE",
"142 505 LINE",
"142 554 LINE SMOOTH",
"142 569 OFFCURVE",
"148 573 OFFCURVE",
"155 573 CURVE SMOOTH",
"162 573 LINE SMOOTH",
"168 573 OFFCURVE",
"174 569 OFFCURVE",
"174 554 CURVE SMOOTH",
"174 525 LINE SMOOTH",
"174 486 OFFCURVE",
"157 484 OFFCURVE",
"139 484 CURVE SMOOTH",
"87 484 LINE",
"87 407 LINE",
"156 406 LINE SMOOTH",
"168 406 OFFCURVE",
"174 403 OFFCURVE",
"174 379 CURVE SMOOTH",
"174 347 LINE SMOOTH",
"174 323 OFFCURVE",
"167 320 OFFCURVE",
"160 320 CURVE SMOOTH",
"156 320 LINE SMOOTH",
"150 320 OFFCURVE",
"142 323 OFFCURVE",
"142 347 CURVE SMOOTH",
"142 371 LINE",
"14 384 LINE",
"14 327 LINE SMOOTH",
"14 267 OFFCURVE",
"54 240 OFFCURVE",
"135 240 CURVE SMOOTH"
);
}
);
};
layerId = "D686CB0C-BBDB-4E69-8E5A-045D5C85CA47";
paths = (
{
closed = 1;
nodes = (
"202 240 LINE SMOOTH",
"268 240 OFFCURVE",
"309 268 OFFCURVE",
"309 328 CURVE SMOOTH",
"308 376 LINE SMOOTH",
"308 424 OFFCURVE",
"252 440 OFFCURVE",
"231 440 CURVE SMOOTH",
"193 441 LINE",
"231 442 LINE SMOOTH",
"250 442 OFFCURVE",
"308 473 OFFCURVE",
"308 533 CURVE SMOOTH",
"308 553 LINE SMOOTH",
"308 627 OFFCURVE",
"268 645 OFFCURVE",
"213 645 CURVE SMOOTH",
"106 645 LINE SMOOTH",
"40 645 OFFCURVE",
"14 618 OFFCURVE",
"14 575 CURVE SMOOTH",
"14 527 LINE",
"142 505 LINE",
"142 554 LINE SMOOTH",
"142 569 OFFCURVE",
"148 573 OFFCURVE",
"155 573 CURVE SMOOTH",
"162 573 LINE SMOOTH",
"168 573 OFFCURVE",
"174 569 OFFCURVE",
"174 554 CURVE SMOOTH",
"174 525 LINE SMOOTH",
"174 486 OFFCURVE",
"157 484 OFFCURVE",
"139 484 CURVE SMOOTH",
"87 484 LINE",
"87 407 LINE",
"156 406 LINE SMOOTH",
"168 406 OFFCURVE",
"174 403 OFFCURVE",
"174 379 CURVE SMOOTH",
"174 347 LINE SMOOTH",
"174 323 OFFCURVE",
"167 320 OFFCURVE",
"160 320 CURVE SMOOTH",
"156 320 LINE SMOOTH",
"150 320 OFFCURVE",
"142 323 OFFCURVE",
"142 347 CURVE SMOOTH",
"142 371 LINE",
"14 384 LINE",
"14 327 LINE SMOOTH",
"14 267 OFFCURVE",
"54 240 OFFCURVE",
"135 240 CURVE SMOOTH"
);
}
);
width = 325;
},
{
layerId = "B8E7A328-E4C9-4125-8050-BD17141FCA48";
paths = (
{
closed = 1;
nodes = (
"140 221 LINE SMOOTH",
"187 221 OFFCURVE",
"218 247 OFFCURVE",
"218 307 CURVE SMOOTH",
"218 355 LINE SMOOTH",
"218 404 OFFCURVE",
"185 425 OFFCURVE",
"161 427 CURVE",
"148 428 LINE",
"161 429 LINE",
"184 432 OFFCURVE",
"218 459 OFFCURVE",
"218 513 CURVE SMOOTH",
"218 543 LINE SMOOTH",
"218 609 OFFCURVE",
"189 624 OFFCURVE",
"144 624 CURVE SMOOTH",
"105 624 LINE SMOOTH",
"63 624 OFFCURVE",
"39 597 OFFCURVE",
"39 543 CURVE SMOOTH",
"39 492 LINE",
"58 487 LINE",
"58 543 LINE SMOOTH",
"58 578 OFFCURVE",
"66 608 OFFCURVE",
"114 608 CURVE SMOOTH",
"138 608 LINE SMOOTH",
"182 608 OFFCURVE",
"198 596 OFFCURVE",
"198 543 CURVE SMOOTH",
"198 512 LINE SMOOTH",
"198 454 OFFCURVE",
"169 435 OFFCURVE",
"130 435 CURVE SMOOTH",
"94 435 LINE",
"94 420 LINE",
"131 420 LINE SMOOTH",
"170 420 OFFCURVE",
"198 408 OFFCURVE",
"198 345 CURVE SMOOTH",
"198 311 LINE SMOOTH",
"198 267 OFFCURVE",
"184 237 OFFCURVE",
"137 237 CURVE SMOOTH",
"116 237 LINE SMOOTH",
"69 237 OFFCURVE",
"58 263 OFFCURVE",
"58 312 CURVE SMOOTH",
"58 359 LINE",
"39 363 LINE",
"39 306 LINE SMOOTH",
"39 246 OFFCURVE",
"64 221 OFFCURVE",
"115 221 CURVE SMOOTH"
);
}
);
width = 257;
}
);
unicode = 00B3;
},
{
glyphname = foursuperior;
lastChange = "2021-12-15 23:40:28 +0000";
layers = (
{
background = {
paths = (
{
closed = 1;
nodes = (
"337 240 LINE",
"336 317 LINE",
"384 317 LINE",
"402 395 LINE",
"335 395 LINE",
"337 643 LINE",
"162 643 LINE",
"3 395 LINE",
"57 317 LINE",
"187 317 LINE",
"186 240 LINE"
);
},
{
closed = 1;
nodes = (
"140 395 LINE",
"192 495 LINE",
"192 395 LINE"
);
},
{
closed = 1;
nodes = (
"337 240 LINE",
"336 317 LINE",
"384 317 LINE",
"402 395 LINE",
"335 395 LINE",
"337 643 LINE",
"162 643 LINE",
"3 395 LINE",
"57 317 LINE",
"187 317 LINE",
"186 240 LINE"
);
},
{
closed = 1;
nodes = (
"192 495 LINE",
"192 395 LINE",
"140 395 LINE"
);
}
);
};
layerId = "D686CB0C-BBDB-4E69-8E5A-045D5C85CA47";
paths = (
{
closed = 1;
nodes = (
"327 240 LINE",
"326 317 LINE",
"374 317 LINE",
"392 395 LINE",
"325 395 LINE",
"327 643 LINE",
"152 643 LINE",
"3 395 LINE",
"57 317 LINE",
"177 317 LINE",
"176 240 LINE"
);
},
{
closed = 1;
nodes = (
"182 495 LINE",
"182 395 LINE",
"140 395 LINE"
);
}
);
width = 401;
},
{
layerId = "B8E7A328-E4C9-4125-8050-BD17141FCA48";
paths = (
{
closed = 1;
nodes = (
"206 224 LINE",
"206 305 LINE",
"255 305 LINE",
"258 321 LINE",
"206 321 LINE",
"206 627 LINE",
"185 627 LINE",
"5 321 LINE",
"13 305 LINE",
"186 305 LINE",
"186 224 LINE"
);
},
{
closed = 1;
nodes = (
"186 598 LINE",
"186 321 LINE",
"26 321 LINE"
);
}
);
width = 258;
}
);
unicode = 2074;
},
{
glyphname = fraction;
lastChange = "2021-12-15 23:40:28 +0000";
layers = (
{
background = {
paths = (
{
closed = 1;
nodes = (
"-22 -44 LINE",
"320 630 LINE",
"224 630 LINE",
"-116 -44 LINE"
);
}
);
};
layerId = "D686CB0C-BBDB-4E69-8E5A-045D5C85CA47";
paths = (
{
closed = 1;
nodes = (
"-34 -44 LINE",
"351 630 LINE",
"232 630 LINE",
"-151 -44 LINE"
);
}
);
width = 184;
},
{
layerId = "B8E7A328-E4C9-4125-8050-BD17141FCA48";
paths = (
{
closed = 1;
nodes = (
"-96 -44 LINE",
"286 630 LINE",
"266 630 LINE",
"-114 -44 LINE"
);
}
);
width = 149;
}
);
unicode = 2044;
},
{
glyphname = onehalf;
lastChange = "2021-12-15 23:40:28 +0000";
layers = (
{
background = {
paths = (
{
closed = 1;
nodes = (
"243 240 LINE",
"242 643 LINE",
"117 643 LINE",
"5 504 LINE",
"58 454 LINE",
"115 513 LINE",
"115 240 LINE"
);
},
{
closed = 1;
nodes = (
"776 0 LINE",
"794 100 LINE",
"628 99 LINE",
"628 103 OFFCURVE",
"637 123 OFFCURVE",
"681 148 CURVE",
"688 151 OFFCURVE",
"694 155 OFFCURVE",
"699 157 CURVE SMOOTH",
"775 187 OFFCURVE",
"794 220 OFFCURVE",
"794 278 CURVE SMOOTH",
"794 331 LINE SMOOTH",
"794 392 OFFCURVE",
"765 404 OFFCURVE",
"696 404 CURVE SMOOTH",
"598 404 LINE SMOOTH",
"531 404 OFFCURVE",
"500 392 OFFCURVE",
"500 331 CURVE SMOOTH",
"500 268 LINE",
"628 245 LINE",
"628 305 LINE SMOOTH",
"628 324 OFFCURVE",
"631 331 OFFCURVE",
"643 331 CURVE SMOOTH",
"644 331 LINE SMOOTH",
"656 331 OFFCURVE",
"659 324 OFFCURVE",
"659 302 CURVE SMOOTH",
"659 268 LINE SMOOTH",
"659 253 OFFCURVE",
"661 238 OFFCURVE",
"594 217 CURVE SMOOTH",
"586 214 OFFCURVE",
"577 209 OFFCURVE",
"567 205 CURVE SMOOTH",
"500 176 OFFCURVE",
"501 167 OFFCURVE",
"501 0 CURVE"
);
},
{
closed = 1;
nodes = (
"246 -44 LINE",
"588 630 LINE",
"492 630 LINE",
"152 -44 LINE"
);
}
);
};
components = (
{
name = onesuperior;
},
{
name = fraction;
transform = "{1, 0, 0, 1, 263, 0}";
},
{
alignment = -1;
name = twosuperior;
transform = "{1, 0, 0, 1, 484, -240}";
}
);
layerId = "D686CB0C-BBDB-4E69-8E5A-045D5C85CA47";
width = 810;
},
{
components = (
{
alignment = -1;
name = onesuperior;
},
{
alignment = -1;
name = fraction;
transform = "{1, 0, 0, 1, 186, 0}";
},
{
alignment = -1;
name = twosuperior;
transform = "{1, 0, 0, 1, 368, -221}";
}
);
layerId = "B8E7A328-E4C9-4125-8050-BD17141FCA48";
width = 616;
}
);
rightMetricsKey = twosuperior;
unicode = 00BD;
},
{
glyphname = period;
lastChange = "2021-12-15 23:41:16 +0000";
layers = (
{
background = {
paths = (
{
closed = 1;
nodes = (
"157 -6 OFFCURVE",
"159 7 OFFCURVE",
"159 45 CURVE SMOOTH",
"159 86 OFFCURVE",
"158 96 OFFCURVE",
"108 96 CURVE SMOOTH",
"60 96 OFFCURVE",
"60 86 OFFCURVE",
"60 45 CURVE SMOOTH",
"60 7 OFFCURVE",
"60 -6 OFFCURVE",
"108 -6 CURVE SMOOTH"
);
}
);
};
layerId = "D686CB0C-BBDB-4E69-8E5A-045D5C85CA47";
paths = (
{
closed = 1;
nodes = (
"157 -6 OFFCURVE",
"159 7 OFFCURVE",
"159 45 CURVE SMOOTH",
"159 86 OFFCURVE",
"158 96 OFFCURVE",
"108 96 CURVE SMOOTH",
"60 96 OFFCURVE",
"60 86 OFFCURVE",
"60 45 CURVE SMOOTH",
"60 7 OFFCURVE",
"60 -6 OFFCURVE",
"108 -6 CURVE SMOOTH"
);
}
);
width = 219;
},
{
layerId = "B8E7A328-E4C9-4125-8050-BD17141FCA48";
paths = (
{
closed = 1;
nodes = (
"82 7 OFFCURVE",
"83 14 OFFCURVE",
"83 23 CURVE SMOOTH",
"83 34 OFFCURVE",
"82 41 OFFCURVE",
"66 41 CURVE SMOOTH",
"50 41 OFFCURVE",
"50 34 OFFCURVE",
"50 23 CURVE SMOOTH",
"50 14 OFFCURVE",
"50 7 OFFCURVE",
"66 7 CURVE SMOOTH"
);
}
);
width = 148;
}
);
leftKerningGroup = comma;
note = period;
rightKerningGroup = comma;
unicode = 002E;
},
{
glyphname = comma;
lastChange = "2021-12-15 23:40:28 +0000";
layers = (
{
background = {
paths = (
{
closed = 1;
nodes = (
"116 -144 LINE",
"135 -108 OFFCURVE",
"169 -12 OFFCURVE",
"169 45 CURVE SMOOTH",
"169 86 OFFCURVE",
"168 96 OFFCURVE",
"118 96 CURVE SMOOTH",
"64 96 OFFCURVE",
"64 86 OFFCURVE",
"64 45 CURVE SMOOTH",
"64 17 OFFCURVE",
"66 0 OFFCURVE",
"96 0 CURVE",
"96 -33 OFFCURVE",
"76 -75 OFFCURVE",
"50 -144 CURVE"
);
}
);
};
layerId = "D686CB0C-BBDB-4E69-8E5A-045D5C85CA47";
paths = (
{
closed = 1;
nodes = (
"116 -144 LINE",
"135 -108 OFFCURVE",
"169 -12 OFFCURVE",
"169 45 CURVE SMOOTH",
"169 86 OFFCURVE",
"168 96 OFFCURVE",
"118 96 CURVE SMOOTH",
"64 96 OFFCURVE",
"64 86 OFFCURVE",
"64 45 CURVE SMOOTH",
"64 17 OFFCURVE",
"66 0 OFFCURVE",
"96 0 CURVE",
"96 -33 OFFCURVE",
"76 -75 OFFCURVE",
"50 -144 CURVE"
);
}
);
width = 227;
},
{
layerId = "B8E7A328-E4C9-4125-8050-BD17141FCA48";
paths = (
{
closed = 1;
nodes = (
"54 -98 LINE",
"71 -71 OFFCURVE",
"84 -19 OFFCURVE",
"84 23 CURVE SMOOTH",
"84 34 OFFCURVE",
"83 41 OFFCURVE",
"68 41 CURVE SMOOTH",
"51 41 OFFCURVE",
"51 32 OFFCURVE",
"51 21 CURVE SMOOTH",
"51 14 OFFCURVE",
"52 8 OFFCURVE",
"68 8 CURVE",
"68 -32 OFFCURVE",
"58 -68 OFFCURVE",
"40 -98 CURVE"
);
}
);
width = 180;
}
);
leftKerningGroup = comma;
note = comma;
rightKerningGroup = comma;
unicode = 002C;
},
